<svg width="16" height="16" viewBox="0 0 16 16" fill="none" xmlns="http://www.w3.org/2000/svg">
<path d="M14.3732 12.4689C14.1219 13.0279 13.8244 13.5424 13.4797 14.0155C13.0098 14.6604 12.625 15.1068 12.3285 15.3547C11.8689 15.7616 11.3765 15.97 10.8491 15.9818C10.4706 15.9818 10.014 15.8781 9.48258 15.6678C8.9494 15.4584 8.45941 15.3547 8.01138 15.3547C7.5415 15.3547 7.03756 15.4584 6.49853 15.6678C5.95868 15.8781 5.52378 15.9878 5.19127 15.9986C4.68559 16.0194 4.18154 15.8051 3.67842 15.3547C3.3573 15.0851 2.95564 14.6229 2.47448 13.9681C1.95822 13.2688 1.53379 12.458 1.20128 11.5336C0.845178 10.5351 0.666664 9.5682 0.666664 8.63213C0.666664 7.55987 0.90735 6.63506 1.38944 5.86007C1.76832 5.23757 2.27237 4.74652 2.90322 4.38604C3.53407 4.02556 4.2157 3.84186 4.94977 3.83011C5.35142 3.83011 5.87814 3.94971 6.53269 4.18476C7.1854 4.42061 7.60449 4.54021 7.78824 4.54021C7.92561 4.54021 8.39118 4.40036 9.18044 4.12156C9.92681 3.863 10.5567 3.75594 11.0728 3.79811C12.4711 3.90675 13.5217 4.4374 14.2204 5.39342C12.9698 6.12288 12.3511 7.14457 12.3634 8.45525C12.3747 9.47616 12.7594 10.3257 13.5156 11.0003C13.8582 11.3133 14.2409 11.5553 14.6667 11.7272C14.5743 11.9849 14.4769 12.2318 14.3732 12.4689V12.4689ZM11.1662 0.320091C11.1662 1.12027 10.8625 1.8674 10.2572 2.55894C9.5267 3.38103 8.64316 3.85608 7.68503 3.78112C7.67282 3.68512 7.66574 3.58409 7.66574 3.47792C7.66574 2.70975 8.01312 1.88765 8.63002 1.21547C8.93801 0.875136 9.32972 0.592152 9.80473 0.36641C10.2787 0.144037 10.727 0.0210593 11.1487 0C11.161 0.106972 11.1662 0.213951 11.1662 0.320081V0.320091Z" fill="black"/>
</svg>
