<svg width="27" height="9" viewBox="0 0 27 9" fill="none" xmlns="http://www.w3.org/2000/svg">
<g clip-path="url(#clip0)">
<path d="M14.493 3.98917C16.1813 3.22354 16.431 0.725098 14.0295 0.725098H11.2485L10.2207 2.73997H10.7044L9.4751 7.55551H12.6995C15.0518 7.57561 16.1097 4.80615 14.493 3.98917ZM12.6995 5.80258H11.8934L12.1956 4.71458H12.9614C13.8683 4.89587 13.3041 5.84285 12.6995 5.80258ZM13.1831 3.48543H12.498L12.6995 2.53846H13.4652C14.2051 2.71981 13.5661 3.52576 13.1831 3.48543Z" fill="#005FAF" stroke="#005FAF" stroke-width="0.0603933"/>
<path d="M21.0949 3.29845L22.1507 1.435L20.7221 0.689941L20.5358 0.919883C19.7651 0.511997 15.7295 1.07518 15.4768 5.05542C15.6279 8.39436 19.3699 7.79374 19.737 7.58188L20.7662 5.4547C19.7582 6.11852 17.6942 6.4372 17.6069 4.44313C17.7879 2.79876 19.7297 2.18468 21.0949 3.29845ZM26.3634 0.725184H23.1177L22.086 2.67974H22.616L20.17 7.5556H22.5376L23.0237 6.37954H24.477L24.5132 7.5556H26.6927L26.3634 0.725184ZM23.6821 4.79613L24.4769 2.89923L24.5132 4.79613H23.6821Z" fill="#005FAF" stroke="#005FAF" stroke-width="0.0603933"/>
<path d="M6.09445 7.22958L6.22054 7.19301L6.08226 7.00195L6.09445 7.22958ZM4.0245 7.19706L4.00012 7.36784C4.06287 7.36171 4.14013 7.41579 4.17093 7.29464C4.16862 7.20023 4.09673 7.19503 4.0245 7.19706ZM5.02903 7.19301C5.01857 7.1465 4.97974 7.11224 4.8826 7.14425L4.91513 7.31902C4.99493 7.30134 5.03596 7.25414 5.02903 7.19301ZM2.75978 7.04996L2.72095 7.20526C2.78335 7.20786 2.85645 7.25847 2.89788 7.16644C2.90066 7.10878 2.90303 7.05135 2.75978 7.04996ZM4.94362 7.44918L4.97211 7.62811C5.03873 7.62979 5.09952 7.58975 5.0819 7.50615C5.06491 7.42573 4.99736 7.43844 4.94362 7.44918Z" fill="#005FAF"/>
<path d="M7.58924 0.817186C5.4358 -0.279657 2.86399 -0.249152 0.812187 0.769349C-0.245844 2.63158 -0.279532 5.23714 0.812187 7.54488C3.07265 8.68857 5.57275 8.61324 7.60514 7.59271C8.56031 5.63342 8.71806 3.27577 7.58924 0.817186ZM3.9523 6.37784L3.82466 6.37928C3.79305 6.02663 3.70874 5.73025 3.52788 5.50342C2.6985 4.46355 1.00311 5.24645 1.43874 3.47919C1.66526 2.57572 4.24897 2.04287 3.9523 6.37784ZM1.4418 4.63236C1.6229 5.0009 2.7575 5.06128 3.15135 5.34339C3.77612 5.79085 3.68644 6.37946 3.68644 6.37946H3.53909C3.24901 5.49048 2.43489 6.19435 1.78279 5.95493C1.37339 5.80934 1.07615 5.17827 1.4418 4.63236ZM3.50898 7.53037L3.57 7.04652L3.67979 7.05466L3.63096 7.58728C3.58173 7.8219 3.23185 7.79053 3.1877 7.56695L3.24462 7.01399L3.37475 7.03438L3.31783 7.49785C3.32505 7.65124 3.47893 7.64205 3.50898 7.53037ZM2.92472 7.6625L2.79956 7.63229C2.81424 7.52887 2.93692 7.31846 2.69445 7.31846L2.62696 7.59346L2.48886 7.56758L2.63557 6.9074C2.99418 6.94645 3.02556 7.04623 3.03266 7.15334C3.01851 7.23642 2.99638 7.29443 2.92478 7.30864C3.00857 7.38467 2.92576 7.54401 2.92472 7.6625ZM2.12978 6.92305C2.09529 6.96881 2.02624 7.12867 2.01624 7.25606C2.00561 7.39108 2.13533 7.36266 2.16763 7.34688C2.19369 7.33423 2.21305 7.22579 2.21305 7.22579L2.12221 7.19552L2.15249 7.10475L2.35693 7.17287L2.25853 7.5135L2.17526 7.49074L2.18283 7.43776C2.0809 7.48421 1.89431 7.44938 1.87241 7.3318C1.85051 7.23734 1.91685 6.95096 2.02381 6.81715C2.12776 6.68704 2.38103 6.81421 2.38721 6.89284C2.39334 6.97118 2.36242 7.05934 2.36242 7.05934L2.26708 7.04137C2.26708 7.04137 2.27292 7.01306 2.28124 6.96846C2.29002 6.9212 2.16677 6.87389 2.12978 6.92305ZM3.98888 7.47745L3.96449 7.77025L3.86285 7.76621L3.89943 7.0709C4.15328 7.07615 4.29878 7.11128 4.29392 7.2905C4.27878 7.53534 4.08047 7.48028 3.98888 7.47745ZM4.24192 6.3794H4.07186C4.05678 5.77727 4.17257 4.67593 3.85615 3.86541C3.6164 3.25098 3.00967 2.97459 2.8752 2.47825C2.66232 1.69264 3.02463 0.842607 4.24192 0.777148C5.29723 0.885475 5.62146 1.70003 5.44146 2.45844C5.13197 3.21672 4.82242 3.10776 4.43705 3.8631C4.1223 4.67281 4.24215 5.7336 4.24192 6.3794ZM6.12794 7.49375L6.01 7.53442L5.97336 6.83506L6.11164 6.79849L6.45326 7.37583L6.35971 7.43684L6.24582 7.27426L6.11569 7.32302L6.12794 7.49375ZM4.75204 6.3794H4.61601C4.72811 4.83301 6.67169 5.16897 6.84932 4.63236C7.1565 5.16435 7.04607 5.61291 6.72531 5.84285C5.92824 6.41447 5.16392 5.41983 4.75204 6.3794ZM5.47324 7.16039L5.53426 7.48161C5.57223 7.55562 5.598 7.54193 5.65624 7.53448C5.72379 7.4856 5.7097 7.43799 5.69693 7.37589L5.81486 7.35965C5.8456 7.59237 5.73495 7.61611 5.6522 7.63206C5.47474 7.64477 5.43996 7.61022 5.39194 7.37999C5.36397 7.18292 5.31566 6.97482 5.48139 6.9368C5.75344 6.89526 5.73737 7.01769 5.76199 7.10348L5.64405 7.12388C5.62521 7.05016 5.59811 7.02092 5.53831 7.02635C5.48382 7.05137 5.46145 7.09187 5.47324 7.16039ZM5.22517 7.49375C5.23084 7.59502 5.19646 7.66227 5.13162 7.68486L4.85507 7.74177L4.74528 7.0709C4.80202 7.06165 5.08025 6.95974 5.14786 7.14415C5.1812 7.25676 5.14665 7.29714 5.10718 7.3474C5.18201 7.37144 5.20726 7.42967 5.22517 7.49375ZM4.51501 4.12707C5.1311 2.39269 6.54086 2.69918 6.85354 3.47925C7.28189 5.04452 5.90258 4.61526 5.01906 5.25713C4.68512 5.54751 4.5094 5.88063 4.5068 6.38564H4.3554C4.34633 5.36846 4.32986 4.64819 4.51501 4.12707Z" fill="#005FAF"/>
</g>
<defs>
<clipPath id="clip0">
<rect width="26.728" height="8.38044" fill="white"/>
</clipPath>
</defs>
</svg>
