<svg width="40" height="39" viewBox="0 0 40 39" fill="none" xmlns="http://www.w3.org/2000/svg">
<path d="M11.5 4L15.25 3C15.25 3 17.6795 4.72662 19.5 4.72662C21.3205 4.72662 23.75 3 23.75 3L27.5 4M25.6056 7.04676C23.75 10.9317 25.0845 18 25.0845 18H13.9155C13.9155 18 15.25 11.3094 13.3944 7.04676" stroke="#FC8080" stroke-linecap="round" stroke-linejoin="round"/>
<path d="M11.589 4L10 6.25352L12.4658 8L13.5 7" stroke="#FC8080" stroke-linecap="round" stroke-linejoin="round"/>
<path d="M27.411 4L29 6.16352L26.5 8L25.5 7" stroke="#FC8080" stroke-linecap="round" stroke-linejoin="round"/>
<path d="M16.4808 9.36264C16.4049 9.09712 16.1282 8.94338 15.8626 9.01924C15.5971 9.0951 15.4434 9.37184 15.5192 9.63736L16.4808 9.36264ZM15.5257 15.8419C15.4383 16.1039 15.5799 16.387 15.8419 16.4743C16.1039 16.5617 16.387 16.4201 16.4743 16.1581L15.5257 15.8419ZM15.5192 9.63736C15.8401 10.7603 16.2799 13.5791 15.5257 15.8419L16.4743 16.1581C17.3201 13.6209 16.8266 10.573 16.4808 9.36264L15.5192 9.63736Z" fill="#FC8080"/>
<path d="M13.7583 19.9766C13.7823 19.7929 13.8031 19.6327 13.8203 19.5H25.1866C25.2037 19.6303 25.2243 19.7871 25.248 19.9669C25.3222 20.5305 25.4267 21.3194 25.5474 22.2206C25.7888 24.0224 26.0957 26.2746 26.357 28.0719C26.5954 29.7125 26.2546 31.884 25.832 33.691C25.6228 34.5851 25.3979 35.3727 25.2253 35.9368C25.1559 36.1635 25.0951 36.3539 25.0473 36.5H13.9574C13.9092 36.3548 13.848 36.1656 13.7782 35.9401C13.6044 35.379 13.3782 34.5949 13.1681 33.7034C12.7437 31.9018 12.403 29.7308 12.649 28.0734C12.9104 26.3122 13.2174 24.0592 13.4588 22.248C13.5796 21.3421 13.684 20.5462 13.7583 19.9766Z" stroke="#FC8080" stroke-linecap="round" stroke-linejoin="round"/>
<path d="M15.8406 24C15.174 25.3333 14.3407 30 15.8407 33.5" stroke="#FC8080" stroke-linecap="round" stroke-linejoin="round"/>
</svg>
