<svg width="24" height="24" viewBox="0 0 24 24" fill="none" xmlns="http://www.w3.org/2000/svg">
<mask id="path-1-inside-1" fill="white">
<path fill-rule="evenodd" clip-rule="evenodd" d="M2 8C2 6.89543 2.89543 6 4 6H20C21.1046 6 22 6.89543 22 8V10C20.8954 10 20 10.8954 20 12C20 13.1046 20.8954 14 22 14V16C22 17.1046 21.1046 18 20 18H4C2.89543 18 2 17.1046 2 16V14C3.10457 14 4 13.1046 4 12C4 10.8954 3.10457 10 2 10V8Z"/>
</mask>
<path d="M22 10V11H23V10H22ZM22 14H23V13H22V14ZM2 14V13H1V14H2ZM2 10H1V11H2V10ZM4 5C2.34315 5 1 6.34315 1 8H3C3 7.44772 3.44772 7 4 7V5ZM20 5H4V7H20V5ZM23 8C23 6.34315 21.6569 5 20 5V7C20.5523 7 21 7.44772 21 8H23ZM23 10V8H21V10H23ZM21 12C21 11.4477 21.4477 11 22 11V9C20.3431 9 19 10.3431 19 12H21ZM22 13C21.4477 13 21 12.5523 21 12H19C19 13.6569 20.3431 15 22 15V13ZM23 16V14H21V16H23ZM20 19C21.6569 19 23 17.6569 23 16H21C21 16.5523 20.5523 17 20 17V19ZM4 19H20V17H4V19ZM1 16C1 17.6569 2.34315 19 4 19V17C3.44772 17 3 16.5523 3 16H1ZM1 14V16H3V14H1ZM3 12C3 12.5523 2.55228 13 2 13V15C3.65685 15 5 13.6569 5 12H3ZM2 11C2.55228 11 3 11.4477 3 12H5C5 10.3431 3.65685 9 2 9V11ZM1 8V10H3V8H1Z" fill="#AAAAAA" mask="url(#path-1-inside-1)"/>
<line x1="7.5" y1="6" x2="7.5" y2="18" stroke="#AAAAAA"/>
<path d="M11.696 12.152C11.44 12.152 11.208 12.096 11 11.984C10.792 11.8667 10.6267 11.7013 10.504 11.488C10.3813 11.2747 10.32 11.0213 10.32 10.728C10.32 10.4347 10.3813 10.1813 10.504 9.968C10.6267 9.75467 10.792 9.592 11 9.48C11.208 9.36267 11.4427 9.304 11.704 9.304C11.96 9.304 12.1893 9.36267 12.392 9.48C12.6 9.592 12.7653 9.75467 12.888 9.968C13.0107 10.1813 13.072 10.4347 13.072 10.728C13.072 11.0213 13.0107 11.2747 12.888 11.488C12.7653 11.7013 12.6 11.8667 12.392 11.984C12.184 12.096 11.952 12.152 11.696 12.152ZM11.392 15L14.552 9.4H15.552L12.392 15H11.392ZM11.696 11.44C11.8507 11.44 11.984 11.3813 12.096 11.264C12.208 11.1413 12.264 10.9627 12.264 10.728C12.264 10.4933 12.208 10.3147 12.096 10.192C11.9893 10.0693 11.856 10.008 11.696 10.008C11.536 10.008 11.4 10.0693 11.288 10.192C11.1813 10.3147 11.128 10.4933 11.128 10.728C11.128 10.9627 11.1813 11.1413 11.288 11.264C11.4 11.3813 11.536 11.44 11.696 11.44ZM15.28 15.096C15.024 15.096 14.792 15.04 14.584 14.928C14.376 14.8107 14.2107 14.6453 14.088 14.432C13.9653 14.2187 13.904 13.9653 13.904 13.672C13.904 13.3787 13.9653 13.128 14.088 12.92C14.2107 12.7067 14.376 12.544 14.584 12.432C14.792 12.3147 15.0267 12.256 15.288 12.256C15.544 12.256 15.7733 12.3147 15.976 12.432C16.184 12.544 16.3493 12.7067 16.472 12.92C16.5947 13.128 16.656 13.3787 16.656 13.672C16.656 13.9653 16.5947 14.2187 16.472 14.432C16.3493 14.6453 16.184 14.8107 15.976 14.928C15.7733 15.04 15.5413 15.096 15.28 15.096ZM15.28 14.384C15.44 14.384 15.5733 14.3253 15.68 14.208C15.792 14.0853 15.848 13.9067 15.848 13.672C15.848 13.4373 15.792 13.2587 15.68 13.136C15.5733 13.0133 15.44 12.952 15.28 12.952C15.12 12.952 14.984 13.0133 14.872 13.136C14.7653 13.2587 14.712 13.4373 14.712 13.672C14.712 13.9067 14.7653 14.0853 14.872 14.208C14.984 14.3253 15.12 14.384 15.28 14.384Z" fill="#AAAAAA"/>
</svg>
