<svg width="16" height="16" viewBox="0 0 16 16" fill="none" xmlns="http://www.w3.org/2000/svg">
<path d="M4.21689 8.52159H5.97074V15.7419C5.97074 15.8845 6.08624 16 6.2288 16H9.20252C9.34508 16 9.46058 15.8845 9.46058 15.7419V8.55562H11.4768C11.6079 8.55562 11.7182 8.45725 11.7332 8.32703L12.0394 5.66888C12.0478 5.59575 12.0246 5.5225 11.9757 5.46763C11.9267 5.41272 11.8566 5.38128 11.7831 5.38128H9.46071V3.715C9.46071 3.21272 9.73114 2.958 10.2646 2.958C10.3407 2.958 11.7831 2.958 11.7831 2.958C11.9256 2.958 12.0411 2.84244 12.0411 2.69994V0.259969C12.0411 0.117406 11.9256 0.00190625 11.7831 0.00190625H9.69043C9.67568 0.0011875 9.6429 0 9.59458 0C9.23149 0 7.96939 0.0712812 6.97243 0.988437C5.8678 2.00481 6.02136 3.22172 6.05805 3.43272V5.38122H4.21686C4.0743 5.38122 3.9588 5.49672 3.9588 5.63928V8.2635C3.95883 8.40603 4.07433 8.52159 4.21689 8.52159Z" fill="#385C8E"/>
</svg>
