<svg width="40" height="39" viewBox="0 0 40 39" fill="none" xmlns="http://www.w3.org/2000/svg">
<path d="M28 17.5C20.435 23.0948 16.5 22 13.5 19.5C9.87578 20.5841 0.8892 25.7004 3.50195 26.7611C8.9638 28.9782 21.2178 28.2989 21.9999 27.5C29.4999 19.8392 34.097 25.5101 36.1198 22.8415C37.7381 20.7065 36.9628 12.9174 35.1086 12C32.5226 14.3558 35.4145 12.0166 28 17.5Z" stroke="#FC8080" stroke-linejoin="round"/>
<path d="M29.7144 23.2583C30.6977 23.3417 31.979 24.0623 32.0464 25.6635V27.3447H33.76C33.7038 26.2883 33.7094 23.9922 34.1814 23.2583" stroke="#FC8080"/>
<path d="M8.5 22C8.5 24.0823 15.5 26.5 12.5399 20" stroke="#FC8080"/>
</svg>
