<svg width="16" height="16" viewBox="0 0 16 16" fill="none" xmlns="http://www.w3.org/2000/svg">
<g clip-path="url(#clip0)">
<path d="M12.5691 9.13876H8.66043V7.05811H15.4299C15.4772 7.42999 15.5 7.80699 15.5 8.18368C15.5 10.4172 14.7145 12.2834 13.3714 13.5687H11.4376V12.3306C12.2884 11.6964 12.8693 10.7691 13.0608 9.7293L13.1695 9.13876H12.5691Z" fill="#4285F4" stroke="#6D9BE1"/>
<path d="M8.16046 16C10.3618 16 12.2182 15.2915 13.5708 14.0687L10.9406 12.0698C10.2088 12.5578 9.26411 12.8341 8.16346 12.8341C6.03412 12.8341 4.22869 11.426 3.58089 9.53296H0.866745V11.5936C2.25231 14.295 5.07443 16 8.16046 16V16Z" fill="#34A853"/>
<path d="M3.57787 9.53295C3.23597 8.53938 3.23597 7.4635 3.57787 6.46993V4.4093H0.866711C-0.290928 6.66982 -0.290928 9.33306 0.866711 11.5936L3.57787 9.53295V9.53295Z" fill="#FBBC04"/>
<path d="M8.16046 3.16583C9.32409 3.14819 10.4487 3.57737 11.2915 4.36517L13.6217 2.08113C12.1462 0.723059 10.1878 -0.0235877 8.16046 -7.12409e-05C5.07443 -7.12409e-05 2.25231 1.70487 0.866745 4.40926L3.57789 6.46989C4.22269 4.57388 6.03113 3.16583 8.16046 3.16583V3.16583Z" fill="#EA4335"/>
</g>
<defs>
<clipPath id="clip0">
<rect width="16" height="16" fill="white"/>
</clipPath>
</defs>
</svg>
