<svg width="40" height="39" viewBox="0 0 40 39" fill="none" xmlns="http://www.w3.org/2000/svg">
<path d="M34.6436 23.5718C34.6436 25.4426 34.3423 26.4953 33.798 27.4022C33.5187 27.8674 33.1667 28.3088 32.7275 28.814C32.5564 29.0107 32.3644 29.2256 32.1582 29.4564C31.8561 29.7945 31.5236 30.1666 31.1822 30.5654C30.5526 31.3008 29.8593 31.6192 29.0949 31.7036C28.3053 31.7907 27.4157 31.6307 26.4065 31.3486C25.9052 31.2084 25.3877 31.0422 24.8468 30.8683L24.8342 30.8643C24.3003 30.6927 23.7449 30.5141 23.1782 30.3531C22.0367 30.0289 20.8228 29.7677 19.5718 29.7677C18.3212 29.7677 17.0978 30.0287 15.9427 30.3527C15.3761 30.5116 14.8192 30.6876 14.2825 30.8573L14.2499 30.8676C13.7 31.0414 13.1726 31.2077 12.6616 31.3479C11.6327 31.6302 10.7223 31.791 9.91646 31.7035C9.13522 31.6187 8.43349 31.2988 7.80561 30.5654C7.51575 30.2268 7.24941 29.9234 7.00461 29.6445C6.23566 28.7685 5.67938 28.1348 5.27498 27.4147C4.76608 26.5084 4.5 25.453 4.5 23.5718C4.5 15.2479 11.2479 8.5 19.5718 8.5C27.8957 8.5 34.6436 15.2479 34.6436 23.5718Z" stroke="#FC8080"/>
<path d="M4.31152 25.752C6.99475 23.1623 12.6186 21.2521 19.6005 21.3918C24.2339 21.4846 30.7836 22.4819 34.8322 25.9076" stroke="#FC8080"/>
<circle cx="19.5" cy="14.5" r="3" stroke="#FC8080"/>
<path d="M8 23.5001C8.10381 20.801 7.88564 15.1319 11 11.2701M31 23.5001C31 20.7491 31.116 15.0073 28.4999 11.2701" stroke="#FC8080"/>
<path d="M11 30L12.5 29.5" stroke="#FC8080" stroke-linecap="round"/>
<path d="M8 26L10 28.5" stroke="#FC8080" stroke-linecap="round"/>
</svg>
