<svg width="40" height="40" viewBox="0 0 40 40" fill="none" xmlns="http://www.w3.org/2000/svg">
<path d="M19.5616 37.5V13.36M19.5616 37.5H10.8082M19.5616 37.5H28.3151M10.8082 37.5H5.03606C4.46989 37.5 4.01664 37.0304 4.03668 36.4646L4.9565 10.5013C4.96673 10.2125 5.10145 9.94216 5.32593 9.76008L10.8082 5.31334M10.8082 37.5H28.3151M10.8082 37.5V19.5133M28.3151 37.5H34.0872C34.6534 37.5 35.1067 37.0304 35.0866 36.4646L34.1668 10.5013C34.1566 10.2125 34.0218 9.94216 33.7974 9.76008L28.3151 5.31334M28.3151 37.5V19.5133M28.3151 19.5133L29.2877 14.78M28.3151 19.5133L26.3699 17.62M10.8082 19.5133L8.86301 14.7799M10.8082 19.5133L12.2671 17.62M14.2123 4.36667H19.5616H24.911" stroke="#FC8080" stroke-linecap="round" stroke-linejoin="round"/>
<path d="M26.3699 2L19.5616 13.36L12.7534 2H26.3699Z" stroke="#FC8080"/>
<path d="M24.4245 11.4667L19.5615 13.36L14.5184 11.4667L10.6659 4.07991C10.4617 3.68825 10.5386 3.20898 10.8551 2.90089L11.7807 2H19.5615H27.3423L28.3923 3.36265C28.6397 3.68374 28.6688 4.12242 28.466 4.47338L24.4245 11.4667Z" stroke="#FC8080"/>
<line x1="17.144" y1="12.9135" x2="17.144" y2="19.4868" stroke="#FC8080" stroke-linecap="round"/>
<path d="M13.7261 29.4532V33.2399" stroke="#FC8080" stroke-linecap="round"/>
<path d="M25.3975 29.4532V33.2399" stroke="#FC8080" stroke-linecap="round"/>
<line x1="22.0068" y1="12.9135" x2="22.0068" y2="19.4868" stroke="#FC8080" stroke-linecap="round"/>
<path d="M4 35H35" stroke="#FC8080"/>
</svg>
