<svg width="40" height="40" viewBox="0 0 40 40" fill="none" xmlns="http://www.w3.org/2000/svg">
<path d="M30.355 2V2.5H33.4809L33.4309 3.8342L33.1827 10.4519L33.1827 10.4518L33.1825 10.4567L32.4337 37.5H27.1025L20.9857 12.4695C20.931 12.2457 20.7304 12.0882 20.5 12.0882C20.2696 12.0882 20.069 12.2457 20.0143 12.4695L13.8975 37.5H8.56694L8.55928 37.2109L8.50257 35.0807C8.45436 33.2751 8.38697 30.7642 8.31028 27.9432C8.15691 22.3013 7.9663 15.4183 7.81742 10.4556C7.74384 8.00302 7.64585 5.48057 7.57822 3.83244C7.55543 3.27716 7.53609 2.82098 7.52228 2.5H7.52517H7.53047H7.5358H7.54116H7.54656H7.55199H7.55747H7.56297H7.56851H7.57409H7.57971H7.58536H7.59105H7.59677H7.60253H7.60833H7.61416H7.62004H7.62594H7.63189H7.63787H7.64389H7.64995H7.65605H7.66218H7.66835H7.67456H7.68081H7.6871H7.69342H7.69978H7.70618H7.71263H7.7191H7.72562H7.73218H7.73878H7.74541H7.75209H7.7588H7.76556H7.77235H7.77918H7.78606H7.79297H7.79993H7.80692H7.81396H7.82103H7.82815H7.83531H7.84251H7.84975H7.85703H7.86435H7.87171H7.87912H7.88656H7.89405H7.90158H7.90916H7.91677H7.92443H7.93213H7.93987H7.94765H7.95548H7.96335H7.97126H7.97922H7.98721H7.99526H8.00334H8.01147H8.01964H8.02786H8.03612H8.04442H8.05277H8.06116H8.0696H8.07808H8.08661H8.09518H8.10379H8.11245H8.12116H8.12991H8.1387H8.14754H8.15643H8.16536H8.17434H8.18336H8.19243H8.20155H8.21071H8.21992H8.22917H8.23847H8.24782H8.25722H8.26666H8.27614H8.28568H8.29526H8.30489H8.31457H8.32429H8.33407H8.34389H8.35376H8.36367H8.37364H8.38365H8.39371H8.40382H8.41398H8.42419H8.43444H8.44475H8.4551H8.4655H8.47596H8.48646H8.49701H8.50761H8.51826H8.52896H8.53971H8.55052H8.56137H8.57227H8.58322H8.59422H8.60528H8.61638H8.62754H8.63874H8.65H8.66131H8.67267H8.68408H8.69554H8.70706H8.71863H8.73025H8.74192H8.75364H8.76542H8.77724H8.78913H8.80106H8.81305H8.82508H8.83718H8.84932H8.86152H8.87377H8.88608H8.89844H8.91085H8.92332H8.93584H8.94841H8.96104H8.97373H8.98646H8.99926H9.0121H9.025H9.03796H9.05097H9.06404H9.07716H9.09034H9.10357H9.11686H9.13021H9.14361H9.15706H9.17057H9.18414H9.19777H9.21145H9.22519H9.23898H9.25283H9.26674H9.2807H9.29473H9.30881H9.32294H9.33714H9.35139H9.3657H9.38006H9.39449H9.40897H9.42351H9.43811H9.45277H9.46749H9.48226H9.4971H9.51199H9.52694H9.54195H9.55702H9.57215H9.58734H9.60259H9.61789H9.63326H9.64869H9.66418H9.67973H9.69533H9.711H9.72673H9.74252H9.75837H9.77428H9.79025H9.80629H9.82238H9.83854H9.85475H9.87103H9.88737H9.90377H9.92024H9.93676H9.95335H9.97H9.99854H10.0273H10.0564H10.0856H10.1151H10.1449H10.1749H10.2051H10.2355H10.2662H10.2972H10.3283H10.3597H10.3913H10.4231H10.4552H10.4875H10.52H10.5528H10.5857H10.6189H10.6523H10.686H10.7198H10.7539H10.7881H10.8226H10.8573H10.8922H10.9274H10.9627H10.9982H11.034H11.0699H11.1061H11.1425H11.179H11.2158H11.2528H11.2899H11.3273H11.3648H11.4026H11.4406H11.4787H11.517H11.5556H11.5943H11.6332H11.6723H11.7115H11.751H11.7906H11.8305H11.8705H11.9107H11.951H11.9916H12.0323H12.0732H12.1142H12.1555H12.1969H12.2385H12.2802H12.3222H12.3643H12.4065H12.4489H12.4915H12.5343H12.5772H12.6202H12.6635H12.7069H12.7504H12.7941H12.838H12.882H12.9261H12.9704H13.0149H13.0595H13.1042H13.1491H13.1942H13.2394H13.2847H13.3302H13.3758H13.4215H13.4674H13.5135H13.5596H13.6059H13.6523H13.6989H13.7456H13.7924H13.8394H13.8864H13.9336H13.981H14.0284H14.076H14.1237H14.1715H14.2194H14.2675H14.3157H14.364H14.4124H14.4609H14.5095H14.5582H14.6071H14.656H14.7051H14.7543H14.8035H14.8529H14.9024H14.952H15.0017H15.0515H15.1013H15.1513H15.2014H15.2515H15.3018H15.3522H15.4026H15.4531H15.5038H15.5545H15.6053H15.6561H15.7071H15.7582H15.8093H15.8605H15.9118H15.9632H16.0146H16.0661H16.1177H16.1694H16.2211H16.2729H16.3248H16.3768H16.4288H16.4809H16.533H16.5852H16.6375H16.6898H16.7422H16.7947H16.8472H16.8998H16.9524H17.0051H17.0578H17.1106H17.1635H17.2164H17.2693H17.3223H17.3753H17.4284H17.4815H17.5347H17.5879H17.6411H17.6944H17.7477H17.8011H17.8545H17.9079H17.9614H18.0149H18.0684H18.122H18.1756H18.2292H18.2829H18.3365H18.3902H18.4439H18.4977H18.5514H18.6052H18.659H18.7128H18.7666H18.8205H18.8743H18.9282H18.9821H19.036H19.0899H19.1438H19.1977H19.2516H19.3056H19.3595H19.4134H19.4674H19.5213H19.5752H19.6291H19.6831H19.737H19.7909H19.8448H19.8987H19.9526H20.0064H20.0603H20.1142H20.168H20.2218H20.2756H20.3294H20.3832H20.4369H20.4906H20.5443H20.598H20.6517H20.7053H20.7589H20.8124H20.866H20.9195H20.973H21.0264H21.0798H21.1332H21.1865H21.2398H21.2931H21.3463H21.3995H21.4526H21.5057H21.5588H21.6118H21.6647H21.7176H21.7705H21.8233H21.876H21.9287H21.9814H22.034H22.0865H22.139H22.1914H22.2437H22.296H22.3483H22.4004H22.4525H22.5046H22.5565H22.6084H22.6603H22.712H22.7637H22.8153H22.8669H22.9183H22.9697H23.021H23.0723H23.1234H23.1745H23.2255H23.2764H23.3272H23.3779H23.4286H23.4791H23.5296H23.58H23.6303H23.6805H23.7306H23.7806H23.8305H23.8803H23.93H23.9796H24.0291H24.0785H24.1278H24.177H24.2261H24.2751H24.324H24.3728H24.4214H24.47H24.5184H24.5667H24.6149H24.663H24.711H24.7588H24.8066H24.8542H24.9017H24.949H24.9963H25.0434H25.0904H25.1372H25.184H25.2305H25.277H25.3233H25.3695H25.4156H25.4615H25.5073H25.553H25.5985H25.6439H25.6891H25.7342H25.7791H25.8239H25.8686H25.9131H25.9574H26.0016H26.0457H26.0896H26.1333H26.1769H26.2203H26.2636H26.3067H26.3497H26.3925H26.4351H26.4776H26.5199H26.562H26.604H26.6458H26.6874H26.7289H26.7702H26.8113H26.8522H26.893H26.9336H26.974H27.0142H27.0543H27.0942H27.1339H27.1734H27.2127H27.2519H27.2908H27.3296H27.3682H27.4065H27.4447H27.4827H27.5205H27.5582H27.5956H27.6328H27.6698H27.7066H27.7433H27.7797H27.8159H27.8519H27.8877H27.9233H27.9587H27.9939H28.0289H28.0636H28.0982H28.1325H28.1666H28.2005H28.2342H28.2677H28.301H28.334H28.3668H28.3994H28.4317H28.4639H28.4958H28.5275H28.5589H28.5901H28.6211H28.6519H28.6824H28.7127H28.7427H28.7725H28.8021H28.8315H28.8606H28.8894H28.918H28.9464H28.9745H29.0024H29.03H29.0574H29.0845H29.1114H29.138H29.1644H29.1905H29.2164H29.242H29.2673H29.2924H29.3172H29.3418H29.3661H29.3901H29.4139H29.4374H29.4606H29.4836H29.5063H29.5287H29.5509H29.5728H29.5944H29.6157H29.6368H29.6575H29.678H29.6982H29.7182H29.7378H29.7572H29.7763H29.7951H29.8136H29.8318H29.8497H29.8674H29.8847H29.9018H29.9185H29.935H29.9511H29.967H29.9826H29.9978H30.0128H30.0275H30.0418H30.0559H30.0696H30.0831H30.0962H30.109H30.1215H30.1337H30.1456H30.1572H30.1684H30.1794H30.19H30.2003H30.2103H30.2199H30.2292H30.2383H30.2469H30.2553H30.2633H30.271H30.2784H30.2855H30.2922H30.2985H30.3046H30.3103H30.3157H30.3207H30.3254H30.3297H30.3337H30.3374H30.3407H30.3437H30.3464H30.3486H30.3506H30.3522H30.3534H30.3543H30.3548C30.3549 2.5 30.355 2.5 30.355 2Z" stroke="#FC8080" stroke-linejoin="round"/>
</svg>
