<svg width="180" height="46" viewBox="0 0 180 46" fill="none" xmlns="http://www.w3.org/2000/svg">
<path d="M10.088 35V6.344H0.296V1.4H26.072V6.344H16.232V35H10.088ZM25.7356 35V11.192H31.2076L31.7836 15.656C32.6476 14.12 33.8156 12.904 35.2876 12.008C36.7916 11.08 38.5516 10.616 40.5676 10.616V17.096H38.8396C37.4956 17.096 36.2956 17.304 35.2396 17.72C34.1836 18.136 33.3516 18.856 32.7436 19.88C32.1676 20.904 31.8796 22.328 31.8796 24.152V35H25.7356ZM53.513 35.576C51.113 35.576 48.985 35.064 47.129 34.04C45.273 33.016 43.817 31.576 42.761 29.72C41.705 27.864 41.177 25.72 41.177 23.288C41.177 20.824 41.689 18.632 42.713 16.712C43.769 14.792 45.209 13.304 47.033 12.248C48.889 11.16 51.065 10.616 53.561 10.616C55.897 10.616 57.961 11.128 59.753 12.152C61.545 13.176 62.937 14.584 63.929 16.376C64.953 18.136 65.465 20.104 65.465 22.28C65.465 22.632 65.449 23 65.417 23.384C65.417 23.768 65.401 24.168 65.369 24.584H47.273C47.401 26.44 48.041 27.896 49.193 28.952C50.377 30.008 51.801 30.536 53.465 30.536C54.713 30.536 55.753 30.264 56.585 29.72C57.449 29.144 58.089 28.408 58.505 27.512H64.745C64.297 29.016 63.545 30.392 62.489 31.64C61.465 32.856 60.185 33.816 58.649 34.52C57.145 35.224 55.433 35.576 53.513 35.576ZM53.561 15.608C52.057 15.608 50.729 16.04 49.577 16.904C48.425 17.736 47.689 19.016 47.369 20.744H59.225C59.129 19.176 58.553 17.928 57.497 17C56.441 16.072 55.129 15.608 53.561 15.608ZM78.0725 35.576C75.9605 35.576 74.1045 35.24 72.5045 34.568C70.9045 33.864 69.6245 32.904 68.6645 31.688C67.7045 30.472 67.1285 29.064 66.9365 27.464H73.1285C73.3205 28.392 73.8325 29.192 74.6645 29.864C75.5285 30.504 76.6325 30.824 77.9765 30.824C79.3205 30.824 80.2965 30.552 80.9045 30.008C81.5445 29.464 81.8645 28.84 81.8645 28.136C81.8645 27.112 81.4165 26.424 80.5205 26.072C79.6245 25.688 78.3765 25.32 76.7765 24.968C75.7525 24.744 74.7125 24.472 73.6565 24.152C72.6005 23.832 71.6245 23.432 70.7285 22.952C69.8645 22.44 69.1605 21.8 68.6165 21.032C68.0725 20.232 67.8005 19.256 67.8005 18.104C67.8005 15.992 68.6325 14.216 70.2965 12.776C71.9925 11.336 74.3605 10.616 77.4005 10.616C80.2165 10.616 82.4565 11.272 84.1205 12.584C85.8165 13.896 86.8245 15.704 87.1445 18.008H81.3365C80.9845 16.248 79.6565 15.368 77.3525 15.368C76.2005 15.368 75.3045 15.592 74.6645 16.04C74.0565 16.488 73.7525 17.048 73.7525 17.72C73.7525 18.424 74.2165 18.984 75.1445 19.4C76.0725 19.816 77.3045 20.2 78.8405 20.552C80.5045 20.936 82.0245 21.368 83.4005 21.848C84.8085 22.296 85.9285 22.984 86.7605 23.912C87.5925 24.808 88.0085 26.104 88.0085 27.8C88.0405 29.272 87.6565 30.6 86.8565 31.784C86.0565 32.968 84.9045 33.896 83.4005 34.568C81.8965 35.24 80.1205 35.576 78.0725 35.576ZM91.0513 35V0.439999H97.1953V14.84C97.9953 13.528 99.0673 12.504 100.411 11.768C101.787 11 103.355 10.616 105.115 10.616C108.059 10.616 110.331 11.544 111.931 13.4C113.563 15.256 114.379 17.976 114.379 21.56V35H108.283V22.136C108.283 20.088 107.867 18.52 107.035 17.432C106.235 16.344 104.955 15.8 103.195 15.8C101.467 15.8 100.027 16.408 98.8753 17.624C97.7553 18.84 97.1953 20.536 97.1953 22.712V35H91.0513ZM129.278 35.576C126.974 35.576 124.894 35.048 123.038 33.992C121.214 32.936 119.758 31.48 118.67 29.624C117.614 27.736 117.086 25.56 117.086 23.096C117.086 20.632 117.63 18.472 118.718 16.616C119.806 14.728 121.262 13.256 123.086 12.2C124.942 11.144 127.022 10.616 129.326 10.616C131.598 10.616 133.646 11.144 135.47 12.2C137.326 13.256 138.782 14.728 139.838 16.616C140.926 18.472 141.47 20.632 141.47 23.096C141.47 25.56 140.926 27.736 139.838 29.624C138.782 31.48 137.326 32.936 135.47 33.992C133.614 35.048 131.55 35.576 129.278 35.576ZM129.278 30.248C130.878 30.248 132.27 29.656 133.454 28.472C134.638 27.256 135.23 25.464 135.23 23.096C135.23 20.728 134.638 18.952 133.454 17.768C132.27 16.552 130.894 15.944 129.326 15.944C127.694 15.944 126.286 16.552 125.102 17.768C123.95 18.952 123.374 20.728 123.374 23.096C123.374 25.464 123.95 27.256 125.102 28.472C126.286 29.656 127.678 30.248 129.278 30.248ZM144.564 45.56V11.192H150.036L150.708 14.6C151.476 13.544 152.484 12.616 153.732 11.816C155.012 11.016 156.66 10.616 158.676 10.616C160.916 10.616 162.916 11.16 164.676 12.248C166.436 13.336 167.828 14.824 168.852 16.712C169.876 18.6 170.388 20.744 170.388 23.144C170.388 25.544 169.876 27.688 168.852 29.576C167.828 31.432 166.436 32.904 164.676 33.992C162.916 35.048 160.916 35.576 158.676 35.576C156.884 35.576 155.316 35.24 153.972 34.568C152.628 33.896 151.54 32.952 150.708 31.736V45.56H144.564ZM157.38 30.2C159.332 30.2 160.948 29.544 162.228 28.232C163.508 26.92 164.148 25.224 164.148 23.144C164.148 21.064 163.508 19.352 162.228 18.008C160.948 16.664 159.332 15.992 157.38 15.992C155.396 15.992 153.764 16.664 152.484 18.008C151.236 19.32 150.612 21.016 150.612 23.096C150.612 25.176 151.236 26.888 152.484 28.232C153.764 29.544 155.396 30.2 157.38 30.2ZM176.116 35.336C174.996 35.336 174.068 34.984 173.332 34.28C172.628 33.576 172.276 32.728 172.276 31.736C172.276 30.712 172.628 29.848 173.332 29.144C174.068 28.44 174.996 28.088 176.116 28.088C177.236 28.088 178.148 28.44 178.852 29.144C179.588 29.848 179.956 30.712 179.956 31.736C179.956 32.728 179.588 33.576 178.852 34.28C178.148 34.984 177.236 35.336 176.116 35.336Z" fill="#FC8080"/>
</svg>
