<svg id="Capa_1" enable-background="new 0 0 512 512" height="512" viewBox="0 0 512 512" width="512" xmlns="http://www.w3.org/2000/svg"><path d="m404.975 207.291c-4.142 0-7.5-3.358-7.5-7.5v-38.738c0-4.142 3.358-7.5 7.5-7.5s7.5 3.358 7.5 7.5v38.738c0 4.142-3.358 7.5-7.5 7.5z" fill="#f3eae6"/><path d="m117.551 49.202c-4.142 0-7.5-3.358-7.5-7.5v-34.202c0-4.142 3.358-7.5 7.5-7.5s7.5 3.358 7.5 7.5v34.202c0 4.142-3.358 7.5-7.5 7.5z" fill="#f3eae6"/><path d="m156.802 49.202c-4.142 0-7.5-3.358-7.5-7.5v-23.248c0-4.142 3.358-7.5 7.5-7.5s7.5 3.358 7.5 7.5v23.249c0 4.141-3.358 7.499-7.5 7.499z" fill="#f3eae6"/><path d="m444.226 207.291c-4.142 0-7.5-3.358-7.5-7.5v-26.329c0-4.142 3.358-7.5 7.5-7.5s7.5 3.358 7.5 7.5v26.329c0 4.142-3.358 7.5-7.5 7.5z" fill="#f3eae6"/><path clip-rule="evenodd" d="m472.752 504.5v-298.006c0-3.68-3.024-6.703-6.704-6.703h-21.822-39.251-33.318l-25.816 155.464 25.816 149.245z" fill="#b8acac" fill-rule="evenodd"/><path d="m422.204 266.566h-50.547c-4.142 0-7.5-3.358-7.5-7.5s3.358-7.5 7.5-7.5h50.547c4.142 0 7.5 3.358 7.5 7.5s-3.358 7.5-7.5 7.5z" fill="#f3eae6"/><path d="m422.204 320.28h-50.547c-4.142 0-7.5-3.358-7.5-7.5s3.358-7.5 7.5-7.5h50.547c4.142 0 7.5 3.358 7.5 7.5s-3.358 7.5-7.5 7.5z" fill="#f3eae6"/><path d="m422.204 373.994h-50.547c-4.142 0-7.5-3.358-7.5-7.5s3.358-7.5 7.5-7.5h50.547c4.142 0 7.5 3.358 7.5 7.5s-3.358 7.5-7.5 7.5z" fill="#f3eae6"/><path d="m422.204 427.736h-50.547c-4.142 0-7.5-3.358-7.5-7.5s3.358-7.5 7.5-7.5h50.547c4.142 0 7.5 3.358 7.5 7.5s-3.358 7.5-7.5 7.5z" fill="#f3eae6"/><g clip-rule="evenodd" fill-rule="evenodd"><path d="m443.855 206.494v298.006h28.896v-298.006c0-3.68-3.024-6.703-6.704-6.703h-21.822-7.074c3.681-.001 6.704 3.023 6.704 6.703z" fill="#9d9696"/><path d="m371.657 504.5v-84.264-53.742-53.714-53.714-59.276-118.38l-149.988-19.854-131.16 19.854v227.063 115.157l-23.79 43.016 23.79 37.853c73.824.001 217.365.001 281.148.001z" fill="#f3eae6"/><path d="m231.083 504.5v-115.015l-31.492-15.489-26.101 15.489v115.015z" fill="#6bd9e7"/><path d="m288.648 504.5v-115.015l-27.299-15.489-30.266 15.489v115.015z" fill="#6bd9e7"/><path d="m90.509 81.41h281.148 8.329c2.339 0 4.25-1.911 4.25-4.25v-31.208c0-2.339-1.911-4.25-4.25-4.25h-223.184-39.251-35.4c-2.311 0-4.222 1.911-4.222 4.25v31.207c0 2.339 1.911 4.25 4.222 4.25h8.358z" fill="#b8acac"/><path d="m144.28 186.811h32.034c1.626 0 2.967-1.341 2.967-2.967v-52.287c0-1.626-1.341-2.967-2.967-2.967h-32.034c-1.654 0-2.967 1.341-2.967 2.967v52.287c0 1.627 1.312 2.967 2.967 2.967z" fill="#6bd9e7"/><path d="m249.254 186.811c1.626 0 2.967-1.341 2.967-2.967v-52.287c0-1.626-1.341-2.967-2.967-2.967h-32.034c-1.626 0-2.967 1.341-2.967 2.967v52.287c0 1.626 1.341 2.967 2.967 2.967z" fill="#6bd9e7"/><path d="m290.159 186.811h32.034c1.626 0 2.967-1.341 2.967-2.967v-52.287c0-1.626-1.341-2.967-2.967-2.967h-32.034c-1.626 0-2.967 1.341-2.967 2.967v52.287c.001 1.627 1.341 2.967 2.967 2.967z" fill="#6bd9e7"/><path d="m290.159 290.045h32.034c1.626 0 2.967-1.341 2.967-2.967v-52.287c0-1.626-1.341-2.967-2.967-2.967h-32.034c-1.626 0-2.967 1.341-2.967 2.967v52.287c.001 1.626 1.341 2.967 2.967 2.967z" fill="#6bd9e7"/><path d="m217.219 290.045h32.034c1.626 0 2.967-1.341 2.967-2.967v-52.287c0-1.626-1.341-2.967-2.967-2.967h-32.034c-1.626 0-2.967 1.341-2.967 2.967v52.287c.001 1.626 1.342 2.967 2.967 2.967z" fill="#6bd9e7"/><path d="m179.28 287.079v-52.287c0-1.626-1.341-2.967-2.967-2.967h-32.033c-1.654 0-2.967 1.341-2.967 2.967v52.287c0 1.626 1.312 2.967 2.967 2.967h32.034c1.626-.001 2.966-1.342 2.966-2.967z" fill="#6bd9e7"/><path d="m90.509 108.566h253.45v338.826 57.108h27.698c0-141.03 0-282.06 0-423.09h-281.148z" fill="#e0d2ce"/><path d="m347.239 45.952v24.018 7.188c0 2.339-1.911 4.25-4.222 4.25h28.64 8.329c2.339 0 4.25-1.911 4.25-4.25v-31.206c0-2.339-1.911-4.25-4.25-4.25h-36.969c2.311 0 4.222 1.911 4.222 4.25z" fill="#9d9696"/><path d="m324.19 129.361-36.17 56.538c.542.57 1.312.913 2.139.913h32.034c1.626 0 2.967-1.341 2.967-2.967v-52.287c0-.856-.371-1.655-.97-2.197z" fill="#00c7dd"/><path d="m251.25 129.361-36.17 56.538c.542.57 1.284.913 2.139.913h32.034c1.626 0 2.967-1.341 2.967-2.967v-52.287c0-.856-.37-1.655-.97-2.197z" fill="#00c7dd"/><path d="m178.311 129.361-36.199 56.538c.542.57 1.312.913 2.168.913h32.034c1.626 0 2.967-1.341 2.967-2.967v-52.287c-.001-.856-.4-1.655-.97-2.197z" fill="#00c7dd"/><path d="m178.311 232.595-36.199 56.509c.542.571 1.312.941 2.168.941h32.034c1.626 0 2.967-1.341 2.967-2.967v-52.287c-.001-.884-.4-1.654-.97-2.196z" fill="#00c7dd"/><path d="m251.25 232.595-36.17 56.509c.542.571 1.284.941 2.139.941h32.034c1.626 0 2.967-1.341 2.967-2.967v-52.287c0-.884-.37-1.654-.97-2.196z" fill="#00c7dd"/><path d="m324.19 232.595-36.17 56.509c.542.571 1.312.941 2.139.941h32.034c1.626 0 2.967-1.341 2.967-2.967v-52.287c0-.884-.371-1.654-.97-2.196z" fill="#00c7dd"/><path d="m231.083 389.485-57.593 115.015h57.593z" fill="#00c7dd"/><path d="m288.648 389.485-57.565 115.015h57.565z" fill="#00c7dd"/><path d="m90.509 504.5v-80.87l-18.114-11.353-18.114 11.353v80.87z" fill="#d87e49"/><path d="m90.509 423.63c20.082-8.615 34.402-31.15 34.402-57.593 0-26.415-14.32-48.95-34.402-57.565-5.648-2.425-11.753-3.765-18.114-3.765-29.011 0-52.516 27.47-52.516 61.33 0 26.443 14.32 48.978 34.402 57.593 5.648 2.425 11.753 3.737 18.114 3.737s12.466-1.312 18.114-3.737z" fill="#80d261"/><path d="m72.395 427.367v29.039 19.255 28.839h18.114v-80.87c-5.648 2.425-11.753 3.737-18.114 3.737z" fill="#c86d35"/><path d="m90.509 326.358c7.787 10.697 12.466 24.561 12.466 39.679 0 15.147-4.678 29.01-12.466 39.708-3.109 4.279-6.732 8.044-10.726 11.182-3.452 2.738-7.217 4.992-11.211 6.703-2.311.998-4.707 1.797-7.16 2.425 3.537.856 7.217 1.312 10.982 1.312 6.361 0 12.466-1.312 18.114-3.737 20.082-8.615 34.402-31.15 34.402-57.593 0-26.415-14.32-48.95-34.402-57.565-5.648-2.425-11.753-3.765-18.114-3.765-3.765 0-7.445.485-10.954 1.341 2.425.628 4.821 1.426 7.131 2.425 8.588 3.679 16.119 9.898 21.938 17.885z" fill="#4fc122"/></g><path d="m231.083 512c-4.142 0-7.5-3.358-7.5-7.5v-115.015c0-4.142 3.358-7.5 7.5-7.5s7.5 3.358 7.5 7.5v115.015c0 4.142-3.358 7.5-7.5 7.5z" fill="#f3eae6"/><path clip-rule="evenodd" d="m173.49 389.485h57.593 57.565 7.559c2.168 0 3.965-1.797 3.965-3.994v-29.353c0-2.196-1.797-3.994-3.965-3.994h-130.248c-2.196 0-3.994 1.797-3.994 3.994v29.353c0 2.196 1.797 3.994 3.994 3.994z" fill="#b8acac" fill-rule="evenodd"/><path clip-rule="evenodd" d="m273.101 356.139v29.353c0 2.196-1.797 3.994-3.994 3.994h19.54 7.559c2.168 0 3.965-1.797 3.965-3.994v-29.353c0-2.196-1.797-3.994-3.965-3.994h-27.099c2.197 0 3.994 1.797 3.994 3.994z" fill="#9d9696" fill-rule="evenodd"/><path d="m496 512h-480c-4.142 0-7.5-3.358-7.5-7.5s3.358-7.5 7.5-7.5h480c4.142 0 7.5 3.358 7.5 7.5s-3.358 7.5-7.5 7.5z" fill="#746e6e"/></svg>