<?xml version="1.0" encoding="UTF-8"?>
<svg width="384px" height="232px" viewBox="0 0 384 232" version="1.1" xmlns="http://www.w3.org/2000/svg" xmlns:xlink="http://www.w3.org/1999/xlink">
    <!-- Generator: Sketch 59.1 (86144) - https://sketch.com -->
    <title>Customer services</title>
    <desc>Created with Sketch.</desc>
    <defs>
        <linearGradient x1="8.40133156%" y1="13.1381206%" x2="56.5671573%" y2="50%" id="linearGradient-1">
            <stop stop-color="#CFE49F" offset="0%"></stop>
            <stop stop-color="#A9D386" offset="100%"></stop>
        </linearGradient>
        <linearGradient x1="34.1151714%" y1="3.88724169%" x2="64.8333502%" y2="56.9235037%" id="linearGradient-2">
            <stop stop-color="#77D791" offset="0%"></stop>
            <stop stop-color="#4FA67E" offset="100%"></stop>
        </linearGradient>
        <linearGradient x1="50%" y1="7.26438915%" x2="50%" y2="151.05781%" id="linearGradient-3">
            <stop stop-color="#D0F6FF" offset="0%"></stop>
            <stop stop-color="#8BE2F7" offset="100%"></stop>
        </linearGradient>
        <linearGradient x1="8.38174197%" y1="31.2307029%" x2="56.5702499%" y2="50%" id="linearGradient-4">
            <stop stop-color="#CFE49F" offset="0%"></stop>
            <stop stop-color="#A9D386" offset="100%"></stop>
        </linearGradient>
        <linearGradient x1="44.7064793%" y1="3.88170857%" x2="54.943122%" y2="56.9243345%" id="linearGradient-5">
            <stop stop-color="#77D791" offset="0%"></stop>
            <stop stop-color="#4FA67E" offset="100%"></stop>
        </linearGradient>
        <linearGradient x1="4.76643799%" y1="41.0625251%" x2="100%" y2="60.6878325%" id="linearGradient-6">
            <stop stop-color="#6EAE7C" offset="0%"></stop>
            <stop stop-color="#0F575D" offset="100%"></stop>
        </linearGradient>
        <linearGradient x1="50%" y1="0%" x2="50%" y2="91.8482298%" id="linearGradient-7">
            <stop stop-color="#EAFCFF" offset="0%"></stop>
            <stop stop-color="#FFFFFF" offset="100%"></stop>
        </linearGradient>
        <linearGradient x1="50%" y1="7.26438915%" x2="50%" y2="151.05781%" id="linearGradient-8">
            <stop stop-color="#D0F6FF" offset="0%"></stop>
            <stop stop-color="#8BE2F7" offset="100%"></stop>
        </linearGradient>
        <linearGradient x1="50%" y1="-2.48949813e-15%" x2="50%" y2="100%" id="linearGradient-9">
            <stop stop-color="#4DBCFA" offset="0%"></stop>
            <stop stop-color="#1486DB" offset="100%"></stop>
        </linearGradient>
        <linearGradient x1="50%" y1="0%" x2="50%" y2="100%" id="linearGradient-10">
            <stop stop-color="#FF9485" offset="0%"></stop>
            <stop stop-color="#FF676E" offset="100%"></stop>
        </linearGradient>
        <linearGradient x1="50%" y1="7.26438915%" x2="50%" y2="151.05781%" id="linearGradient-11">
            <stop stop-color="#D0F6FF" offset="0%"></stop>
            <stop stop-color="#8BE2F7" offset="100%"></stop>
        </linearGradient>
        <linearGradient x1="50%" y1="0%" x2="50%" y2="100%" id="linearGradient-12">
            <stop stop-color="#FF9485" offset="0%"></stop>
            <stop stop-color="#FF676E" offset="100%"></stop>
        </linearGradient>
        <linearGradient x1="50%" y1="0%" x2="81.733968%" y2="89.3678428%" id="linearGradient-13">
            <stop stop-color="#0F1752" offset="0%"></stop>
            <stop stop-color="#272884" offset="100%"></stop>
        </linearGradient>
        <linearGradient x1="50%" y1="0%" x2="50%" y2="100%" id="linearGradient-14">
            <stop stop-color="#FF9485" offset="0%"></stop>
            <stop stop-color="#FF676E" offset="100%"></stop>
        </linearGradient>
        <linearGradient x1="50%" y1="-27.3641552%" x2="50%" y2="100%" id="linearGradient-15">
            <stop stop-color="#C0E4FD" offset="0%"></stop>
            <stop stop-color="#72B9FE" offset="100%"></stop>
        </linearGradient>
        <linearGradient x1="82.5767258%" y1="-52.951376%" x2="82.5767258%" y2="186.664812%" id="linearGradient-16">
            <stop stop-color="#1533B6" offset="0%"></stop>
            <stop stop-color="#356BE9" offset="100%"></stop>
        </linearGradient>
        <linearGradient x1="50%" y1="0%" x2="50%" y2="100%" id="linearGradient-17">
            <stop stop-color="#1D2A78" offset="0%"></stop>
            <stop stop-color="#12033B" offset="100%"></stop>
        </linearGradient>
        <linearGradient x1="50%" y1="0%" x2="50%" y2="100%" id="linearGradient-18">
            <stop stop-color="#FF9485" offset="0%"></stop>
            <stop stop-color="#FF676E" offset="100%"></stop>
        </linearGradient>
    </defs>
    <g id="Style-1" stroke="none" stroke-width="1" fill="none" fill-rule="evenodd">
        <g id="9" transform="translate(-15.000000, -177.000000)">
            <g id="Customer-services" transform="translate(15.000000, 177.000000)">
                <g id="Ornament-Copy" transform="translate(0.000000, 15.624413)">
                    <path d="M307.80748,136.090341 C278.862287,136.090341 255.399061,112.619947 255.399061,83.6695837 C255.399061,54.7192204 278.862287,31.2488263 307.80748,31.2488263 C336.752672,31.2488263 360.215899,54.7192204 360.215899,83.6695837 C360.215899,112.619947 336.752672,136.090341 307.80748,136.090341 Z M307.80748,112.052782 C323.475451,112.052782 336.17834,99.3460131 336.17834,83.6695837 C336.17834,67.9931542 323.475451,55.286385 307.80748,55.286385 C292.139508,55.286385 279.43662,67.9931542 279.43662,83.6695837 C279.43662,99.3460131 292.139508,112.052782 307.80748,112.052782 Z" id="Shape" fill="url(#linearGradient-1)"></path>
                    <path d="M270.067264,27.8172843 C270.067264,28.5488586 269.474171,29.1419168 268.742552,29.1419168 C268.010934,29.1419168 267.41784,28.5488586 267.41784,27.8172843 C267.41784,27.0857099 268.010934,26.4926517 268.742552,26.4926517 C269.474171,26.4926517 270.067264,27.0857099 270.067264,27.8172843 Z M270.067264,22.5187539 C270.067264,23.2503283 269.474171,23.8433865 268.742552,23.8433865 C268.010934,23.8433865 267.41784,23.2503283 267.41784,22.5187539 C267.41784,21.7871796 268.010934,21.1941213 268.742552,21.1941213 C269.474171,21.1941213 270.067264,21.7871796 270.067264,22.5187539 Z M270.067264,17.2202236 C270.067264,17.951798 269.474171,18.5448562 268.742552,18.5448562 C268.010934,18.5448562 267.41784,17.951798 267.41784,17.2202236 C267.41784,16.4886492 268.010934,15.895591 268.742552,15.895591 C269.474171,15.895591 270.067264,16.4886492 270.067264,17.2202236 Z M270.067264,11.9216933 C270.067264,12.6532676 269.474171,13.2463258 268.742552,13.2463258 C268.010934,13.2463258 267.41784,12.6532676 267.41784,11.9216933 C267.41784,11.1901189 268.010934,10.5970607 268.742552,10.5970607 C269.474171,10.5970607 270.067264,11.1901189 270.067264,11.9216933 Z M270.067264,6.62316292 C270.067264,7.35473729 269.474171,7.9477955 268.742552,7.9477955 C268.010934,7.9477955 267.41784,7.35473729 267.41784,6.62316292 C267.41784,5.89158854 268.010934,5.29853034 268.742552,5.29853034 C269.474171,5.29853034 270.067264,5.89158854 270.067264,6.62316292 Z M270.067264,1.32463258 C270.067264,2.05620696 269.474171,2.64926517 268.742552,2.64926517 C268.010934,2.64926517 267.41784,2.05620696 267.41784,1.32463258 C267.41784,0.593058209 268.010934,4.79616347e-13 268.742552,4.79616347e-13 C269.474171,4.79616347e-13 270.067264,0.593058209 270.067264,1.32463258 Z M275.366113,27.8172843 C275.366113,28.5488586 274.773019,29.1419168 274.041401,29.1419168 C273.309782,29.1419168 272.716689,28.5488586 272.716689,27.8172843 C272.716689,27.0857099 273.309782,26.4926517 274.041401,26.4926517 C274.773019,26.4926517 275.366113,27.0857099 275.366113,27.8172843 Z M275.366113,22.5187539 C275.366113,23.2503283 274.773019,23.8433865 274.041401,23.8433865 C273.309782,23.8433865 272.716689,23.2503283 272.716689,22.5187539 C272.716689,21.7871796 273.309782,21.1941213 274.041401,21.1941213 C274.773019,21.1941213 275.366113,21.7871796 275.366113,22.5187539 Z M275.366113,17.2202236 C275.366113,17.951798 274.773019,18.5448562 274.041401,18.5448562 C273.309782,18.5448562 272.716689,17.951798 272.716689,17.2202236 C272.716689,16.4886492 273.309782,15.895591 274.041401,15.895591 C274.773019,15.895591 275.366113,16.4886492 275.366113,17.2202236 Z M275.366113,11.9216933 C275.366113,12.6532676 274.773019,13.2463258 274.041401,13.2463258 C273.309782,13.2463258 272.716689,12.6532676 272.716689,11.9216933 C272.716689,11.1901189 273.309782,10.5970607 274.041401,10.5970607 C274.773019,10.5970607 275.366113,11.1901189 275.366113,11.9216933 Z M275.366113,6.62316292 C275.366113,7.35473729 274.773019,7.9477955 274.041401,7.9477955 C273.309782,7.9477955 272.716689,7.35473729 272.716689,6.62316292 C272.716689,5.89158854 273.309782,5.29853034 274.041401,5.29853034 C274.773019,5.29853034 275.366113,5.89158854 275.366113,6.62316292 Z M275.366113,1.32463258 C275.366113,2.05620696 274.773019,2.64926517 274.041401,2.64926517 C273.309782,2.64926517 272.716689,2.05620696 272.716689,1.32463258 C272.716689,0.593058209 273.309782,4.79616347e-13 274.041401,4.79616347e-13 C274.773019,4.79616347e-13 275.366113,0.593058209 275.366113,1.32463258 Z M280.664961,27.8172843 C280.664961,28.5488586 280.071867,29.1419168 279.340249,29.1419168 C278.608631,29.1419168 278.015537,28.5488586 278.015537,27.8172843 C278.015537,27.0857099 278.608631,26.4926517 279.340249,26.4926517 C280.071867,26.4926517 280.664961,27.0857099 280.664961,27.8172843 Z M280.664961,22.5187539 C280.664961,23.2503283 280.071867,23.8433865 279.340249,23.8433865 C278.608631,23.8433865 278.015537,23.2503283 278.015537,22.5187539 C278.015537,21.7871796 278.608631,21.1941213 279.340249,21.1941213 C280.071867,21.1941213 280.664961,21.7871796 280.664961,22.5187539 Z M280.664961,17.2202236 C280.664961,17.951798 280.071867,18.5448562 279.340249,18.5448562 C278.608631,18.5448562 278.015537,17.951798 278.015537,17.2202236 C278.015537,16.4886492 278.608631,15.895591 279.340249,15.895591 C280.071867,15.895591 280.664961,16.4886492 280.664961,17.2202236 Z M280.664961,11.9216933 C280.664961,12.6532676 280.071867,13.2463258 279.340249,13.2463258 C278.608631,13.2463258 278.015537,12.6532676 278.015537,11.9216933 C278.015537,11.1901189 278.608631,10.5970607 279.340249,10.5970607 C280.071867,10.5970607 280.664961,11.1901189 280.664961,11.9216933 Z M280.664961,6.62316292 C280.664961,7.35473729 280.071867,7.9477955 279.340249,7.9477955 C278.608631,7.9477955 278.015537,7.35473729 278.015537,6.62316292 C278.015537,5.89158854 278.608631,5.29853034 279.340249,5.29853034 C280.071867,5.29853034 280.664961,5.89158854 280.664961,6.62316292 Z M280.664961,1.32463258 C280.664961,2.05620696 280.071867,2.64926517 279.340249,2.64926517 C278.608631,2.64926517 278.015537,2.05620696 278.015537,1.32463258 C278.015537,0.593058209 278.608631,4.79616347e-13 279.340249,4.79616347e-13 C280.071867,4.79616347e-13 280.664961,0.593058209 280.664961,1.32463258 Z M285.963809,27.8172843 C285.963809,28.5488586 285.370715,29.1419168 284.639097,29.1419168 C283.907479,29.1419168 283.314385,28.5488586 283.314385,27.8172843 C283.314385,27.0857099 283.907479,26.4926517 284.639097,26.4926517 C285.370715,26.4926517 285.963809,27.0857099 285.963809,27.8172843 Z M285.963809,22.5187539 C285.963809,23.2503283 285.370715,23.8433865 284.639097,23.8433865 C283.907479,23.8433865 283.314385,23.2503283 283.314385,22.5187539 C283.314385,21.7871796 283.907479,21.1941213 284.639097,21.1941213 C285.370715,21.1941213 285.963809,21.7871796 285.963809,22.5187539 Z M285.963809,17.2202236 C285.963809,17.951798 285.370715,18.5448562 284.639097,18.5448562 C283.907479,18.5448562 283.314385,17.951798 283.314385,17.2202236 C283.314385,16.4886492 283.907479,15.895591 284.639097,15.895591 C285.370715,15.895591 285.963809,16.4886492 285.963809,17.2202236 Z M285.963809,11.9216933 C285.963809,12.6532676 285.370715,13.2463258 284.639097,13.2463258 C283.907479,13.2463258 283.314385,12.6532676 283.314385,11.9216933 C283.314385,11.1901189 283.907479,10.5970607 284.639097,10.5970607 C285.370715,10.5970607 285.963809,11.1901189 285.963809,11.9216933 Z M285.963809,6.62316292 C285.963809,7.35473729 285.370715,7.9477955 284.639097,7.9477955 C283.907479,7.9477955 283.314385,7.35473729 283.314385,6.62316292 C283.314385,5.89158854 283.907479,5.29853034 284.639097,5.29853034 C285.370715,5.29853034 285.963809,5.89158854 285.963809,6.62316292 Z M285.963809,1.32463258 C285.963809,2.05620696 285.370715,2.64926517 284.639097,2.64926517 C283.907479,2.64926517 283.314385,2.05620696 283.314385,1.32463258 C283.314385,0.593058209 283.907479,4.12114787e-13 284.639097,4.12114787e-13 C285.370715,4.12114787e-13 285.963809,0.593058209 285.963809,1.32463258 Z M291.262657,27.8172843 C291.262657,28.5488586 290.669564,29.1419168 289.937945,29.1419168 C289.206327,29.1419168 288.613233,28.5488586 288.613233,27.8172843 C288.613233,27.0857099 289.206327,26.4926517 289.937945,26.4926517 C290.669564,26.4926517 291.262657,27.0857099 291.262657,27.8172843 Z M291.262657,22.5187539 C291.262657,23.2503283 290.669564,23.8433865 289.937945,23.8433865 C289.206327,23.8433865 288.613233,23.2503283 288.613233,22.5187539 C288.613233,21.7871796 289.206327,21.1941213 289.937945,21.1941213 C290.669564,21.1941213 291.262657,21.7871796 291.262657,22.5187539 Z M291.262657,17.2202236 C291.262657,17.951798 290.669564,18.5448562 289.937945,18.5448562 C289.206327,18.5448562 288.613233,17.951798 288.613233,17.2202236 C288.613233,16.4886492 289.206327,15.895591 289.937945,15.895591 C290.669564,15.895591 291.262657,16.4886492 291.262657,17.2202236 Z M291.262657,11.9216933 C291.262657,12.6532676 290.669564,13.2463258 289.937945,13.2463258 C289.206327,13.2463258 288.613233,12.6532676 288.613233,11.9216933 C288.613233,11.1901189 289.206327,10.5970607 289.937945,10.5970607 C290.669564,10.5970607 291.262657,11.1901189 291.262657,11.9216933 Z M291.262657,6.62316292 C291.262657,7.35473729 290.669564,7.9477955 289.937945,7.9477955 C289.206327,7.9477955 288.613233,7.35473729 288.613233,6.62316292 C288.613233,5.89158854 289.206327,5.29853034 289.937945,5.29853034 C290.669564,5.29853034 291.262657,5.89158854 291.262657,6.62316292 Z M291.262657,1.32463258 C291.262657,2.05620696 290.669564,2.64926517 289.937945,2.64926517 C289.206327,2.64926517 288.613233,2.05620696 288.613233,1.32463258 C288.613233,0.593058209 289.206327,4.79616347e-13 289.937945,4.79616347e-13 C290.669564,4.79616347e-13 291.262657,0.593058209 291.262657,1.32463258 Z M296.561506,27.8172843 C296.561506,28.5488586 295.968412,29.1419168 295.236793,29.1419168 C294.505175,29.1419168 293.912081,28.5488586 293.912081,27.8172843 C293.912081,27.0857099 294.505175,26.4926517 295.236793,26.4926517 C295.968412,26.4926517 296.561506,27.0857099 296.561506,27.8172843 Z M296.561506,22.5187539 C296.561506,23.2503283 295.968412,23.8433865 295.236793,23.8433865 C294.505175,23.8433865 293.912081,23.2503283 293.912081,22.5187539 C293.912081,21.7871796 294.505175,21.1941213 295.236793,21.1941213 C295.968412,21.1941213 296.561506,21.7871796 296.561506,22.5187539 Z M296.561506,17.2202236 C296.561506,17.951798 295.968412,18.5448562 295.236793,18.5448562 C294.505175,18.5448562 293.912081,17.951798 293.912081,17.2202236 C293.912081,16.4886492 294.505175,15.895591 295.236793,15.895591 C295.968412,15.895591 296.561506,16.4886492 296.561506,17.2202236 Z M296.561506,11.9216933 C296.561506,12.6532676 295.968412,13.2463258 295.236793,13.2463258 C294.505175,13.2463258 293.912081,12.6532676 293.912081,11.9216933 C293.912081,11.1901189 294.505175,10.5970607 295.236793,10.5970607 C295.968412,10.5970607 296.561506,11.1901189 296.561506,11.9216933 Z M296.561506,6.62316292 C296.561506,7.35473729 295.968412,7.9477955 295.236793,7.9477955 C294.505175,7.9477955 293.912081,7.35473729 293.912081,6.62316292 C293.912081,5.89158854 294.505175,5.29853034 295.236793,5.29853034 C295.968412,5.29853034 296.561506,5.89158854 296.561506,6.62316292 Z M296.561506,1.32463258 C296.561506,2.05620696 295.968412,2.64926517 295.236793,2.64926517 C294.505175,2.64926517 293.912081,2.05620696 293.912081,1.32463258 C293.912081,0.593058209 294.505175,1.77635684e-14 295.236793,1.77635684e-14 C295.968412,1.77635684e-14 296.561506,0.593058209 296.561506,1.32463258 Z" id="Shape" fill="url(#linearGradient-2)" fill-rule="nonzero"></path>
                    <polygon id="Shape" fill="url(#linearGradient-3)" points="189.596244 14.4225352 281.840376 14.4225352 281.840376 106.366197 189.596244 106.366197"></polygon>
                    <path d="M121.795711,206.227636 C121.795711,191.118069 121.795711,172.015524 121.795711,162.147951 C109.515802,162.147951 99.5609694,172.015524 99.5609694,184.187793 C99.5609694,196.360062 109.515802,206.227636 121.795711,206.227636 Z" id="Shape" fill="#FFFFFF" transform="translate(110.678340, 184.187793) rotate(-270.000000) translate(-110.678340, -184.187793) "></path>
                    <path d="M0,195.004695 L179.680751,195.004695 C190.467158,195.004695 199.211268,203.748805 199.211268,214.535211 L19.5305164,214.535211 C8.74411005,214.535211 0,205.791101 0,195.004695 Z" id="Shape" fill="#52D7FD"></path>
                    <path d="M207.023474,197.107981 L366.57277,197.107981 C376.197563,197.107981 384,204.910418 384,214.535211 L224.450704,214.535211 C214.825911,214.535211 207.023474,206.732775 207.023474,197.107981 Z" id="Shape" fill="#52D7FD"></path>
                </g>
                <g id="Plant-Copy" transform="translate(111.774648, 139.718310)">
                    <path d="M59.7934272,56.5406256 C42.8827092,64.1782128 29.3629188,64.0814928 19.2340561,56.2504655 C9.1051933,48.4194382 2.69384128,37.2682805 0,22.7969924 C31.6610864,13.2892627 51.5922288,24.5371404 59.7934272,56.5406256 Z" id="Shape" fill="url(#linearGradient-4)"></path>
                    <path d="M34.8239716,42.8080844 C31.1741043,40.7375007 27.1156587,38.4430097 22.6486855,35.9246416 L12.2868029,38.4058345 C12.1029809,38.4498514 11.9184084,38.3359829 11.8745487,38.151502 C11.830689,37.9670212 11.9441509,37.7817872 12.1279729,37.7377703 L21.7695105,35.4290668 C16.19442,32.2870059 9.99789555,28.8043931 3.18003245,24.9812848 C3.01505638,24.8887746 2.95604331,24.6795615 3.04822307,24.5139942 C3.14040282,24.3484269 3.3488688,24.2892023 3.51384487,24.3817124 C15.9624879,31.3622737 26.3396737,37.2076561 34.6459827,41.9182027 L33.5741974,31.376887 C33.5278832,30.9213741 34.2087125,30.8516539 34.2550266,31.3071668 L35.3760044,42.3323048 C46.4503994,48.6158062 53.7329403,52.8213813 57.2250657,54.9498796 C57.3865913,55.0483316 57.4380075,55.2595544 57.3399071,55.4216589 C57.2418066,55.5837634 57.0313381,55.6353639 56.8698126,55.5369118 C54.78027,54.2633069 51.3281163,52.2429481 46.5136613,49.4760183 C46.500991,49.4825635 46.4877726,49.4883878 46.4740383,49.4934215 L37.0046249,52.9639678 C36.8271097,53.0290273 36.6306524,52.9373481 36.5658253,52.7591967 C36.5009982,52.5810452 36.59235,52.3838839 36.7698652,52.3188244 L45.7395481,49.0314296 C42.6622286,47.2652375 39.0601721,45.2114783 34.9334525,42.8701957 C34.8936285,42.8568471 34.8562809,42.8362307 34.8239716,42.8080844 Z" id="Shape" fill="#FFFFFF" fill-rule="nonzero"></path>
                    <path d="M56.0066437,66.1032864 C38.6235006,59.5175767 29.1057591,49.8805222 27.4534191,37.1921229 C25.8010791,24.5037237 29.1288995,12.1063494 37.4368802,0 C66.59907,15.7074338 72.7889912,37.7418626 56.0066437,66.1032864 Z" id="Shape" fill="url(#linearGradient-5)" fill-rule="nonzero"></path>
                    <path d="M48.8454334,38.8521999 C52.2409032,51.1518659 54.4220821,59.2921339 55.3893878,63.2746249 C55.4341297,63.458832 55.3219295,63.6446416 55.1387815,63.6896423 C54.9556335,63.734643 54.7708922,63.6217939 54.7261502,63.4375869 C54.1473547,61.0546299 53.1322339,57.1769511 51.6808776,51.8048996 C51.667339,51.8005372 51.6539202,51.7952763 51.6406935,51.7890903 L42.5212002,47.5240454 C42.3502446,47.4440921 42.2761001,47.239889 42.3555936,47.0679449 C42.4350872,46.8960008 42.6381164,46.8214274 42.8090719,46.9013807 L51.4473011,50.9413459 C50.517943,47.5093051 49.4205537,43.5016555 48.1551546,38.9184808 C48.1364445,38.8807881 48.1245898,38.8397145 48.1215822,38.7968919 C47.0022919,34.7434257 45.7521649,30.2417726 44.3712161,25.2919897 L35.3175755,19.6942811 C35.1569619,19.5949765 35.1067984,19.3835184 35.205532,19.2219761 C35.3042656,19.0604338 35.514508,19.0099802 35.6751216,19.1092847 L44.0993645,24.3178477 C42.3751168,18.14091 40.4518685,11.2822972 38.3296473,3.74211708 C38.2782946,3.55966266 38.3837232,3.36988381 38.5651286,3.31823416 C38.746534,3.26658451 38.9352218,3.37262273 38.9865745,3.55507714 C42.8615092,17.322589 46.0731052,28.8178395 48.621531,38.0414827 L55.2750663,29.8285901 C55.5625799,29.4736934 56.0918644,29.9074576 55.8043508,30.2623543 L48.8454334,38.8521999 Z" id="Shape" fill="#FFFFFF" fill-rule="nonzero"></path>
                    <path d="M73.314554,77.9906181 C58.9592753,89.7683085 45.8849656,93.1902018 34.0916248,88.256298 C22.2982841,83.3223943 13.2380085,74.2134475 6.91079812,60.9294578 C35.0215818,43.5092129 57.1561671,49.1962663 73.314554,77.9906181 Z" id="Shape" fill="url(#linearGradient-6)"></path>
                    <path d="M46.0227086,70.3450799 C58.3315479,73.528774 66.4448123,75.693201 70.364109,76.8388066 C70.545393,76.8917957 70.6494571,77.0819188 70.5965426,77.2634583 C70.543628,77.4449979 70.3537726,77.5492086 70.1724885,77.4962195 C67.8273444,76.8107367 63.9744992,75.7589332 58.6142989,74.340905 C58.6037558,74.3504906 58.5924977,74.359524 58.580538,74.3679293 L50.3346422,80.1631847 C50.1800632,80.2718235 49.966807,80.2344051 49.858321,80.0796082 C49.7498351,79.9248114 49.7872009,79.7112546 49.9417798,79.6026158 L57.7525141,74.1131941 C54.3269775,73.2091097 50.3208316,72.1639616 45.7341591,70.9777726 C45.692279,70.9752303 45.6509164,70.9650467 45.6124763,70.9463055 C41.5558455,69.8973358 37.0471328,68.7385314 32.0863951,67.4699081 L22.724079,72.543415 C22.5579895,72.6334201 22.3504865,72.5715517 22.2606081,72.4052281 C22.1707296,72.2389046 22.2325109,72.0311091 22.3986004,71.941104 L31.1100601,67.2203009 C24.9189845,65.6379694 18.0403083,63.8885863 10.4741384,61.9721813 C10.2910551,61.9258089 10.1801761,61.739589 10.2264833,61.5562477 C10.2727905,61.3729064 10.4587482,61.2618711 10.6418315,61.3082436 C24.4567978,64.8073813 35.9797509,67.7496777 45.2113395,70.1353125 L41.4601717,60.2600052 C41.2980757,59.833272 41.9372746,59.5897853 42.0993707,60.0165185 L46.0227086,70.3450799 Z" id="Shape" fill="#FFFFFF" fill-rule="nonzero"></path>
                </g>
                <g id="Tab-Copy" transform="translate(55.887324, 0.000000)">
                    <path d="M0,3.00469484 L120.187793,3.00469484 C136.782265,3.00469484 150.234742,16.4571718 150.234742,33.0516432 L150.234742,153.239437 L30.0469484,153.239437 C13.452477,153.239437 0,139.78696 0,123.192488 L0,3.00469484 Z" id="Shape" fill="url(#linearGradient-7)"></path>
                    <path d="M12.3192488,45.0704225 L69.4084507,45.0704225 L69.4084507,51.0798122 L12.3192488,51.0798122 L12.3192488,45.0704225 Z M12.3192488,87.1361502 L69.4084507,87.1361502 L69.4084507,93.1455399 L12.3192488,93.1455399 L12.3192488,87.1361502 Z M12.3192488,57.0892019 L129.502347,57.0892019 L129.502347,63.0985915 L12.3192488,63.0985915 L12.3192488,57.0892019 Z M12.3192488,99.1549296 L129.502347,99.1549296 L129.502347,105.164319 L12.3192488,105.164319 L12.3192488,99.1549296 Z M12.3192488,69.1079812 L129.502347,69.1079812 L129.502347,75.1173709 L12.3192488,75.1173709 L12.3192488,69.1079812 Z M12.3192488,111.173709 L129.502347,111.173709 L129.502347,117.183099 L12.3192488,117.183099 L12.3192488,111.173709 Z" id="Shape" fill="url(#linearGradient-8)"></path>
                    <path d="M5.68434189e-14,3.00469484 L120.187793,3.00469484 C136.782265,3.00469484 150.234742,16.4571718 150.234742,33.0516432 L5.68434189e-14,33.0516432 L5.68434189e-14,3.00469484 Z" id="Shape" fill="url(#linearGradient-9)"></path>
                    <circle id="Shape" fill="url(#linearGradient-10)" cx="155.342723" cy="30.0469484" r="30.0469484"></circle>
                    <path d="M166.168201,19.9156467 C167.283057,18.686476 169.183266,18.5938058 170.412437,19.7086619 C171.641608,20.823518 171.734278,22.7237272 170.619422,23.9528979 L156.175575,39.8777805 C155.133825,41.0263485 153.389157,41.193542 152.148234,40.263725 L142.123152,32.7519879 C140.795144,31.7569195 140.525244,29.8736945 141.520313,28.5456871 C142.515381,27.2176797 144.398606,26.9477793 145.726613,27.9428477 L153.562323,33.8141002 L166.168201,19.9156467 Z" id="Shape" fill="#FFFFFF" fill-rule="nonzero"></path>
                </g>
                <g id="Tab-Copy-2" transform="translate(166.159624, 79.924883)">
                    <path d="M150.234742,0 L150.234742,120.187793 C150.234742,136.782265 136.782265,150.234742 120.187793,150.234742 L0,150.234742 L0,30.0469484 C0,13.452477 13.452477,0 30.0469484,0 L150.234742,0 Z" id="Shape" fill="url(#linearGradient-7)"></path>
                    <path d="M12.3192488,39.0610329 L69.4084507,39.0610329 L69.4084507,45.0704225 L12.3192488,45.0704225 L12.3192488,39.0610329 Z M12.3192488,81.1267606 L69.4084507,81.1267606 L69.4084507,87.1361502 L12.3192488,87.1361502 L12.3192488,81.1267606 Z M12.3192488,51.0798122 L129.502347,51.0798122 L129.502347,57.0892019 L12.3192488,57.0892019 L12.3192488,51.0798122 Z M12.3192488,93.1455399 L129.502347,93.1455399 L129.502347,99.1549296 L12.3192488,99.1549296 L12.3192488,93.1455399 Z M12.3192488,63.0985915 L129.502347,63.0985915 L129.502347,69.1079812 L12.3192488,69.1079812 L12.3192488,63.0985915 Z M12.3192488,105.164319 L129.502347,105.164319 L129.502347,111.173709 L12.3192488,111.173709 L12.3192488,105.164319 Z M12.3192488,117.183099 L129.502347,117.183099 L129.502347,123.192488 L12.3192488,123.192488 L12.3192488,117.183099 Z" id="Shape" fill="url(#linearGradient-11)"></path>
                    <path d="M150.234742,2.84217094e-13 L150.234742,27.0422535 L-1.13686838e-13,27.0422535 C-1.13686838e-13,12.1072293 12.1072293,2.84217094e-13 27.0422535,2.84217094e-13 L150.234742,2.84217094e-13 Z" id="Shape" fill="url(#linearGradient-12)"></path>
                </g>
                <g id="Women-Copy" transform="translate(248.488263, 82.409402)">
                    <path d="M45.1431311,142.182497 C46.5276395,142.168061 47.7620348,142.256666 48.8463169,142.448313 C50.4727603,142.735749 50.2691717,143.287837 49.9362868,143.864546 C49.603402,144.441255 48.8558587,145.735902 48.2520966,146.781649 C47.6483419,147.827424 47.2574745,147.755588 45.4868242,146.565652 C43.7161739,145.375715 43.5891376,145.075202 41.4847283,144.25504 C39.3803191,143.434879 35.5104124,141.125024 35.4433693,139.275939 C35.3763978,137.426895 38.4436485,138.454191 41.0309842,139.514459 C42.7558645,140.221267 44.1265802,141.110613 45.1431311,142.182497 Z" id="Shape" fill="#221E41"></path>
                    <path d="M53.0026146,138.534103 L49.7706097,144.1321 L48.2814141,143.905414 C45.5750765,143.493454 43.1549054,141.992725 41.5827885,139.751649 L44.9238212,140.827043 L47.9363915,135.609118 L53.0026146,138.534103 Z" id="Shape" fill="#FE9F9F"></path>
                    <path d="M52.4174272,141.504381 L44.9000965,137.724485 L63.2621832,87.1427766 C64.2556963,84.4059642 66.4679536,82.2885284 69.2456376,81.4157844 L99.8324461,71.8054566 L78.063932,97.5991124 L52.4174272,141.504381 Z" id="Shape" fill="#211D41"></path>
                    <path d="M72.4238388,62.3369076 C68.8595802,62.3369076 66.2561816,62.3369076 64.6136429,62.3369076 C62.1498349,62.3369076 59.0543164,63.9876355 58.1537395,66.2395961 L75.8418596,66.2395961 L72.4238388,62.3369076 Z" id="Shape" fill="#FE9F9F"></path>
                    <path d="M90.6261641,143.430444 C91.5949513,142.44124 92.5304541,141.631045 93.4326725,140.999857 C94.7859892,140.053035 95.0324153,140.587379 95.2048251,141.230559 C95.3772348,141.873739 95.7640957,143.317786 96.0766261,144.484165 C96.3891816,145.650558 96.0620015,145.876148 93.9685502,146.286774 C91.875099,146.697401 91.5727762,146.574735 89.5047922,147.482835 C87.4368082,148.390935 83.0670569,149.494058 81.7121498,148.233964 C80.3573227,146.973849 83.2526041,145.531383 85.8318497,144.451583 C87.551313,143.731697 89.1494178,143.391318 90.6261641,143.430444 Z" id="Shape" fill="#221E41"></path>
                    <path d="M93.6038541,135.293146 L95.276863,141.5369 L94.0635516,142.429629 C91.8585825,144.051999 89.0860875,144.702143 86.3897528,144.229117 L89.5126376,142.627068 L87.9532165,136.807229 L93.6038541,135.293146 Z" id="Shape" fill="#FE9F9F"></path>
                    <path d="M99.2884728,71.8054566 L120.193006,66.4857287 L122.890278,77.9034244 C123.139785,78.9596038 123.265805,80.0411837 123.265805,81.1264343 C123.265805,88.8687509 116.989417,95.1451385 109.247101,95.1451385 L83.4707638,95.1451385 L95.7560064,139.129023 L88.009584,141.014035 L64.9246437,96.0208178 C64.769113,95.7176838 64.6302748,95.4062716 64.5087512,95.0879761 C62.6677179,90.2659291 65.0843069,84.8644354 69.9063538,83.0234021 L99.2884728,71.8054566 Z" id="Shape" fill="url(#linearGradient-13)"></path>
                    <path d="M90.2405951,136.030692 L89.9588729,136.135164 L89.2275665,134.163108 L89.5092888,134.058636 L90.2405951,136.030692 Z M88.4645654,131.241413 L88.1828431,131.345886 L87.4515367,129.37383 L87.733259,129.269357 L88.4645654,131.241413 Z M86.6885356,126.452135 L86.4068133,126.556607 L85.6755069,124.584551 L85.9572292,124.480079 L86.6885356,126.452135 Z M84.9125058,121.662856 L84.6307835,121.767328 L83.8994772,119.795272 L84.1811994,119.6908 L84.9125058,121.662856 Z M83.136476,116.873577 L82.8547538,116.978049 L82.1234474,115.005994 L82.4051697,114.901521 L83.136476,116.873577 Z M81.3604463,112.084298 L81.078724,112.188771 L80.3474176,110.216715 L80.6291399,110.112243 L81.3604463,112.084298 Z M79.5844165,107.29502 L79.3026942,107.399492 L78.5713879,105.427436 L78.8531101,105.322964 L79.5844165,107.29502 Z M77.8083867,102.505741 L77.5266645,102.610213 L76.7953581,100.638157 L77.0770804,100.533685 L77.8083867,102.505741 Z M76.3579034,97.6716485 L76.0577407,97.6852232 C76.0251373,96.9643012 76.1042031,96.2441125 76.2902098,95.5487371 L76.5804742,95.6263803 C76.4023847,96.2921578 76.3266957,96.9815882 76.3579034,97.6716485 Z M77.9239059,93.0331125 L77.6931146,92.8407138 C78.1534554,92.2885134 78.6960993,91.8091689 79.3055841,91.4197924 L79.4673488,91.6730001 C78.8839741,92.0456958 78.3645824,92.5045004 77.9239059,93.0331125 Z M82.2501525,90.6613917 L82.2062767,90.3641429 L84.287018,90.0570124 L84.3308938,90.3542612 L82.2501525,90.6613917 Z M87.3033814,89.9155034 L87.2595057,89.6182546 L89.340247,89.3111241 L89.3841228,89.6083729 L87.3033814,89.9155034 Z M92.3566104,89.1696151 L92.3127346,88.8723663 L94.3934759,88.5652358 L94.4373517,88.8624846 L92.3566104,89.1696151 Z M97.4098393,88.4237268 L97.3659636,88.126478 L99.4467049,87.8193475 L99.4905807,88.1165963 L97.4098393,88.4237268 Z M102.469171,87.6367764 L102.399829,87.3444177 C103.074901,87.1843035 103.731182,86.9570382 104.359266,86.6664697 L104.485425,86.9391708 C103.839132,87.2381632 103.163818,87.4720192 102.469171,87.6367764 Z M107.045115,85.2734087 L106.846868,85.0476216 C107.366608,84.5912747 107.840108,84.0833917 108.260124,83.5307264 L108.499348,83.7125328 C108.067158,84.281217 107.579926,84.8038294 107.045115,85.2734087 Z M110.244464,81.2730261 L109.999796,81.0986152 L111.220673,79.385935 L111.465341,79.560346 L110.244464,81.2730261 Z" id="Shape" fill="#FFFFFF" fill-rule="nonzero"></path>
                    <path d="M100.863018,85.5746554 C106.925602,85.5746554 112.200045,89.353865 114.276465,94.8083076 L115.529754,94.8083076 C119.464662,94.8083076 122.832492,91.9880502 123.51957,88.1175477 L130.050417,51.3275036 C130.311257,49.8581207 131.715097,48.8781872 133.185982,49.1387609 C134.656866,49.3993346 135.637801,50.8017415 135.376961,52.2711244 L128.846115,89.0611685 C127.700983,95.512006 122.087934,100.212435 115.529754,100.212435 L115.3788,100.212435 L121.665912,147.722121 L118.936502,147.722121 L112.650413,100.212435 L88.4879018,100.212435 L80.106378,147.722121 L77.3579976,147.722121 L85.7413232,100.212435 L84.3905429,100.212435 C82.8967092,100.212435 81.6857178,99.0026798 81.6857178,97.5103713 C81.6857178,96.0180627 82.8967092,94.8083076 84.3905429,94.8083076 L87.0483259,94.8083076 C89.3137918,89.3160024 94.7131897,85.5746554 100.863018,85.5746554 Z M111.331407,94.8083076 C109.42486,90.9055833 105.418059,88.2767191 100.863018,88.2767191 C96.2212358,88.2767191 92.101463,90.8792497 90.0317195,94.8083076 L111.331407,94.8083076 Z" id="Shape" fill="url(#linearGradient-14)"></path>
                    <path d="M102.765545,27.4600608 C107.501004,27.7504922 110.817637,30.8183534 112.184579,33.6253729 C113.551521,36.4323924 115.340912,46.0087896 120.354023,65.5006704 L123.055285,76.9352627 C123.304361,77.9896131 123.43016,80.152582 123.43016,80.152582 C123.43016,80.152582 115.382931,77.3702068 99.2884728,71.8054566 L95.821029,59.2020283 L88.89217,65.3160366 C88.0380023,66.069752 86.9375995,66.4857287 85.797928,66.4857287 L69.7895908,66.4857287 L69.7895908,61.6484656 L84.1673216,58.1928649 C85.9680932,54.2300806 88.5960374,46.279264 90.6549405,38.438679 C92.7138436,30.598094 98.0300854,27.1696294 102.765545,27.4600608 Z" id="Shape" fill="url(#linearGradient-15)"></path>
                    <polygon id="Shape" fill="#211D41" points="96.8773085 63.0413821 103.606352 51.1707494 95.821029 59.2020283"></polygon>
                    <path d="M16.4468238,57.9005964 C15.3217327,59.6617449 15.8388182,62.0005731 17.6017664,63.1245155 C18.2102609,63.5124525 18.9170732,63.7185634 19.638924,63.7185634 L26.6809515,63.7185634 C27.4278684,63.7185634 28.0333641,64.323441 28.0333641,65.0695953 C28.0333641,65.8157496 27.4278684,66.4206271 26.6809515,66.4206271 L19.638924,66.4206271 C18.4014656,66.4206271 17.1897873,66.0672942 16.1466539,65.4022593 C13.1244569,63.4755009 12.2380247,59.466081 14.1667523,56.4469694 L24.8843908,39.6702364 L24.8843908,5.32422816 C24.8843908,4.72682719 25.36868,4.24253802 25.966081,4.24253802 L29.2123509,4.24253802 C29.8097519,4.24253802 30.294041,4.72682719 30.294041,5.32422816 L30.294041,52.6086136 C30.294041,53.2060146 29.8097519,53.6903037 29.2123509,53.6903037 L25.966081,53.6903037 C25.36868,53.6903037 24.8843908,53.2060146 24.8843908,52.6086136 L24.8843908,44.6929473 L16.4468238,57.9005964 Z M34.6060576,66.4206271 C33.8591408,66.4206271 33.253645,65.8157496 33.253645,65.0695953 C33.253645,64.323441 33.8591408,63.7185634 34.6060576,63.7185634 L51.0243774,63.7185634 C51.7712942,63.7185634 52.3767899,64.323441 52.3767899,65.0695953 C52.3767899,65.8157496 51.7712942,66.4206271 51.0243774,66.4206271 L34.6060576,66.4206271 Z" id="Shape" fill="#211D41" fill-rule="nonzero"></path>
                    <path d="M95.5731936,25.7672875 C94.8186567,21.786508 93.7567635,19.7621843 92.3875139,19.6943163 C90.3336396,19.5925143 89.4343854,18.362266 89.2184878,16.6089586 C89.173723,16.2454224 89.0743463,15.4901511 88.9203578,14.3431447 L87.38454,13.8021086 L88.7172552,10.6329844 L88.9653517,6.14633937 C96.3030271,3.53893463 100.75534,4.64992121 102.322291,9.47929911 C103.889242,14.308677 103.670696,18.2609089 101.666655,21.3359948 L102.148744,24.3731381 L95.5731936,25.7672875 Z" id="Shape" fill="#FE9F9F"></path>
                    <path d="M87.5665859,1.20302693 C85.3686673,5.13486638 86.1657942,8.04282133 89.9579666,9.9268918 C95.6462251,12.7529975 93.055315,15.5771458 98.359281,17.1906008 C103.663247,18.8040557 93.7402273,21.686432 92.3580788,29.4745796 C90.9759302,37.2627272 99.9585239,36.5992755 107.298528,39.1299018 C112.191864,40.816986 115.019815,43.4229518 115.782381,46.9477993 C117.858399,39.7293794 117.301412,34.4782496 114.11142,31.1944099 C109.326433,26.2686505 103.929856,24.684309 107.853361,19.524569 C111.776866,14.3648289 109.610702,4.43862816 103.681789,1.20302693 C97.752877,-2.03257429 94.7187429,2.45498827 91.6418929,0.927520935 C89.5906596,-0.0907906246 88.2322239,0.00104470753 87.5665859,1.20302693 Z" id="Shape" fill="#211D41"></path>
                    <polygon id="Shape" fill="#EE342C" points="0 66.4037559 86.1631389 66.4037559 86.1631389 70.6048986 0 70.6048986"></polygon>
                </g>
                <g id="Women-Copy-2" transform="translate(0.092767, 86.258992)">
                    <path d="M80.4063845,138.838275 C81.6380027,138.022538 83.1736463,137.46433 85.0133153,137.163651 C87.7728462,136.712581 90.9925747,136.401596 90.5113754,138.188183 C90.030097,139.974795 85.7397715,141.354909 83.5048019,141.680661 C81.2698323,142.006413 81.0784512,142.270646 79.085505,143.031775 C77.0925588,143.792905 76.6955499,143.774973 76.3425176,142.620186 C75.9894717,141.465424 75.5523202,140.035798 75.3576985,139.398987 C75.1630768,138.762177 75.0888988,138.178441 76.7383155,138.264243 C77.8379188,138.321418 79.0606085,138.512762 80.4063845,138.838275 Z" id="Shape" fill="#221E41"></path>
                    <path d="M73.5690492,133.51539 L79.1634038,131.805024 L80.9249844,137.566895 L84.4222976,137.270633 C82.3863414,139.100621 79.6906086,140.018466 76.9609636,139.811074 L75.4589428,139.696953 L73.5690492,133.51539 Z" id="Shape" fill="#E9A17C"></path>
                    <path d="M73.987458,137.654792 L57.3550376,93.7495231 L35.5865235,67.9558672 L66.2955184,77.2842012 C69.6618189,78.3067673 72.1686345,81.1331747 72.7818773,84.5975006 L81.5047886,133.874896 L73.987458,137.654792 Z" id="Shape" fill="#1E1539"></path>
                    <path d="M62.9951308,58.4873183 L70.8053267,58.4873183 C73.2691347,58.4873183 76.3646532,60.1380462 77.2652301,62.3900067 L59.57711,62.3900067 L62.9951308,58.4873183 Z" id="Shape" fill="#E9A17C"></path>
                    <path d="M44.7928055,139.580854 C46.2695518,139.541728 47.8676566,139.882108 49.58712,140.601994 C52.1663655,141.681794 55.061647,143.12426 53.7068198,144.384375 C52.3519127,145.644469 47.9821614,144.541346 45.9141774,143.633245 C43.8461934,142.725145 43.5438707,142.847811 41.4504194,142.437185 C39.3569682,142.026559 39.029788,141.800969 39.3423435,140.634575 C39.6548739,139.468196 40.0417348,138.02415 40.2141446,137.38097 C40.3865543,136.73779 40.6329804,136.203446 41.9862971,137.150267 C42.8885155,137.781455 43.8240183,138.591651 44.7928055,139.580854 Z" id="Shape" fill="#221E41"></path>
                    <path d="M41.8151155,131.443556 L47.4657532,132.95764 L45.906332,138.777479 L49.0292168,140.379528 C46.3328821,140.852554 43.5603871,140.20241 41.355418,138.58004 L40.1421066,137.68731 L41.8151155,131.443556 Z" id="Shape" fill="#E9A17C"></path>
                    <path d="M36.1304968,67.9558672 L65.5126158,79.1738127 C70.3346627,81.014846 72.7512517,86.4163398 70.9102184,91.2383868 C70.7886948,91.5566823 70.6498567,91.8680945 70.4943259,92.1712285 L47.4093856,137.164446 L39.6629632,135.279433 L51.9482058,91.2955492 L26.171869,91.2955492 C18.4295524,91.2955492 12.1531648,85.0191615 12.1531648,77.276845 C12.1531648,76.1915944 12.2791845,75.1100144 12.5286921,74.0538351 L15.2259632,62.6361394 L36.1304968,67.9558672 Z" id="Shape" fill="url(#linearGradient-16)"></path>
                    <path d="M21.0971633,76.5015761 L21.2796402,76.2628628 L22.950634,77.5402012 L22.7681571,77.7789146 L21.0971633,76.5015761 Z M25.155291,79.6036837 L25.337768,79.3649703 L27.0087617,80.6423088 L26.8262848,80.8810222 L25.155291,79.6036837 Z M29.2910479,82.6254966 L29.4475925,82.3690289 C30.0422341,82.7319904 30.6552416,83.0634714 31.284076,83.3621917 L31.1551491,83.633595 C30.5168585,83.3303827 29.8946323,82.9939167 29.2910479,82.6254966 Z M33.9833065,84.7262091 L34.0703372,84.4386198 C34.7365607,84.6402335 35.4131429,84.806981 36.0973659,84.9380903 L36.0408194,85.233191 C35.3463063,85.1001099 34.6595489,84.9308546 33.9833065,84.7262091 Z M39.0280489,85.6274367 L39.0610673,85.3287869 L41.1516158,85.5599158 L41.1185974,85.8585656 L39.0280489,85.6274367 Z M44.1050953,86.1887497 L44.1381137,85.8900999 L46.2286622,86.1212288 L46.1956438,86.4198786 L44.1050953,86.1887497 Z M49.1821417,86.7500627 L49.2151601,86.4514129 L51.3057086,86.6825418 L51.2726902,86.9811916 L49.1821417,86.7500627 Z M54.259188,87.3113757 L54.2922065,87.0127259 L56.382755,87.2438548 L56.3497366,87.5425046 L54.259188,87.3113757 Z M58.974476,88.6111403 L59.195542,88.4076416 C59.6974282,88.9528536 60.0126077,89.6482002 60.0914468,90.3851294 L59.7926822,90.4170922 C59.7206958,89.7442173 59.4327695,89.1089965 58.974476,88.6111403 Z M59.1056952,93.2497808 L59.3882572,93.3519599 L58.6730032,95.3298945 L58.3904411,95.2277154 L59.1056952,93.2497808 Z M57.3686497,98.0533362 L57.6512118,98.1555154 L56.9359578,100.13345 L56.6533957,100.031271 L57.3686497,98.0533362 Z M55.6316042,102.856892 L55.9141663,102.959071 L55.1989123,104.937005 L54.9163502,104.834826 L55.6316042,102.856892 Z M53.8945587,107.660447 L54.1771208,107.762626 L53.4618668,109.740561 L53.1793047,109.638382 L53.8945587,107.660447 Z M52.1575133,112.464003 L52.4400754,112.566182 L51.7248213,114.544116 L51.4422592,114.441937 L52.1575133,112.464003 Z M50.4204678,117.267558 L50.7030299,117.369737 L49.9877759,119.347672 L49.7052138,119.245493 L50.4204678,117.267558 Z M48.6834223,122.071114 L48.9659844,122.173293 L48.2507304,124.151227 L47.9681683,124.049048 L48.6834223,122.071114 Z M46.9463769,126.874669 L47.2289389,126.976848 L46.5136849,128.954783 L46.2311228,128.852604 L46.9463769,126.874669 Z M45.2093314,131.678225 L45.4918935,131.780404 L44.7766394,133.758338 L44.4940774,133.656159 L45.2093314,131.678225 Z" id="Shape" fill="#FFFFFF" fill-rule="nonzero"></path>
                    <path d="M49.6776464,96.3628456 L58.060972,143.872531 L55.3125917,143.872531 L46.9310679,96.3628456 L22.7685567,96.3628456 L16.4824679,143.872531 L13.7530575,143.872531 L20.04017,96.3628456 L19.8892156,96.3628456 C13.3310354,96.3628456 7.71798617,91.6624167 6.57285489,85.2115792 L0.0420082914,48.4215351 C-0.218831695,46.9521522 0.762103269,45.5497452 2.23298786,45.2891715 C3.70387245,45.0285978 5.10771259,46.0085314 5.36855257,47.4779143 L11.8993992,84.2679584 C12.5864779,88.1384609 15.9543075,90.9587182 19.8892156,90.9587182 L21.1425046,90.9587182 C23.2189246,85.5042756 28.4933676,81.7250661 34.5559517,81.7250661 C40.7057799,81.7250661 46.1051778,85.4664131 48.3706437,90.9587182 L51.0284268,90.9587182 C52.5222604,90.9587182 53.7332519,92.1684734 53.7332519,93.6607819 C53.7332519,95.1530905 52.5222604,96.3628456 51.0284268,96.3628456 L49.6776464,96.3628456 Z M45.3872502,90.9587182 C43.3175066,87.0296604 39.1977338,84.4271298 34.5559517,84.4271298 C30.0009104,84.4271298 25.9941097,87.055994 24.0875622,90.9587182 L45.3872502,90.9587182 Z" id="Shape" fill="url(#linearGradient-14)"></path>
                    <path d="M38.0429591,25.2228625 L31.4674083,23.8287131 L31.9494978,20.7915698 C29.9454564,17.7164839 29.7269111,13.764252 31.2938618,8.9348741 C32.8608126,4.1054962 37.3131256,2.99450962 44.650801,5.60191436 L44.8988976,10.0885594 L46.2316127,13.2576836 L44.6957949,13.7987197 C44.5418064,14.9457261 44.4424297,15.7009974 44.3976649,16.0645336 C44.1817674,17.817841 43.2825131,19.0480893 41.2286388,19.1498913 C39.8593893,19.2177593 38.797496,21.242083 38.0429591,25.2228625 Z" id="Shape" fill="#E9A17C"></path>
                    <path d="M22.4995713,11.3573617 C23.0607075,14.9267668 28.4658431,18.7814874 23.0865248,24.0279868 C19.5003126,27.5256531 18.6623408,32.3607356 20.5726095,38.5332343 C14.1875592,31.9028684 12.2562427,26.1473856 14.77866,21.2667859 C18.562286,13.9458865 19.7582776,14.7930668 19.2559301,10.492182 C18.9491346,7.86553037 21.2003368,6.69026798 26.0095369,6.9663948 C26.5894086,4.78497798 27.9030855,2.78483122 30.2546504,1.50150543 C36.1835628,-1.7340958 37.8007524,1.43149058 41.0884992,0.370841742 C44.8369617,-0.838437023 46.2234729,1.93982445 46.2234729,1.93982445 C48.4213915,5.87166389 48.2570595,6.42111689 44.715513,9.240978 C41.9517656,11.4415374 38.0360379,11.8567062 35.9924721,11.0931209 C33.9489062,10.3295357 33.2338778,13.8387797 34.3958662,14.9765456 C37.2935862,17.8138605 32.7414327,20.833912 31.9297909,21.5132552 C30.2546504,21.138059 29.7799374,20.0605948 27.3871863,16.2949824 C26.120592,14.3016689 25.3370908,11.1800569 25.7595623,8.20328295 C23.2437955,8.12773392 22.1571318,9.17909351 22.4995713,11.3573617 Z" id="Shape" fill="url(#linearGradient-17)"></path>
                    <path d="M32.6534247,23.6104715 C37.3888842,23.3200401 42.705126,26.7485046 44.7640291,34.5890897 C46.8229322,42.4296747 49.4508764,50.3804912 51.251648,54.3432756 L65.6293788,57.7988762 L65.6293788,62.6361394 L49.6210416,62.6361394 C48.4813701,62.6361394 47.3809673,62.2201627 46.5267997,61.4664473 L39.5979406,55.352439 L36.1304968,67.9558672 C20.0360387,73.5206175 11.9888097,76.3029926 11.9888097,76.3029926 C11.9888097,76.3029926 12.1146087,74.1400237 12.3636843,73.0856733 L15.0649469,61.6510811 C20.0780573,42.1592003 21.8674485,32.5828031 23.2343908,29.7757836 C24.601333,26.9687641 27.9179652,23.9009029 32.6534247,23.6104715 Z" id="Shape" fill="url(#linearGradient-18)"></path>
                    <polygon id="Shape" fill="#211D41" points="38.5416611 59.1917928 31.8126175 47.3211601 39.5979406 55.352439"></polygon>
                    <path d="M110.534579,35.8206471 L121.252217,52.5973801 C123.180945,55.6164917 122.294513,59.6259115 119.272316,61.55267 C118.229182,62.2177048 117.017504,62.5710378 115.780046,62.5710378 L108.738018,62.5710378 C107.991101,62.5710378 107.385606,61.9661602 107.385606,61.2200059 C107.385606,60.4738517 107.991101,59.8689741 108.738018,59.8689741 L115.780046,59.8689741 C116.501896,59.8689741 117.208709,59.6628632 117.817203,59.2749262 C119.580151,58.1509838 120.097237,55.8121555 118.972146,54.0510071 L110.534579,40.843358 L110.534579,48.7590243 C110.534579,49.3564252 110.05029,49.8407144 109.452889,49.8407144 L106.206619,49.8407144 C105.609218,49.8407144 105.124929,49.3564252 105.124929,48.7590243 L105.124929,1.47463883 C105.124929,0.877237861 105.609218,0.392948689 106.206619,0.392948689 L109.452889,0.392948689 C110.05029,0.392948689 110.534579,0.877237861 110.534579,1.47463883 L110.534579,35.8206471 Z M100.812912,62.5710378 L84.3945923,62.5710378 C83.6476754,62.5710378 83.0421797,61.9661602 83.0421797,61.2200059 C83.0421797,60.4738517 83.6476754,59.8689741 84.3945923,59.8689741 L100.812912,59.8689741 C101.559829,59.8689741 102.165325,60.4738517 102.165325,61.2200059 C102.165325,61.9661602 101.559829,62.5710378 100.812912,62.5710378 Z" id="Shape" fill="#211D41" fill-rule="nonzero"></path>
                    <polygon id="Shape" fill="#EE342C" points="135.440134 62.4976526 135.440134 66.6987953 49.2769953 66.6987953 49.2769953 62.4976526"></polygon>
                </g>
            </g>
        </g>
    </g>
</svg>