<?xml version="1.0" encoding="UTF-8"?>
<svg width="384px" height="263px" viewBox="0 0 384 263" version="1.1" xmlns="http://www.w3.org/2000/svg" xmlns:xlink="http://www.w3.org/1999/xlink">
    <!-- Generator: Sketch 59.1 (86144) - https://sketch.com -->
    <title>Online Payment</title>
    <desc>Created with Sketch.</desc>
    <defs>
        <linearGradient x1="50%" y1="7.26438915%" x2="50%" y2="151.05781%" id="linearGradient-1">
            <stop stop-color="#D0F6FF" offset="0%"></stop>
            <stop stop-color="#8BE2F7" offset="100%"></stop>
        </linearGradient>
        <linearGradient x1="8.38174197%" y1="31.3864763%" x2="56.5702499%" y2="50%" id="linearGradient-2">
            <stop stop-color="#CFE49F" offset="0%"></stop>
            <stop stop-color="#A9D386" offset="100%"></stop>
        </linearGradient>
        <linearGradient x1="34.9800858%" y1="24.563533%" x2="66.6026215%" y2="80.4180658%" id="linearGradient-3">
            <stop stop-color="#6EAE7C" offset="0%"></stop>
            <stop stop-color="#0F575D" offset="100%"></stop>
        </linearGradient>
        <linearGradient x1="34.1151714%" y1="33.9683678%" x2="64.8333502%" y2="52.4070359%" id="linearGradient-4">
            <stop stop-color="#77D791" offset="0%"></stop>
            <stop stop-color="#4FA67E" offset="100%"></stop>
        </linearGradient>
        <linearGradient x1="8.38174197%" y1="45.8490744%" x2="56.5702499%" y2="50%" id="linearGradient-5">
            <stop stop-color="#CFE49F" offset="0%"></stop>
            <stop stop-color="#A9D386" offset="100%"></stop>
        </linearGradient>
        <linearGradient x1="50%" y1="34.0738849%" x2="100%" y2="62.5395359%" id="linearGradient-6">
            <stop stop-color="#0F1752" offset="0%"></stop>
            <stop stop-color="#272884" offset="100%"></stop>
        </linearGradient>
        <linearGradient x1="50%" y1="78.4372142%" x2="50.9350565%" y2="39.295005%" id="linearGradient-7">
            <stop stop-color="#2B3389" offset="0%"></stop>
            <stop stop-color="#444FB7" offset="100%"></stop>
        </linearGradient>
        <linearGradient x1="50%" y1="26.6642183%" x2="100%" y2="68.3735877%" id="linearGradient-8">
            <stop stop-color="#0F1752" offset="0%"></stop>
            <stop stop-color="#272884" offset="100%"></stop>
        </linearGradient>
        <linearGradient x1="50%" y1="7.26438915%" x2="50%" y2="151.05781%" id="linearGradient-9">
            <stop stop-color="#D0F6FF" offset="0%"></stop>
            <stop stop-color="#8BE2F7" offset="100%"></stop>
        </linearGradient>
        <linearGradient x1="50%" y1="0%" x2="50%" y2="100%" id="linearGradient-10">
            <stop stop-color="#FF9485" offset="0%"></stop>
            <stop stop-color="#FF676E" offset="100%"></stop>
        </linearGradient>
        <linearGradient x1="50%" y1="-2.48949813e-15%" x2="50%" y2="100%" id="linearGradient-11">
            <stop stop-color="#4DBCFA" offset="0%"></stop>
            <stop stop-color="#1486DB" offset="100%"></stop>
        </linearGradient>
        <linearGradient x1="50%" y1="49.27956%" x2="100%" y2="50.5672434%" id="linearGradient-12">
            <stop stop-color="#0F1752" offset="0%"></stop>
            <stop stop-color="#272884" offset="100%"></stop>
        </linearGradient>
        <linearGradient x1="34.1151714%" y1="3.88170857%" x2="64.8333502%" y2="56.9243345%" id="linearGradient-13">
            <stop stop-color="#77D791" offset="0%"></stop>
            <stop stop-color="#4FA67E" offset="100%"></stop>
        </linearGradient>
        <linearGradient x1="44.2814617%" y1="3.88170857%" x2="55.3400061%" y2="56.9243345%" id="linearGradient-14">
            <stop stop-color="#77D791" offset="0%"></stop>
            <stop stop-color="#4FA67E" offset="100%"></stop>
        </linearGradient>
        <linearGradient x1="50%" y1="0%" x2="50%" y2="100%" id="linearGradient-15">
            <stop stop-color="#1D2A78" offset="0%"></stop>
            <stop stop-color="#12033B" offset="100%"></stop>
        </linearGradient>
        <linearGradient x1="50%" y1="0%" x2="50%" y2="100%" id="linearGradient-16">
            <stop stop-color="#1D2A78" offset="0%"></stop>
            <stop stop-color="#12033B" offset="100%"></stop>
        </linearGradient>
        <linearGradient x1="82.5767258%" y1="-52.951376%" x2="82.5767258%" y2="186.664812%" id="linearGradient-17">
            <stop stop-color="#1533B6" offset="0%"></stop>
            <stop stop-color="#356BE9" offset="100%"></stop>
        </linearGradient>
        <linearGradient x1="50%" y1="0%" x2="50%" y2="100%" id="linearGradient-18">
            <stop stop-color="#FF9485" offset="0%"></stop>
            <stop stop-color="#FF676E" offset="100%"></stop>
        </linearGradient>
        <linearGradient x1="82.5767258%" y1="-52.951376%" x2="82.5767258%" y2="186.664812%" id="linearGradient-19">
            <stop stop-color="#1533B6" offset="0%"></stop>
            <stop stop-color="#356BE9" offset="100%"></stop>
        </linearGradient>
        <linearGradient x1="50%" y1="0%" x2="50%" y2="100%" id="linearGradient-20">
            <stop stop-color="#FF9485" offset="0%"></stop>
            <stop stop-color="#FF676E" offset="100%"></stop>
        </linearGradient>
        <linearGradient x1="50%" y1="0%" x2="50%" y2="100%" id="linearGradient-21">
            <stop stop-color="#FF9485" offset="0%"></stop>
            <stop stop-color="#FF676E" offset="100%"></stop>
        </linearGradient>
        <linearGradient x1="50%" y1="0%" x2="50%" y2="100%" id="linearGradient-22">
            <stop stop-color="#1D2A78" offset="0%"></stop>
            <stop stop-color="#12033B" offset="100%"></stop>
        </linearGradient>
    </defs>
    <g id="Style-1" stroke="none" stroke-width="1" fill="none" fill-rule="evenodd">
        <g id="8" transform="translate(-15.000000, -161.000000)">
            <g id="Online-Payment" transform="translate(15.000000, 161.000000)">
                <g id="Ornament-Copy" transform="translate(39.647892, 0.000000)">
                    <path d="M282.213238,235.958496 C247.968305,235.958496 220.208531,208.191788 220.208531,173.941333 C220.208531,139.690878 247.968305,111.924171 282.213238,111.924171 C316.45817,111.924171 344.217945,139.690878 344.217945,173.941333 C344.217945,208.191788 316.45817,235.958496 282.213238,235.958496 Z M282.213238,211.693093 C303.055402,211.693093 319.952542,194.791733 319.952542,173.941333 C319.952542,153.090934 303.055402,136.189573 282.213238,136.189573 C261.371074,136.189573 244.473934,153.090934 244.473934,173.941333 C244.473934,194.791733 261.371074,211.693093 282.213238,211.693093 Z" id="Shape" fill="url(#linearGradient-1)"></path>
                    <g id="Plant" transform="translate(278.142180, 182.293839)">
                        <path d="M11.9804724,50.0028483 C19.2475287,21.7625831 36.9084516,11.8373187 64.9632412,20.2270553 C62.5762368,32.9966962 56.8951579,42.8366136 47.9200043,49.7468075 C38.9448507,56.6570014 26.9650068,56.7423483 11.9804724,50.0028483 Z" id="Shape" fill="url(#linearGradient-2)"></path>
                        <path d="M33.6399348,37.4050428 L34.6335926,27.6670342 C34.6746465,27.2646999 35.2781479,27.3262807 35.237094,27.7286149 L34.2870415,37.0392848 C41.6499281,32.878669 50.8484831,27.7157034 61.8832212,21.5500852 C62.0294594,21.4683751 62.214248,21.5206855 62.2959581,21.6669238 C62.3776682,21.813162 62.3253578,21.9979507 62.1791195,22.0796607 C56.1356206,25.456443 50.6428896,28.5324805 45.7010112,31.3077236 L54.2474784,33.3468998 C54.4104221,33.385778 54.5109971,33.549387 54.4721189,33.7123307 C54.4332408,33.8752744 54.2696318,33.9758494 54.1066881,33.9369712 L44.9216919,31.7454427 C40.9620812,33.9698005 37.3645964,35.9964183 34.1292826,37.8252696 C34.1006343,37.8501411 34.0675165,37.8683569 34.0322024,37.880149 C30.3741973,39.9480963 27.1812635,41.7620876 24.4534665,43.3220843 L32.4043868,46.2256955 C32.5617401,46.2831596 32.6427162,46.4573034 32.5852521,46.6146567 C32.527788,46.7720099 32.3536441,46.852986 32.1962909,46.7955219 L23.8024037,43.7301429 C23.7902279,43.7256964 23.7785094,43.7205512 23.7672769,43.7147693 C19.4996441,46.1586744 16.4395834,47.9431669 14.5873693,49.0680851 C14.4441896,49.1550434 14.2576259,49.109467 14.1706676,48.9662874 C14.0837093,48.8231077 14.1292857,48.636544 14.2724654,48.5495857 C17.367959,46.6695778 23.8233571,42.9549803 33.6399348,37.4050428 Z" id="Shape" fill="#FFFFFF" fill-rule="nonzero"></path>
                        <path d="M15.2545972,58.5191402 C0.424298938,33.4116724 5.89423558,13.9052923 31.6644072,5.68434189e-14 C39.0060399,10.7173666 41.9467828,21.6923684 40.4866357,32.9250053 C39.0264887,44.1576422 30.6158092,52.6890205 15.2545972,58.5191402 Z" id="Shape" fill="url(#linearGradient-3)"></path>
                        <path d="M21.6621592,34.2955975 L15.4789665,26.7071596 C15.2235027,26.3936369 15.6937867,26.0104412 15.9492506,26.3239639 L21.8611028,33.579394 C24.1254504,25.4310469 26.9790432,15.2759176 30.4220311,3.11342792 C30.4676594,2.95224412 30.6353138,2.85856788 30.7964976,2.90419619 C30.9576814,2.94982451 31.0513576,3.11747886 31.0057293,3.27866266 C29.1200764,9.9398055 27.4112165,15.9988383 25.8791742,21.4556661 L33.3643497,16.8543196 C33.5070593,16.766592 33.6938655,16.8111637 33.7815931,16.9538733 C33.8693207,17.0965829 33.824749,17.2833892 33.6820394,17.3711168 L25.6376265,22.3162422 C24.4106148,26.6889773 23.299842,30.6658259 22.3053212,34.2467373 C22.3026489,34.2845676 22.2921157,34.3208529 22.2754912,34.3541513 C21.1511488,38.4030177 20.1760877,41.9434537 19.350327,44.9753858 L27.0256352,41.4064014 C27.177534,41.3357692 27.3579311,41.4016487 27.4285634,41.5535475 C27.4991956,41.7054463 27.4333161,41.8858434 27.2814173,41.9564756 L19.1784925,45.7242999 C19.1667401,45.7297647 19.1548172,45.7344123 19.1427877,45.7382661 C17.8532171,50.4840416 16.9512539,53.909659 16.4369779,56.0148099 C16.3972234,56.177542 16.2330756,56.2772351 16.0703434,56.2374806 C15.9076113,56.1977261 15.8079183,56.0335782 15.8476728,55.8708461 C16.7071509,52.3526355 18.6451894,45.1613633 21.6621592,34.2955975 L21.6621592,34.2955975 Z" id="Shape" fill="#FFFFFF" fill-rule="nonzero"></path>
                        <path d="M-2.27373675e-13,68.951475 C14.3285558,43.554326 33.9565448,38.5382401 58.883967,53.9032172 C53.2732716,65.6199409 45.2390127,73.6541998 34.7811902,78.0059939 C24.3233678,82.3577879 12.7296377,79.339615 -2.27373675e-13,68.951475 Z" id="Shape" fill="url(#linearGradient-4)" fill-rule="nonzero"></path>
                        <path d="M24.1819866,62.3888092 L27.6621679,53.2397942 C27.8059546,52.8617947 28.3729539,53.0774748 28.2291672,53.4554743 L24.9017088,62.2029977 C33.0905575,60.0898068 43.3119528,57.4835264 55.5664699,54.383997 C55.7288734,54.3429203 55.8938265,54.4412752 55.9349032,54.6036786 C55.9759798,54.766082 55.877625,54.9310352 55.7152216,54.9721118 C49.003674,56.6696604 42.901966,58.2192612 37.410192,59.620888 L45.1376693,63.8025703 C45.2849984,63.8822967 45.3398013,64.0663615 45.260075,64.2136907 C45.1803486,64.3610198 44.9962838,64.4158226 44.8489546,64.3360963 L36.5441373,59.8419895 C32.1437438,60.9657307 28.1443154,61.992195 24.5459026,62.9213684 C24.5117897,62.9379804 24.4750816,62.947005 24.4379145,62.9492547 C20.3693309,63.9999765 16.8156999,64.9257651 13.7770947,65.7266 L20.7055855,70.5891235 C20.8427042,70.6853556 20.8758494,70.8745239 20.7796173,71.0116426 C20.6833852,71.1487613 20.494217,71.1819065 20.3570983,71.0856744 L13.0426043,65.9522478 C13.0319938,65.9448012 13.0220059,65.9367981 13.0126524,65.9283056 C8.25790657,67.184392 4.84025435,68.1160773 2.76000267,68.7232766 C2.59919528,68.7702142 2.43078464,68.6779046 2.38384698,68.5170972 C2.33690933,68.3562898 2.42921899,68.1878791 2.59002639,68.1409415 C6.06662561,67.126166 13.2634704,65.2089201 24.1819866,62.3888092 Z" id="Shape" fill="#FFFFFF" fill-rule="nonzero"></path>
                    </g>
                    <path d="M169.554502,45.4976303 C169.554502,28.7458654 183.134491,15.1658768 199.886256,15.1658768 L259.943128,15.1658768 C259.943128,31.9176417 246.363139,45.4976303 229.611374,45.4976303 L169.554502,45.4976303 Z" id="Shape" fill="url(#linearGradient-5)"></path>
                    <path d="M156.208531,30.3317536 C156.208531,13.5799886 169.788519,0 186.540284,0 L246.597156,0 C246.597156,16.7517649 233.017168,30.3317536 216.265403,30.3317536 L156.208531,30.3317536 Z" id="Shape" fill="#00ADFF"></path>
                    <path d="M300.331008,285.165131 C300.331008,254.154458 300.331008,214.948653 300.331008,194.696577 C275.195978,194.696577 254.820011,214.948653 254.820011,239.930854 C254.820011,264.913055 275.195978,285.165131 300.331008,285.165131 Z" id="Shape" fill="#66D4FF" transform="translate(277.575509, 239.930854) rotate(-270.000000) translate(-277.575509, -239.930854) "></path>
                    <path d="M2.67453713,246.772898 C2.67453713,247.511407 2.0758216,248.110087 1.33726857,248.110087 C0.59871553,248.110087 -3.12638804e-13,247.511407 -3.12638804e-13,246.772898 C-3.12638804e-13,246.03439 0.59871553,245.43571 1.33726857,245.43571 C2.0758216,245.43571 2.67453713,246.03439 2.67453713,246.772898 Z M2.67453713,241.424145 C2.67453713,242.162654 2.0758216,242.761333 1.33726857,242.761333 C0.59871553,242.761333 -1.98951966e-13,242.162654 -1.98951966e-13,241.424145 C-1.98951966e-13,240.685636 0.59871553,240.086957 1.33726857,240.086957 C2.0758216,240.086957 2.67453713,240.685636 2.67453713,241.424145 Z M2.67453713,236.075392 C2.67453713,236.8139 2.0758216,237.41258 1.33726857,237.41258 C0.59871553,237.41258 -1.98951966e-13,236.8139 -1.98951966e-13,236.075392 C-1.98951966e-13,235.336883 0.59871553,234.738203 1.33726857,234.738203 C2.0758216,234.738203 2.67453713,235.336883 2.67453713,236.075392 Z M2.67453713,230.726638 C2.67453713,231.465147 2.0758216,232.063827 1.33726857,232.063827 C0.59871553,232.063827 -1.98951966e-13,231.465147 -1.98951966e-13,230.726638 C-1.98951966e-13,229.988129 0.59871553,229.38945 1.33726857,229.38945 C2.0758216,229.38945 2.67453713,229.988129 2.67453713,230.726638 Z M2.67453713,225.377885 C2.67453713,226.116394 2.0758216,226.715073 1.33726857,226.715073 C0.59871553,226.715073 -1.98951966e-13,226.116394 -1.98951966e-13,225.377885 C-1.98951966e-13,224.639376 0.59871553,224.040696 1.33726857,224.040696 C2.0758216,224.040696 2.67453713,224.639376 2.67453713,225.377885 Z M2.67453713,220.029131 C2.67453713,220.76764 2.0758216,221.36632 1.33726857,221.36632 C0.59871553,221.36632 -1.98951966e-13,220.76764 -1.98951966e-13,220.029131 C-1.98951966e-13,219.290623 0.59871553,218.691943 1.33726857,218.691943 C2.0758216,218.691943 2.67453713,219.290623 2.67453713,220.029131 Z M8.02361139,246.772898 C8.02361139,247.511407 7.42489586,248.110087 6.68634283,248.110087 C5.94778979,248.110087 5.34907426,247.511407 5.34907426,246.772898 C5.34907426,246.03439 5.94778979,245.43571 6.68634283,245.43571 C7.42489586,245.43571 8.02361139,246.03439 8.02361139,246.772898 Z M8.02361139,241.424145 C8.02361139,242.162654 7.42489586,242.761333 6.68634283,242.761333 C5.94778979,242.761333 5.34907426,242.162654 5.34907426,241.424145 C5.34907426,240.685636 5.94778979,240.086957 6.68634283,240.086957 C7.42489586,240.086957 8.02361139,240.685636 8.02361139,241.424145 Z M8.02361139,236.075392 C8.02361139,236.8139 7.42489586,237.41258 6.68634283,237.41258 C5.94778979,237.41258 5.34907426,236.8139 5.34907426,236.075392 C5.34907426,235.336883 5.94778979,234.738203 6.68634283,234.738203 C7.42489586,234.738203 8.02361139,235.336883 8.02361139,236.075392 Z M8.02361139,230.726638 C8.02361139,231.465147 7.42489586,232.063827 6.68634283,232.063827 C5.94778979,232.063827 5.34907426,231.465147 5.34907426,230.726638 C5.34907426,229.988129 5.94778979,229.38945 6.68634283,229.38945 C7.42489586,229.38945 8.02361139,229.988129 8.02361139,230.726638 Z M8.02361139,225.377885 C8.02361139,226.116394 7.42489586,226.715073 6.68634283,226.715073 C5.94778979,226.715073 5.34907426,226.116394 5.34907426,225.377885 C5.34907426,224.639376 5.94778979,224.040696 6.68634283,224.040696 C7.42489586,224.040696 8.02361139,224.639376 8.02361139,225.377885 Z M8.02361139,220.029131 C8.02361139,220.76764 7.42489586,221.36632 6.68634283,221.36632 C5.94778979,221.36632 5.34907426,220.76764 5.34907426,220.029131 C5.34907426,219.290623 5.94778979,218.691943 6.68634283,218.691943 C7.42489586,218.691943 8.02361139,219.290623 8.02361139,220.029131 Z M13.3726857,246.772898 C13.3726857,247.511407 12.7739701,248.110087 12.0354171,248.110087 C11.2968641,248.110087 10.6981485,247.511407 10.6981485,246.772898 C10.6981485,246.03439 11.2968641,245.43571 12.0354171,245.43571 C12.7739701,245.43571 13.3726857,246.03439 13.3726857,246.772898 Z M13.3726857,241.424145 C13.3726857,242.162654 12.7739701,242.761333 12.0354171,242.761333 C11.2968641,242.761333 10.6981485,242.162654 10.6981485,241.424145 C10.6981485,240.685636 11.2968641,240.086957 12.0354171,240.086957 C12.7739701,240.086957 13.3726857,240.685636 13.3726857,241.424145 Z M13.3726857,236.075392 C13.3726857,236.8139 12.7739701,237.41258 12.0354171,237.41258 C11.2968641,237.41258 10.6981485,236.8139 10.6981485,236.075392 C10.6981485,235.336883 11.2968641,234.738203 12.0354171,234.738203 C12.7739701,234.738203 13.3726857,235.336883 13.3726857,236.075392 Z M13.3726857,230.726638 C13.3726857,231.465147 12.7739701,232.063827 12.0354171,232.063827 C11.2968641,232.063827 10.6981485,231.465147 10.6981485,230.726638 C10.6981485,229.988129 11.2968641,229.38945 12.0354171,229.38945 C12.7739701,229.38945 13.3726857,229.988129 13.3726857,230.726638 Z M13.3726857,225.377885 C13.3726857,226.116394 12.7739701,226.715073 12.0354171,226.715073 C11.2968641,226.715073 10.6981485,226.116394 10.6981485,225.377885 C10.6981485,224.639376 11.2968641,224.040696 12.0354171,224.040696 C12.7739701,224.040696 13.3726857,224.639376 13.3726857,225.377885 Z M13.3726857,220.029131 C13.3726857,220.76764 12.7739701,221.36632 12.0354171,221.36632 C11.2968641,221.36632 10.6981485,220.76764 10.6981485,220.029131 C10.6981485,219.290623 11.2968641,218.691943 12.0354171,218.691943 C12.7739701,218.691943 13.3726857,219.290623 13.3726857,220.029131 Z M18.7217599,246.772898 C18.7217599,247.511407 18.1230444,248.110087 17.3844914,248.110087 C16.6459383,248.110087 16.0472228,247.511407 16.0472228,246.772898 C16.0472228,246.03439 16.6459383,245.43571 17.3844914,245.43571 C18.1230444,245.43571 18.7217599,246.03439 18.7217599,246.772898 Z M18.7217599,241.424145 C18.7217599,242.162654 18.1230444,242.761333 17.3844914,242.761333 C16.6459383,242.761333 16.0472228,242.162654 16.0472228,241.424145 C16.0472228,240.685636 16.6459383,240.086957 17.3844914,240.086957 C18.1230444,240.086957 18.7217599,240.685636 18.7217599,241.424145 Z M18.7217599,236.075392 C18.7217599,236.8139 18.1230444,237.41258 17.3844914,237.41258 C16.6459383,237.41258 16.0472228,236.8139 16.0472228,236.075392 C16.0472228,235.336883 16.6459383,234.738203 17.3844914,234.738203 C18.1230444,234.738203 18.7217599,235.336883 18.7217599,236.075392 Z M18.7217599,230.726638 C18.7217599,231.465147 18.1230444,232.063827 17.3844914,232.063827 C16.6459383,232.063827 16.0472228,231.465147 16.0472228,230.726638 C16.0472228,229.988129 16.6459383,229.38945 17.3844914,229.38945 C18.1230444,229.38945 18.7217599,229.988129 18.7217599,230.726638 Z M18.7217599,225.377885 C18.7217599,226.116394 18.1230444,226.715073 17.3844914,226.715073 C16.6459383,226.715073 16.0472228,226.116394 16.0472228,225.377885 C16.0472228,224.639376 16.6459383,224.040696 17.3844914,224.040696 C18.1230444,224.040696 18.7217599,224.639376 18.7217599,225.377885 Z M18.7217599,220.029131 C18.7217599,220.76764 18.1230444,221.36632 17.3844914,221.36632 C16.6459383,221.36632 16.0472228,220.76764 16.0472228,220.029131 C16.0472228,219.290623 16.6459383,218.691943 17.3844914,218.691943 C18.1230444,218.691943 18.7217599,219.290623 18.7217599,220.029131 Z M24.0708342,246.772898 C24.0708342,247.511407 23.4721187,248.110087 22.7335656,248.110087 C21.9950126,248.110087 21.3962971,247.511407 21.3962971,246.772898 C21.3962971,246.03439 21.9950126,245.43571 22.7335656,245.43571 C23.4721187,245.43571 24.0708342,246.03439 24.0708342,246.772898 Z M24.0708342,241.424145 C24.0708342,242.162654 23.4721187,242.761333 22.7335656,242.761333 C21.9950126,242.761333 21.3962971,242.162654 21.3962971,241.424145 C21.3962971,240.685636 21.9950126,240.086957 22.7335656,240.086957 C23.4721187,240.086957 24.0708342,240.685636 24.0708342,241.424145 Z M24.0708342,236.075392 C24.0708342,236.8139 23.4721187,237.41258 22.7335656,237.41258 C21.9950126,237.41258 21.3962971,236.8139 21.3962971,236.075392 C21.3962971,235.336883 21.9950126,234.738203 22.7335656,234.738203 C23.4721187,234.738203 24.0708342,235.336883 24.0708342,236.075392 Z M24.0708342,230.726638 C24.0708342,231.465147 23.4721187,232.063827 22.7335656,232.063827 C21.9950126,232.063827 21.3962971,231.465147 21.3962971,230.726638 C21.3962971,229.988129 21.9950126,229.38945 22.7335656,229.38945 C23.4721187,229.38945 24.0708342,229.988129 24.0708342,230.726638 Z M24.0708342,225.377885 C24.0708342,226.116394 23.4721187,226.715073 22.7335656,226.715073 C21.9950126,226.715073 21.3962971,226.116394 21.3962971,225.377885 C21.3962971,224.639376 21.9950126,224.040696 22.7335656,224.040696 C23.4721187,224.040696 24.0708342,224.639376 24.0708342,225.377885 Z M24.0708342,220.029131 C24.0708342,220.76764 23.4721187,221.36632 22.7335656,221.36632 C21.9950126,221.36632 21.3962971,220.76764 21.3962971,220.029131 C21.3962971,219.290623 21.9950126,218.691943 22.7335656,218.691943 C23.4721187,218.691943 24.0708342,219.290623 24.0708342,220.029131 Z M29.4199084,246.772898 C29.4199084,247.511407 28.8211929,248.110087 28.0826399,248.110087 C27.3440868,248.110087 26.7453713,247.511407 26.7453713,246.772898 C26.7453713,246.03439 27.3440868,245.43571 28.0826399,245.43571 C28.8211929,245.43571 29.4199084,246.03439 29.4199084,246.772898 Z M29.4199084,241.424145 C29.4199084,242.162654 28.8211929,242.761333 28.0826399,242.761333 C27.3440868,242.761333 26.7453713,242.162654 26.7453713,241.424145 C26.7453713,240.685636 27.3440868,240.086957 28.0826399,240.086957 C28.8211929,240.086957 29.4199084,240.685636 29.4199084,241.424145 Z M29.4199084,236.075392 C29.4199084,236.8139 28.8211929,237.41258 28.0826399,237.41258 C27.3440868,237.41258 26.7453713,236.8139 26.7453713,236.075392 C26.7453713,235.336883 27.3440868,234.738203 28.0826399,234.738203 C28.8211929,234.738203 29.4199084,235.336883 29.4199084,236.075392 Z M29.4199084,230.726638 C29.4199084,231.465147 28.8211929,232.063827 28.0826399,232.063827 C27.3440868,232.063827 26.7453713,231.465147 26.7453713,230.726638 C26.7453713,229.988129 27.3440868,229.38945 28.0826399,229.38945 C28.8211929,229.38945 29.4199084,229.988129 29.4199084,230.726638 Z M29.4199084,225.377885 C29.4199084,226.116394 28.8211929,226.715073 28.0826399,226.715073 C27.3440868,226.715073 26.7453713,226.116394 26.7453713,225.377885 C26.7453713,224.639376 27.3440868,224.040696 28.0826399,224.040696 C28.8211929,224.040696 29.4199084,224.639376 29.4199084,225.377885 Z M29.4199084,220.029131 C29.4199084,220.76764 28.8211929,221.36632 28.0826399,221.36632 C27.3440868,221.36632 26.7453713,220.76764 26.7453713,220.029131 C26.7453713,219.290623 27.3440868,218.691943 28.0826399,218.691943 C28.8211929,218.691943 29.4199084,219.290623 29.4199084,220.029131 Z" id="Shape" fill="#CDCBDF"></path>
                </g>
                <g id="Monitor-Copy" transform="translate(5.069693, 15.165877)">
                    <path d="M158.7109,226.280084 L175.802844,226.280084 C178.148091,226.280084 180.049289,228.181283 180.049289,230.52653 L180.049289,243.260664 C180.049289,245.605911 178.148091,247.507109 175.802844,247.507109 L78.9838863,247.507109 C76.6386392,247.507109 74.7374408,245.605911 74.7374408,243.260664 L74.7374408,230.52653 C74.7374408,228.181283 76.6386392,226.280084 78.9838863,226.280084 L96.0758294,226.280084 L104.037915,188.07144 L150.748815,188.07144 L158.7109,226.280084 Z" id="Shape" fill="url(#linearGradient-6)"></path>
                    <path d="M4.2464455,29.7178347 L250.540284,29.7178347 C252.885531,29.7178347 254.78673,31.6190331 254.78673,33.9642802 L254.78673,195.287587 C254.78673,197.632835 252.885531,199.534033 250.540284,199.534033 L4.2464455,199.534033 C1.90119841,199.534033 0,197.632835 0,195.287587 L0,33.9642802 C0,31.6190331 1.90119841,29.7178347 4.2464455,29.7178347 Z" id="Shape" fill="url(#linearGradient-7)"></path>
                    <path d="M4.2464455,1.70530257e-13 L250.540284,1.70530257e-13 C252.885531,1.70530257e-13 254.78673,1.90119841 254.78673,4.2464455 L254.78673,174.061603 L0,174.061603 L0,4.2464455 C0,1.90119841 1.90119841,1.70530257e-13 4.2464455,1.70530257e-13 Z" id="Shape" fill="url(#linearGradient-8)"></path>
                    <polygon id="Shape" fill="#FFFFFF" points="12.7393365 12.7362149 242.047393 12.7362149 242.047393 161.325388 12.7393365 161.325388"></polygon>
                    <polygon id="Shape" fill="url(#linearGradient-9)" points="29.7251185 95.8483412 225.061611 95.8483412 225.061611 144.670498 29.7251185 144.670498"></polygon>
                    <path d="M43.9810427,103.43128 L131.488152,103.43128 L131.488152,109.49763 L43.9810427,109.49763 L43.9810427,103.43128 Z M43.9810427,117.080569 L213.080569,117.080569 L213.080569,123.146919 L43.9810427,123.146919 L43.9810427,117.080569 Z M43.9810427,130.729858 L213.080569,130.729858 L213.080569,136.796209 L43.9810427,136.796209 L43.9810427,130.729858 Z" id="Shape" fill="#FFFFFF"></path>
                    <polygon id="Shape" fill="url(#linearGradient-9)" points="29.7251185 30.1423752 225.061611 30.1423752 225.061611 78.9645322 29.7251185 78.9645322"></polygon>
                    <circle id="Shape" fill="url(#linearGradient-10)" cx="60.056872" cy="54.5971564" r="18.1990521"></circle>
                    <path d="M66.6137256,48.4607566 C67.2889797,47.7162637 68.4399121,47.6601345 69.184405,48.3353886 C69.928898,49.0106427 69.9850272,50.1615751 69.3097731,50.906068 L60.5613198,60.5515657 C59.9303454,61.2472386 58.8736222,61.3485055 58.1220108,60.7853273 L52.049947,56.2355643 C51.2455899,55.632864 51.0821147,54.4922187 51.6848149,53.6878617 C52.2875151,52.8835046 53.4281604,52.7200294 54.2325175,53.3227296 L58.9785063,56.8788721 L66.6137256,48.4607566 Z" id="Shape" fill="#FFFFFF" fill-rule="nonzero"></path>
                    <path d="M89.7819905,44.2843602 L149.990521,44.2843602 L149.990521,50.3507109 L89.7819905,50.3507109 L89.7819905,44.2843602 Z M89.7819905,57.9336493 L213.383886,57.9336493 L213.383886,64 L89.7819905,64 L89.7819905,57.9336493 Z" id="Shape" fill="#FFFFFF"></path>
                </g>
                <g id="Credit-Card-Copy" transform="translate(140.319836, 153.234913)">
                    <path d="M3.63981043,-2.84217094e-14 L178.380188,-2.84217094e-14 C180.3904,-2.84217094e-14 182.019998,1.62959864 182.019998,3.63981043 L182.019998,105.605552 C182.019998,107.615763 180.3904,109.245362 178.380188,109.245362 L3.63981043,109.245362 C1.62959864,109.245362 -2.84217094e-13,107.615763 -2.84217094e-13,105.605552 L-2.84217094e-13,3.63981043 C-2.84217094e-13,1.62959864 1.62959864,-2.84217094e-14 3.63981043,-2.84217094e-14 Z" id="Shape" fill="url(#linearGradient-11)"></path>
                    <polygon id="Shape" fill="url(#linearGradient-12)" points="-2.84217094e-13 18.2075603 182.019998 18.2075603 182.019998 40.0566327 -2.84217094e-13 40.0566327"></polygon>
                    <path d="M14.5615999,71.0094853 L43.6847996,71.0094853 L43.6847996,78.2925095 L14.5615999,78.2925095 L14.5615999,71.0094853 Z M14.5615999,87.3962896 L36.4039996,87.3962896 L36.4039996,94.6793138 L14.5615999,94.6793138 L14.5615999,87.3962896 Z M50.9655995,71.0094853 L87.3695992,71.0094853 L87.3695992,78.2925095 L50.9655995,78.2925095 L50.9655995,71.0094853 Z M43.6847996,87.3962896 L69.1675993,87.3962896 L69.1675993,94.6793138 L43.6847996,94.6793138 L43.6847996,87.3962896 Z" id="Shape" fill="#FFFFFF"></path>
                    <ellipse id="Shape" fill="#BDDEFF" cx="138.699239" cy="83.3906264" rx="12.3773599" ry="12.381141"></ellipse>
                    <ellipse id="Shape" fill="#FFFFFF" cx="151.076599" cy="83.3906264" rx="12.3773599" ry="12.381141"></ellipse>
                </g>
                <g id="Money-Copy" transform="translate(301.714242, 12.132701)">
                    <circle id="Shape" fill="url(#linearGradient-13)" fill-rule="nonzero" cx="37.1563981" cy="37.1563981" r="37.1563981"></circle>
                    <circle id="Shape" fill="#FFFFFF" cx="37.1563981" cy="37.1563981" r="30.1800948"></circle>
                    <path d="M37.1563981,67.3364929 C37.1563981,50.9117574 37.1563981,20.1262622 37.1563981,6.97630332 C20.488392,6.97630332 6.97630332,20.488392 6.97630332,37.1563981 C6.97630332,53.8244042 20.488392,67.3364929 37.1563981,67.3364929 Z" id="Shape" fill="#E1F0D5"></path>
                    <path d="M35.9020092,57.6303318 L35.9020092,52.2310876 C28.4189306,51.7127602 25.2180762,47.6093347 24.8720379,42.1668966 L31.2737467,42.1668966 C31.5765303,44.6721459 32.4848808,46.7022617 35.9020092,47.2205891 L35.9020092,38.8841562 C29.0244977,37.8043074 25.7371337,35.2990581 25.7371337,29.5974564 C25.7371337,24.6301518 29.7165743,20.9586658 35.9020092,20.5267263 L35.9020092,16.6824645 L38.9730993,16.6824645 L38.9730993,20.5699202 C44.8557506,21.0882476 48.4026433,24.0254364 48.9217008,29.5974564 L42.7362659,29.5974564 C42.3469728,27.3513708 41.2656031,25.9691643 38.9730993,25.5372248 L38.9730993,33.2689423 C45.4613177,34.2624033 49.4407583,36.4221009 49.4407583,42.4260604 C49.4407583,47.6093347 45.807356,51.7559542 38.9730993,52.2310876 L38.9730993,57.6303318 L35.9020092,57.6303318 Z M43.07109,42.9410968 C43.07109,40.8612051 42.167591,39.8212593 38.8246445,39.1279621 L38.8246445,47.014218 C41.4447918,46.5809072 43.07109,45.0643196 43.07109,42.9410968 Z M32.1516588,29.0538714 C32.1516588,31.0353067 32.8882871,32.1121736 36.0947867,32.7582938 L36.0947867,25.478673 C33.5382532,25.8232704 32.1516588,27.2447348 32.1516588,29.0538714 Z" id="Shape" fill="url(#linearGradient-14)" fill-rule="nonzero"></path>
                </g>
                <g id="Men-1-Copy" transform="translate(259.575807, 56.662303)">
                    <path d="M48.4257099,13.3145045 L16.875561,36.1133402 L7.2356955,25.8400663 L45.0411536,7.04897216 C45.9707157,9.25406635 47.1069919,11.3506679 48.4257099,13.3145045 L48.4257099,13.3145045 Z" id="Shape" fill="#221E41"></path>
                    <polygon id="Shape" fill="#211D41" points="2.9137453 72.6747967 21.9171693 84.9429965 32.7150698 96.5850463 0.255963803 96.5850463 0.255963803 79.5228663"></polygon>
                    <polygon id="Shape" fill="#F4B696" points="70.7532215 126.85222 68.070271 122.681383 74.0524166 119.428321 76.2819195 124.566678"></polygon>
                    <path d="M69.8443956,126.79585 L75.8708244,123.455346 L80.3946731,122.613522 C82.6959868,122.228562 84.4703032,121.608561 85.6533473,123.742829 C85.957253,124.291089 85.8403501,124.936904 85.3922375,125.185297 L74.0892329,131.450655 C73.3859646,131.840483 72.4998349,131.586389 72.1100069,130.883121 L69.8443956,126.79585 Z" id="Shape" fill="url(#linearGradient-15)"></path>
                    <path d="M20.0412994,27.0378686 L11.0567701,25.7751754 L11.5399409,22.3372371 C9.92209499,18.8934173 9.94217413,14.4294669 11.6001783,8.94538585 C13.2581824,3.46130482 17.900158,2.5867806 25.5261052,6.32181322 C25.289417,9.58780823 25.8503051,11.7501894 27.2087693,12.8089566 C29.2464656,14.3971075 28.4552685,15.5012378 27.6263959,15.7637279 C26.7975232,16.026218 26.2044759,16.5871058 26.1735288,18.4958678 C26.1425818,20.4046298 24.94596,20.6152125 23.0589003,21.1058284 C21.8008605,21.4329057 20.7949935,23.4102524 20.0412994,27.0378686 Z" id="Shape" fill="#F4B696"></path>
                    <path d="M11.428861,22.2478177 C10.6330422,21.9477446 10.1753621,21.4498816 10.0558208,20.7542287 C9.87650873,19.7107493 10.4836176,19.2267947 8.43198961,17.0806789 C6.38036164,14.934563 4.73423496,12.0984546 6.04266921,7.16372685 C7.35110346,2.2289991 10.3129377,1.82789784 13.2667618,1.5771786 C16.2205859,1.32645936 17.4194149,1.67127927 21.4794616,0.345395525 C25.5395084,-0.980488224 27.5808207,1.66170974 26.6911695,5.69346374 C25.8015183,9.72521773 19.6995872,9.56986126 18.6278766,9.41924215 C17.5561659,9.26862304 18.084547,10.879464 18.1900037,12.5348696 C18.2954604,14.1902752 17.2362378,14.5466651 16.8495789,14.3119318 C16.4629199,14.0771984 15.6410974,13.8025668 14.891174,14.7131047 C14.1412507,15.6236427 14.8689881,17.0771732 15.4577182,17.1599138 C16.0464483,17.2426544 16.8305,17.0736805 16.8563819,17.7442942 C16.8822638,18.4149079 16.5217553,20.4775794 15.8301207,21.5657536 C15.3690309,22.2912031 13.9019444,22.5185578 11.428861,22.2478177 Z" id="Shape" fill="url(#linearGradient-16)"></path>
                    <path d="M5.53348311,75.1543501 L30.6377955,78.6173175 L57.0324569,87.5207888 C60.2984868,88.622489 62.9607799,91.0302918 64.3839912,94.1695854 L76.4472283,120.778455 L67.4230004,123.597877 L49.7060459,99.2429099 L22.2282245,98.6193978 C11.2278894,99.0035379 1.99894874,90.3974116 1.61480858,79.3970765 L5.53348311,75.1543501 Z" id="Shape" fill="url(#linearGradient-17)"></path>
                    <path d="M38.8019426,28.2155921 L57.1739067,28.2155921 L82.9341925,15.2742147 L85.3726018,12.1907772 L85.3726018,15.0045262 L91.5276267,15.0045262 C90.9333486,18.201638 89.7589415,20.195827 88.0044056,20.987093 C86.2498697,21.778359 83.7157205,21.778359 80.4019579,20.987093 L57.5359965,37.9331865 L38.8019426,40.6013489 L38.8019426,28.2155921 Z" id="Shape" fill="#F4B696"></path>
                    <path d="M41.8654627,26.9128049 L40.5691845,41.3092606 L29.6897512,41.6125781 L31.0559862,78.5092335 L0.280615566,79.5424925 L0.00791038526,37.7504676 C-0.237633444,30.7190123 5.2634347,24.819839 12.29489,24.5742951 L16.2867878,24.434895 C19.0293082,24.3391241 33.2222424,26.1023805 41.8654627,26.9128049 Z" id="Shape" fill="url(#linearGradient-18)"></path>
                    <path d="M15.1020467,81.6025179 L15.3226022,81.394295 C15.8255887,81.9270724 16.3147786,82.4373248 16.7901693,82.9250505 L16.5729623,83.1367641 C16.0964249,82.647862 15.6061206,82.1364472 15.1020467,81.6025179 Z M18.724506,85.2815615 L18.9351151,85.0632833 C19.4716221,85.5809406 19.9867934,86.0637967 20.4806159,86.5118451 L20.276802,86.7364813 C19.7806148,86.2862875 19.2631871,85.8013164 18.724506,85.2815615 Z M22.5954047,88.7091541 L22.7826695,88.4705468 C23.3998755,88.954945 23.9710608,89.364648 24.4960343,89.6996197 L24.3328794,89.9553188 C23.7990743,89.6147118 23.2199797,89.1993356 22.5954047,88.7091541 Z M27.177506,91.1252281 L27.2120621,90.8238854 L29.3214608,91.0657782 L29.2869047,91.3671209 L27.177506,91.1252281 Z M32.3003313,91.7126819 L32.3348874,91.4113393 L34.4442861,91.653232 L34.40973,91.9545747 L32.3003313,91.7126819 Z M37.4231567,92.3001358 L37.4577128,91.9987931 L39.5671114,92.2406858 L39.5325553,92.5420285 L37.4231567,92.3001358 Z M42.545982,92.8875896 L42.5805381,92.5862469 L44.6899368,92.8281397 L44.6553807,93.1294823 L42.545982,92.8875896 Z M47.6688073,93.4750434 L47.7033635,93.1737007 L49.8127621,93.4155935 L49.778206,93.7169362 L47.6688073,93.4750434 Z M52.7250636,94.2731186 L52.8199497,93.9850246 C53.5040639,94.2103432 54.1632446,94.503619 54.7878153,94.8600317 L54.6374819,95.1234731 C54.0305012,94.7770982 53.3898938,94.4920858 52.7250636,94.2731186 Z M56.9904813,96.955051 L57.2089898,96.7446809 C57.7071759,97.2621396 58.1530993,97.8290006 58.5398542,98.4378235 L58.2838279,98.6004643 C57.9079715,98.0087977 57.4746227,97.4579216 56.9904813,96.955051 Z M59.7674808,101.247455 L60.0330361,101.100888 L61.0590048,102.959776 L60.7934495,103.106343 L59.7674808,101.247455 Z M62.2591191,105.761897 L62.5246744,105.61533 L63.5506431,107.474217 L63.2850878,107.620784 L62.2591191,105.761897 Z M64.7507573,110.276338 L65.0163127,110.129771 L66.0422814,111.988659 L65.776726,112.135226 L64.7507573,110.276338 Z M67.2423956,114.790779 L67.507951,114.644212 L68.5339197,116.5031 L68.2683643,116.649667 L67.2423956,114.790779 Z" id="Shape" fill="#A587FF" fill-rule="nonzero"></path>
                </g>
                <g id="Women-Copy" transform="translate(0.000000, 69.459716)">
                    <path d="M38.9971546,188.719013 C40.5853862,188.247543 42.4152185,188.152308 44.4866515,188.43331 C47.5938472,188.854766 51.1486276,189.577638 50.0468345,191.337594 C48.9449486,193.09755 43.8915368,193.171008 41.387965,192.787185 C38.8843931,192.403362 38.5925244,192.624203 36.2057527,192.787185 C33.818981,192.950167 33.3990993,192.800619 33.3990993,191.445102 C33.3990993,190.089607 33.3990993,188.411444 33.3990993,187.663959 C33.3990993,186.916474 33.5110469,186.265494 35.2517412,186.898938 C36.4122044,187.321204 37.6606755,187.927895 38.9971546,188.719013 Z" id="Shape" fill="#0737A3" fill-rule="nonzero"></path>
                    <path d="M33.4100146,180.760939 L39.9701381,180.760939 L39.9701381,187.524402 L43.8177717,188.354182 C41.0346647,189.650352 37.8423082,189.750899 34.9831498,188.632438 L33.4100146,188.017051 L33.4100146,180.760939 Z" id="Shape" fill="#F4B696"></path>
                    <path d="M6.37135767,184.623986 C8.02505956,184.724156 9.77711155,185.260505 11.6275136,186.233032 C14.4031761,187.691794 17.4963401,189.586879 15.859053,190.863861 C14.2216786,192.140811 9.44790054,190.481471 7.22658776,189.264523 C5.00527498,188.047575 4.65547608,188.155273 2.35690116,187.492102 C0.058326245,186.828931 -0.285075131,186.544798 0.178561027,185.271036 C0.642167589,183.997287 1.21606161,182.420304 1.47178804,181.717924 C1.72751447,181.015543 2.0552556,180.442074 3.47432257,181.632669 C4.42037789,182.42637 5.38605626,183.423476 6.37135767,184.623986 Z" id="Shape" fill="#0737A3" fill-rule="nonzero"></path>
                    <polygon id="Shape" fill="#FFFFFF" points="51.5198749 43.3445747 67.2626127 53.2175837 57.1535784 74.6049607 42.6425505 63.9112722"></polygon>
                    <path d="M3.84298504,175.234929 L10.0074846,177.478623 L7.69424403,183.834199 L11.0260355,185.929906 C7.96745419,186.196028 4.93323134,185.198661 2.6290374,183.169762 L1.36124873,182.053443 L3.84298504,175.234929 Z" id="Shape" fill="#F4B696"></path>
                    <polygon id="Shape" fill="#211D41" points="23.4104071 79.1584193 35.432602 103.43128 25.8081819 150.628606 9.41261583 181.690553 1.30902265 179.248973 11.4454242 148.198457 19.5481269 91.8048348"></polygon>
                    <path d="M58.0171667,70.0897124 C58.7794936,69.0694131 59.0457822,67.8046213 58.8160326,66.2953368 C58.586283,64.7860524 58.7944273,63.604326 59.4404655,62.7501577 L61.3811773,65.5915579 L64.0878581,59.7535545 C64.9642977,63.4100198 64.9642977,65.9764669 64.0878581,67.4528959 C63.2114184,68.9293248 61.6622875,70.9085466 59.4404655,73.3905611 L58.0171667,70.0897124 Z" id="Shape" fill="#F4B696"></path>
                    <path d="M41.0441969,185.286331 L31.605856,185.286331 L27.7169502,122.4736 L22.2331086,108.541264 C20.1991588,103.373778 19.3746071,97.8093977 19.8225812,92.2741308 C20.1449359,88.2910443 20.3061133,84.2532347 20.3061133,80.1607018 C20.3061133,62.5113903 47.6299652,73.8742875 47.6299652,80.1607018 C47.6299652,84.3516447 45.4347091,119.393521 41.0441969,185.286331 Z" id="Shape" fill="url(#linearGradient-19)"></path>
                    <path d="M18.9562652,94.5545633 C19.3317264,90.6149633 19.7816758,85.8170094 20.3061133,80.1607018 L19.1844072,50.447165 C19.0630746,47.2331155 21.5702171,44.5292541 24.7842666,44.4079216 C24.8574646,44.4051583 24.9307083,44.4037763 25.0039586,44.4037763 L40.7259922,44.4037763 C45.5840038,44.4037763 49.5222003,48.3419732 49.5222003,53.1999848 C49.5222003,53.4588324 49.5107746,53.7175538 49.4879565,53.9753936 C48.2492956,67.9720136 47.6299652,76.7004497 47.6299652,80.1607018 C47.6299652,81.478502 47.2767167,88.6574806 46.8426157,96.0758998 C36.1861135,96.5359875 31.7802026,96.0635824 18.9562652,94.5545633 Z" id="Shape" fill="url(#linearGradient-20)"></path>
                    <path d="M38.4686023,55.2556152 C42.258548,67.9098705 45.3954481,74.2369981 47.8793025,74.2369981 C47.7130777,76.9185418 47.6299652,78.8931097 47.6299652,80.1607018 C47.6299652,80.8801541 47.4888366,84.5143251 47.3594482,87.0521327 C45.4637816,84.654517 43.568115,82.2569013 41.6724484,79.8592856 C39.5974317,77.2348302 38.4686023,73.9870271 38.4686023,70.6413642 L38.4686023,55.2556152 Z" id="Shape" fill="#211D41"></path>
                    <path d="M54.7907884,12.6074284 L53.871722,14.3494515 L49.3126503,13.0819567 C52.0364053,9.11102582 51.633875,8.19239932 52.4439736,5.75205915 C53.2540722,3.31171897 54.7907884,1.83614657 57.0629966,0.768170417 C58.577802,0.0561863125 59.4457528,-0.16086722 59.6668489,0.117009819 L56.7493722,3.97674892 L57.9887156,5.07539234 C59.7847881,6.89496245 58.3231529,8.60414942 57.0629966,9.1673975 C56.2228924,9.54289622 55.4654896,10.6895732 54.7907884,12.6074284 Z" id="Shape" fill="#F4B696"></path>
                    <polygon id="Shape" fill="#FF6A6F" points="44.27937 40.084016 37.1983499 28.0232886 49.8892239 10.0094787 55.4111163 12.0521021"></polygon>
                    <path d="M44.1447873,46.9826487 C47.6980208,46.2792618 49.4746376,48.9787899 49.4746376,55.0812331 C49.4746376,61.1836763 49.5917321,66.3653502 49.8259212,70.6262548 L52.3535171,73.3963003 L58.1292972,68.6603055 L61.9645637,71.5829384 L54.0635324,82.4232202 C52.6426916,84.3726257 49.9105673,84.8011121 47.9611618,83.3802714 C47.5996164,83.1167559 47.2807032,82.7992574 47.015583,82.4388871 L41.7577723,75.2920951 C40.4915028,73.5708911 39.7231266,71.534514 39.5367414,69.4058425 L38.0635892,52.5812385 C38.0042312,50.3505706 38.7572791,48.8657186 40.322733,48.1266825 C41.888187,47.3876463 43.1622051,47.0063017 44.1447873,46.9826487 Z" id="Shape" fill="url(#linearGradient-21)"></path>
                    <path d="M22.9135248,68.7009942 C20.3244062,67.9076477 18.2737756,64.8918261 16.7616331,59.6535292 C14.4934193,51.7960838 18.2559476,48.2300685 21.1388238,45.214593 C23.0607412,43.2042761 24.150278,40.05899 24.4074341,35.7787349 L24.4074341,24.8032604 C24.4074341,19.5767097 28.6443905,15.3397533 33.8709412,15.3397533 L35.7719478,15.3397533 C40.9984984,15.3397533 45.2354549,19.5767097 45.2354549,24.8032604 L45.2354549,35.7787349 C45.2354549,44.1622473 41.7338644,47.6477959 38.9952333,48.2300685 C36.2566023,48.8123411 35.4531246,50.156016 34.5673948,58.3187501 C33.9769083,63.7605728 30.092285,67.2213209 22.9135248,68.7009942 Z" id="Shape" fill="url(#linearGradient-22)"></path>
                    <path d="M36.3510226,182.283889 L36.3510226,180.160666 L36.6543402,180.160666 L36.6543402,182.283889 L36.3510226,182.283889 Z M36.3510226,177.127491 L36.3510226,175.004268 L36.6543402,175.004268 L36.6543402,177.127491 L36.3510226,177.127491 Z M36.3510226,171.971092 L36.3510226,169.84787 L36.6543402,169.84787 L36.6543402,171.971092 L36.3510226,171.971092 Z M36.3510226,166.814694 L36.3510226,164.691472 L36.6543402,164.691472 L36.6543402,166.814694 L36.3510226,166.814694 Z M36.3510226,161.658296 L36.3510226,159.535074 L36.6543402,159.535074 L36.6543402,161.658296 L36.3510226,161.658296 Z M36.3510226,156.501898 L36.3510226,154.378675 L36.6543402,154.378675 L36.6543402,156.501898 L36.3510226,156.501898 Z M36.3510226,151.3455 L36.3510226,149.222277 L36.6543402,149.222277 L36.6543402,151.3455 L36.3510226,151.3455 Z M36.3510226,146.189102 L36.3510226,144.065879 L36.6543402,144.065879 L36.6543402,146.189102 L36.3510226,146.189102 Z M36.3510226,141.032704 L36.3510226,138.909481 L36.6543402,138.909481 L36.6543402,141.032704 L36.3510226,141.032704 Z M36.3510226,135.876306 L36.3510226,133.753083 L36.6543402,133.753083 L36.6543402,135.876306 L36.3510226,135.876306 Z M36.3510226,130.719908 L36.3510226,128.596685 L36.6543402,128.596685 L36.6543402,130.719908 L36.3510226,130.719908 Z M36.3510226,125.56351 L36.3510226,123.440287 L36.6543402,123.440287 L36.6543402,125.56351 L36.3510226,125.56351 Z M36.3510226,120.407111 L36.3510226,118.283889 L36.6543402,118.283889 L36.6543402,120.407111 L36.3510226,120.407111 Z M36.3510226,115.250713 L36.3510226,113.127491 L36.6543402,113.127491 L36.6543402,115.250713 L36.3510226,115.250713 Z M36.3510226,110.094315 L36.3510226,107.971092 L36.6543402,107.971092 L36.6543402,110.094315 L36.3510226,110.094315 Z M36.3510226,104.937917 L36.3510226,102.814694 L36.6543402,102.814694 L36.6543402,104.937917 L36.3510226,104.937917 Z" id="Shape" fill="#A587FF" fill-rule="nonzero"></path>
                </g>
            </g>
        </g>
    </g>
</svg>