<?xml version="1.0" encoding="UTF-8"?>
<svg width="384px" height="259px" viewBox="0 0 384 259" version="1.1" xmlns="http://www.w3.org/2000/svg" xmlns:xlink="http://www.w3.org/1999/xlink">
    <!-- Generator: Sketch 59.1 (86144) - https://sketch.com -->
    <title>Marketplace</title>
    <desc>Created with Sketch.</desc>
    <defs>
        <linearGradient x1="8.38174197%" y1="31.3864763%" x2="56.5702499%" y2="50%" id="linearGradient-1">
            <stop stop-color="#CFE49F" offset="0%"></stop>
            <stop stop-color="#A9D386" offset="100%"></stop>
        </linearGradient>
        <linearGradient x1="34.9800858%" y1="24.563533%" x2="66.6026215%" y2="80.4180658%" id="linearGradient-2">
            <stop stop-color="#6EAE7C" offset="0%"></stop>
            <stop stop-color="#0F575D" offset="100%"></stop>
        </linearGradient>
        <linearGradient x1="34.1151714%" y1="33.9683678%" x2="64.8333502%" y2="52.4070359%" id="linearGradient-3">
            <stop stop-color="#77D791" offset="0%"></stop>
            <stop stop-color="#4FA67E" offset="100%"></stop>
        </linearGradient>
        <linearGradient x1="50%" y1="-2.48949813e-15%" x2="50%" y2="100%" id="linearGradient-4">
            <stop stop-color="#4DBCFA" offset="0%"></stop>
            <stop stop-color="#1486DB" offset="100%"></stop>
        </linearGradient>
        <linearGradient x1="50%" y1="7.26438915%" x2="50%" y2="151.05781%" id="linearGradient-5">
            <stop stop-color="#D0F6FF" offset="0%"></stop>
            <stop stop-color="#8BE2F7" offset="100%"></stop>
        </linearGradient>
        <linearGradient x1="8.38174197%" y1="13.1425432%" x2="56.5702499%" y2="50%" id="linearGradient-6">
            <stop stop-color="#CFE49F" offset="0%"></stop>
            <stop stop-color="#A9D386" offset="100%"></stop>
        </linearGradient>
        <linearGradient x1="39.4908239%" y1="13.1381206%" x2="51.6590775%" y2="50%" id="linearGradient-7">
            <stop stop-color="#CFE49F" offset="0%"></stop>
            <stop stop-color="#A9D386" offset="100%"></stop>
        </linearGradient>
        <linearGradient x1="50%" y1="0%" x2="50%" y2="100%" id="linearGradient-8">
            <stop stop-color="#FF9485" offset="0%"></stop>
            <stop stop-color="#FF676E" offset="100%"></stop>
        </linearGradient>
        <linearGradient x1="50%" y1="0%" x2="50%" y2="100%" id="linearGradient-9">
            <stop stop-color="#FF9485" offset="0%"></stop>
            <stop stop-color="#FF676E" offset="100%"></stop>
        </linearGradient>
        <linearGradient x1="50%" y1="-2.48949813e-15%" x2="50%" y2="100%" id="linearGradient-10">
            <stop stop-color="#4DBCFA" offset="0%"></stop>
            <stop stop-color="#1486DB" offset="100%"></stop>
        </linearGradient>
        <linearGradient x1="50%" y1="-2.48949813e-15%" x2="50%" y2="100%" id="linearGradient-11">
            <stop stop-color="#4DBCFA" offset="0%"></stop>
            <stop stop-color="#1486DB" offset="100%"></stop>
        </linearGradient>
        <linearGradient x1="50%" y1="114.0151%" x2="50.3250163%" y2="25.9019529%" id="linearGradient-12">
            <stop stop-color="#2B3389" offset="0%"></stop>
            <stop stop-color="#444FB7" offset="100%"></stop>
        </linearGradient>
        <linearGradient x1="50%" y1="0%" x2="50%" y2="91.8482298%" id="linearGradient-13">
            <stop stop-color="#EAFCFF" offset="0%"></stop>
            <stop stop-color="#FFFFFF" offset="100%"></stop>
        </linearGradient>
        <linearGradient x1="50%" y1="-2.48949813e-15%" x2="50%" y2="100%" id="linearGradient-14">
            <stop stop-color="#4DBCFA" offset="0%"></stop>
            <stop stop-color="#1486DB" offset="100%"></stop>
        </linearGradient>
        <linearGradient x1="50%" y1="7.26438915%" x2="50%" y2="151.05781%" id="linearGradient-15">
            <stop stop-color="#D0F6FF" offset="0%"></stop>
            <stop stop-color="#8BE2F7" offset="100%"></stop>
        </linearGradient>
        <linearGradient x1="50%" y1="0%" x2="50%" y2="100%" id="linearGradient-16">
            <stop stop-color="#FF9485" offset="0%"></stop>
            <stop stop-color="#FF676E" offset="100%"></stop>
        </linearGradient>
        <linearGradient x1="50%" y1="-27.3641552%" x2="50%" y2="100%" id="linearGradient-17">
            <stop stop-color="#C0E4FD" offset="0%"></stop>
            <stop stop-color="#72B9FE" offset="100%"></stop>
        </linearGradient>
        <linearGradient x1="50%" y1="0%" x2="50%" y2="100%" id="linearGradient-18">
            <stop stop-color="#1D2A78" offset="0%"></stop>
            <stop stop-color="#12033B" offset="100%"></stop>
        </linearGradient>
        <linearGradient x1="50%" y1="0%" x2="50%" y2="100%" id="linearGradient-19">
            <stop stop-color="#1D2A78" offset="0%"></stop>
            <stop stop-color="#12033B" offset="100%"></stop>
        </linearGradient>
        <linearGradient x1="50%" y1="0%" x2="81.733968%" y2="89.3678428%" id="linearGradient-20">
            <stop stop-color="#0F1752" offset="0%"></stop>
            <stop stop-color="#272884" offset="100%"></stop>
        </linearGradient>
        <linearGradient x1="50%" y1="0%" x2="50%" y2="100%" id="linearGradient-21">
            <stop stop-color="#1D2A78" offset="0%"></stop>
            <stop stop-color="#12033B" offset="100%"></stop>
        </linearGradient>
        <linearGradient x1="50%" y1="-27.3641552%" x2="50%" y2="100%" id="linearGradient-22">
            <stop stop-color="#C0E4FD" offset="0%"></stop>
            <stop stop-color="#72B9FE" offset="100%"></stop>
        </linearGradient>
        <linearGradient x1="82.5767258%" y1="-52.951376%" x2="82.5767258%" y2="186.664812%" id="linearGradient-23">
            <stop stop-color="#1533B6" offset="0%"></stop>
            <stop stop-color="#356BE9" offset="100%"></stop>
        </linearGradient>
        <linearGradient x1="50%" y1="0%" x2="50%" y2="100%" id="linearGradient-24">
            <stop stop-color="#FF9485" offset="0%"></stop>
            <stop stop-color="#FF676E" offset="100%"></stop>
        </linearGradient>
        <linearGradient x1="50%" y1="0%" x2="50%" y2="100%" id="linearGradient-25">
            <stop stop-color="#1D2A78" offset="0%"></stop>
            <stop stop-color="#12033B" offset="100%"></stop>
        </linearGradient>
    </defs>
    <g id="Style-1" stroke="none" stroke-width="1" fill="none" fill-rule="evenodd">
        <g id="7" transform="translate(-15.000000, -165.000000)">
            <g id="Marketplace" transform="translate(15.000000, 165.000000)">
                <g id="Plant-Copy" transform="translate(313.043250, 23.711835)">
                    <path d="M13.0079572,54.2912572 C20.8982602,23.6290139 40.073842,12.8525262 70.5347027,21.9617942 C67.942981,35.8266016 61.774674,46.5104227 52.0297817,54.0132576 C42.2848894,61.5160924 29.2776146,61.608759 13.0079572,54.2912572 Z" id="Shape" fill="url(#linearGradient-1)"></path>
                    <path d="M36.9509371,41.1288684 C32.979203,43.3741733 29.5124274,45.3437414 26.5506815,47.0375308 L35.1834938,50.1901634 C35.3543421,50.2525558 35.442263,50.4416348 35.3798706,50.6124832 C35.3174782,50.7833315 35.1283992,50.8712524 34.9575508,50.80886 L25.8437762,47.480584 C25.8305578,47.4757567 25.8178358,47.4701711 25.8056413,47.4638942 C21.1720008,50.1173975 17.8494983,52.0549345 15.8384317,53.2763296 C15.6829725,53.3707458 15.4804085,53.3212606 15.3859924,53.1658014 C15.2915762,53.0103421 15.3410614,52.8077781 15.4965206,52.713362 C18.8574938,50.6721186 25.8665274,46.6389453 36.5250059,40.6130276 L37.6038836,30.0398501 C37.6484583,29.6030104 38.303718,29.6698725 38.2591432,30.1067122 L37.2276105,40.215901 C45.2219629,35.6984569 55.2094171,30.092698 67.1905316,23.3982954 C67.3493118,23.3095776 67.5499485,23.3663743 67.6386663,23.5251544 C67.7273841,23.6839346 67.6705873,23.8845713 67.5118072,23.9732891 C60.9499997,27.6396743 54.9861955,30.9795221 49.6204864,33.9927785 L58.8999208,36.2068398 C59.0768391,36.2490523 59.1860397,36.4266929 59.1438273,36.6036112 C59.1016148,36.7805295 58.9239742,36.8897301 58.7470559,36.8475176 L48.7743302,34.4680379 C44.4751213,36.8831689 40.569097,39.0836003 37.0563063,41.0693032 C37.0252104,41.0962957 36.9892655,41.1160669 36.9509371,41.1288684 L36.9509371,41.1288684 Z" id="Shape" fill="#FFFFFF" fill-rule="nonzero"></path>
                    <path d="M16.5628817,63.5379344 C0.460688212,36.2771674 6.39974464,15.097856 34.380051,5.68434189e-14 C42.3513263,11.6365233 45.544277,23.5527774 43.958903,35.7487622 C42.3735289,47.944747 33.2415218,57.2078044 16.5628817,63.5379344 Z" id="Shape" fill="url(#linearGradient-2)"></path>
                    <path d="M23.5199774,37.2369008 L16.8064936,28.9976536 C16.5291204,28.6572421 17.0397376,28.2411823 17.3171108,28.5815937 L23.735983,36.4592734 C26.1945284,27.6120973 29.2928548,16.5860306 33.0311247,3.38044576 C33.0806662,3.20543829 33.2626992,3.10372808 33.4377066,3.15326962 C33.6127141,3.20281117 33.7144243,3.38484411 33.6648828,3.55985157 C31.61751,10.792276 29.7620927,17.3709514 28.0986574,23.2957747 L36.2257862,18.2998015 C36.380735,18.2045501 36.5835624,18.2529445 36.6788138,18.4078933 C36.7740652,18.5628422 36.7256708,18.7656696 36.570722,18.860921 L27.8363938,24.2301566 C26.5041495,28.9779119 25.2981132,33.2958281 24.2182991,37.1838503 C24.2153975,37.224925 24.203961,37.2643223 24.1859107,37.3004765 C22.9651409,41.6965869 21.9064554,45.5406625 21.0098747,48.8326231 L29.3434427,44.9575508 C29.5083688,44.8808609 29.7042374,44.9523904 29.7809273,45.1173166 C29.8576172,45.2822427 29.7860876,45.4781112 29.6211615,45.5548012 L20.8233031,49.6457664 C20.8105429,49.6516999 20.7975974,49.6567461 20.7845363,49.6609305 C19.3843678,54.8137193 18.4050492,58.5331289 17.8466673,60.8188244 C17.8035033,60.995513 17.6252776,61.1037561 17.448589,61.0605921 C17.2719005,61.0174281 17.1636574,60.8392024 17.2068214,60.6625139 C18.1400112,56.8425699 20.2442622,49.0345506 23.5199774,37.2369008 Z" id="Shape" fill="#FFFFFF" fill-rule="nonzero"></path>
                    <path d="M-1.13686838e-13,74.8649806 C15.5574199,47.2896885 36.8687699,41.8434065 63.9340499,58.5261346 C57.8421628,71.2477232 49.1188594,79.9710266 37.7641397,84.6960448 C26.4094199,89.4210631 13.8213734,86.1440416 -1.13686838e-13,74.8649806 Z" id="Shape" fill="url(#linearGradient-3)" fill-rule="nonzero"></path>
                    <path d="M26.255911,67.7394854 L30.0345665,57.8058143 C30.1906849,57.3953963 30.8063119,57.6295738 30.6501936,58.0399918 L27.0373589,67.537738 C35.9285109,65.2433127 47.026528,62.4135088 60.3320348,59.048153 C60.5083665,59.0035535 60.6874666,59.1103436 60.7320661,59.2866752 C60.7766656,59.4630069 60.6698756,59.642107 60.4935439,59.6867065 C53.2063943,61.5298419 46.5813855,63.2123411 40.6186204,64.7341755 L49.0088245,69.2744889 C49.1687891,69.3610528 49.228292,69.5609037 49.141728,69.7208682 C49.0551641,69.8808328 48.8553133,69.9403357 48.6953487,69.8537718 L39.6782901,64.9742395 C34.9004913,66.1943598 30.558048,67.3088598 26.651015,68.3177244 C26.6139924,68.335749 26.5741552,68.3455433 26.5338195,68.3479884 C22.1162913,69.488826 18.2578815,70.4940151 14.9586697,71.3635338 L22.4813647,76.6430793 C22.6302432,76.7475645 22.666231,76.9529564 22.5617457,77.1018349 C22.4572605,77.2507134 22.2518686,77.2867012 22.1029901,77.182216 L14.161181,71.6085298 C14.1496624,71.6004458 14.1388195,71.5917578 14.1286652,71.5825387 C8.96613493,72.9463516 5.25537245,73.9579417 2.99671103,74.6172165 C2.82211226,74.6681797 2.63925817,74.5679532 2.58829499,74.3933544 C2.5373318,74.2187557 2.63755825,74.0359016 2.81215702,73.9849384 C6.58692043,72.8831325 14.4009891,70.8014577 26.255911,67.7394854 Z" id="Shape" fill="#FFFFFF" fill-rule="nonzero"></path>
                </g>
                <g id="Bag-Copy" transform="translate(264.960917, 41.825043)">
                    <path d="M7.80315434,26.0171527 L68.2723174,26.0171527 C68.9592788,26.0171527 69.5309144,26.5450514 69.5854794,27.2298424 L76.0754717,108.679245 L0,108.679245 L6.48999226,27.2298424 C6.54455728,26.5450514 7.1161929,26.0171527 7.80315434,26.0171527 Z" id="Shape" fill="url(#linearGradient-4)"></path>
                    <path d="M7.79883481,26.0171527 L68.2686672,26.0171527 C68.9571412,26.0171527 69.5295009,26.547306 69.5821359,27.2337651 L70.1123926,34.1493023 L5.90961895,34.1493023 L6.48605194,27.2251876 C6.54289551,26.5423824 7.11366764,26.0171527 7.79883481,26.0171527 Z" id="Shape" fill="#0F55BE"></path>
                    <path d="M25.3584906,37.8730703 C25.3584906,38.7824929 24.6212579,39.5197256 23.7118353,39.5197256 C22.8024128,39.5197256 22.0651801,38.7824929 22.0651801,37.8730703 L22.0651801,16.1372213 C22.0651801,7.22488006 29.2900602,0 38.2024014,0 C47.1147426,0 54.3396226,7.22488006 54.3396226,16.1372213 L54.3396226,37.8730703 C54.3396226,38.7824929 53.60239,39.5197256 52.6929674,39.5197256 C51.7835448,39.5197256 51.0463122,38.7824929 51.0463122,37.8730703 L51.0463122,16.1372213 C51.0463122,9.0437252 45.2958974,3.29331046 38.2024014,3.29331046 C31.1089053,3.29331046 25.3584906,9.0437252 25.3584906,16.1372213 L25.3584906,37.8730703 Z" id="Shape" fill="#211D41" fill-rule="nonzero"></path>
                </g>
                <g id="Ornament-Copy" transform="translate(73.948910, 41.166381)">
                    <circle id="Shape" fill="url(#linearGradient-5)" cx="105.385935" cy="105.385935" r="105.385935"></circle>
                    <path d="M170.922813,90.2367067 L212.747856,90.2367067 C220.932659,90.2367067 227.567753,96.8718006 227.567753,105.056604 L185.74271,105.056604 C177.557907,105.056604 170.922813,98.4215098 170.922813,90.2367067 Z" id="Shape" fill="#FFFFFF"></path>
                    <path d="M263.075441,183.628207 C263.075441,184.430053 262.425377,185.080077 261.623484,185.080077 C260.82159,185.080077 260.171527,184.430053 260.171527,183.628207 C260.171527,182.826361 260.82159,182.176337 261.623484,182.176337 C262.425377,182.176337 263.075441,182.826361 263.075441,183.628207 Z M263.075441,177.820727 C263.075441,178.622573 262.425377,179.272597 261.623484,179.272597 C260.82159,179.272597 260.171527,178.622573 260.171527,177.820727 C260.171527,177.018881 260.82159,176.368857 261.623484,176.368857 C262.425377,176.368857 263.075441,177.018881 263.075441,177.820727 Z M263.075441,172.013247 C263.075441,172.815092 262.425377,173.465117 261.623484,173.465117 C260.82159,173.465117 260.171527,172.815092 260.171527,172.013247 C260.171527,171.211401 260.82159,170.561377 261.623484,170.561377 C262.425377,170.561377 263.075441,171.211401 263.075441,172.013247 Z M263.075441,166.205767 C263.075441,167.007612 262.425377,167.657637 261.623484,167.657637 C260.82159,167.657637 260.171527,167.007612 260.171527,166.205767 C260.171527,165.403921 260.82159,164.753897 261.623484,164.753897 C262.425377,164.753897 263.075441,165.403921 263.075441,166.205767 Z M263.075441,160.398287 C263.075441,161.200132 262.425377,161.850157 261.623484,161.850157 C260.82159,161.850157 260.171527,161.200132 260.171527,160.398287 C260.171527,159.596441 260.82159,158.946417 261.623484,158.946417 C262.425377,158.946417 263.075441,159.596441 263.075441,160.398287 Z M263.075441,154.590807 C263.075441,155.392652 262.425377,156.042677 261.623484,156.042677 C260.82159,156.042677 260.171527,155.392652 260.171527,154.590807 C260.171527,153.788961 260.82159,153.138937 261.623484,153.138937 C262.425377,153.138937 263.075441,153.788961 263.075441,154.590807 Z M268.883269,183.628207 C268.883269,184.430053 268.233206,185.080077 267.431312,185.080077 C266.629418,185.080077 265.979355,184.430053 265.979355,183.628207 C265.979355,182.826361 266.629418,182.176337 267.431312,182.176337 C268.233206,182.176337 268.883269,182.826361 268.883269,183.628207 Z M268.883269,177.820727 C268.883269,178.622573 268.233206,179.272597 267.431312,179.272597 C266.629418,179.272597 265.979355,178.622573 265.979355,177.820727 C265.979355,177.018881 266.629418,176.368857 267.431312,176.368857 C268.233206,176.368857 268.883269,177.018881 268.883269,177.820727 Z M268.883269,172.013247 C268.883269,172.815092 268.233206,173.465117 267.431312,173.465117 C266.629418,173.465117 265.979355,172.815092 265.979355,172.013247 C265.979355,171.211401 266.629418,170.561377 267.431312,170.561377 C268.233206,170.561377 268.883269,171.211401 268.883269,172.013247 Z M268.883269,166.205767 C268.883269,167.007612 268.233206,167.657637 267.431312,167.657637 C266.629418,167.657637 265.979355,167.007612 265.979355,166.205767 C265.979355,165.403921 266.629418,164.753897 267.431312,164.753897 C268.233206,164.753897 268.883269,165.403921 268.883269,166.205767 Z M268.883269,160.398287 C268.883269,161.200132 268.233206,161.850157 267.431312,161.850157 C266.629418,161.850157 265.979355,161.200132 265.979355,160.398287 C265.979355,159.596441 266.629418,158.946417 267.431312,158.946417 C268.233206,158.946417 268.883269,159.596441 268.883269,160.398287 Z M268.883269,154.590807 C268.883269,155.392652 268.233206,156.042677 267.431312,156.042677 C266.629418,156.042677 265.979355,155.392652 265.979355,154.590807 C265.979355,153.788961 266.629418,153.138937 267.431312,153.138937 C268.233206,153.138937 268.883269,153.788961 268.883269,154.590807 Z M274.691098,183.628207 C274.691098,184.430053 274.041034,185.080077 273.239141,185.080077 C272.437247,185.080077 271.787184,184.430053 271.787184,183.628207 C271.787184,182.826361 272.437247,182.176337 273.239141,182.176337 C274.041034,182.176337 274.691098,182.826361 274.691098,183.628207 Z M274.691098,177.820727 C274.691098,178.622573 274.041034,179.272597 273.239141,179.272597 C272.437247,179.272597 271.787184,178.622573 271.787184,177.820727 C271.787184,177.018881 272.437247,176.368857 273.239141,176.368857 C274.041034,176.368857 274.691098,177.018881 274.691098,177.820727 Z M274.691098,172.013247 C274.691098,172.815092 274.041034,173.465117 273.239141,173.465117 C272.437247,173.465117 271.787184,172.815092 271.787184,172.013247 C271.787184,171.211401 272.437247,170.561377 273.239141,170.561377 C274.041034,170.561377 274.691098,171.211401 274.691098,172.013247 Z M274.691098,166.205767 C274.691098,167.007612 274.041034,167.657637 273.239141,167.657637 C272.437247,167.657637 271.787184,167.007612 271.787184,166.205767 C271.787184,165.403921 272.437247,164.753897 273.239141,164.753897 C274.041034,164.753897 274.691098,165.403921 274.691098,166.205767 Z M274.691098,160.398287 C274.691098,161.200132 274.041034,161.850157 273.239141,161.850157 C272.437247,161.850157 271.787184,161.200132 271.787184,160.398287 C271.787184,159.596441 272.437247,158.946417 273.239141,158.946417 C274.041034,158.946417 274.691098,159.596441 274.691098,160.398287 Z M274.691098,154.590807 C274.691098,155.392652 274.041034,156.042677 273.239141,156.042677 C272.437247,156.042677 271.787184,155.392652 271.787184,154.590807 C271.787184,153.788961 272.437247,153.138937 273.239141,153.138937 C274.041034,153.138937 274.691098,153.788961 274.691098,154.590807 Z M280.498926,183.628207 C280.498926,184.430053 279.848863,185.080077 279.046969,185.080077 C278.245075,185.080077 277.595012,184.430053 277.595012,183.628207 C277.595012,182.826361 278.245075,182.176337 279.046969,182.176337 C279.848863,182.176337 280.498926,182.826361 280.498926,183.628207 Z M280.498926,177.820727 C280.498926,178.622573 279.848863,179.272597 279.046969,179.272597 C278.245075,179.272597 277.595012,178.622573 277.595012,177.820727 C277.595012,177.018881 278.245075,176.368857 279.046969,176.368857 C279.848863,176.368857 280.498926,177.018881 280.498926,177.820727 Z M280.498926,172.013247 C280.498926,172.815092 279.848863,173.465117 279.046969,173.465117 C278.245075,173.465117 277.595012,172.815092 277.595012,172.013247 C277.595012,171.211401 278.245075,170.561377 279.046969,170.561377 C279.848863,170.561377 280.498926,171.211401 280.498926,172.013247 Z M280.498926,166.205767 C280.498926,167.007612 279.848863,167.657637 279.046969,167.657637 C278.245075,167.657637 277.595012,167.007612 277.595012,166.205767 C277.595012,165.403921 278.245075,164.753897 279.046969,164.753897 C279.848863,164.753897 280.498926,165.403921 280.498926,166.205767 Z M280.498926,160.398287 C280.498926,161.200132 279.848863,161.850157 279.046969,161.850157 C278.245075,161.850157 277.595012,161.200132 277.595012,160.398287 C277.595012,159.596441 278.245075,158.946417 279.046969,158.946417 C279.848863,158.946417 280.498926,159.596441 280.498926,160.398287 Z M280.498926,154.590807 C280.498926,155.392652 279.848863,156.042677 279.046969,156.042677 C278.245075,156.042677 277.595012,155.392652 277.595012,154.590807 C277.595012,153.788961 278.245075,153.138937 279.046969,153.138937 C279.848863,153.138937 280.498926,153.788961 280.498926,154.590807 Z M286.306755,183.628207 C286.306755,184.430053 285.656691,185.080077 284.854798,185.080077 C284.052904,185.080077 283.402841,184.430053 283.402841,183.628207 C283.402841,182.826361 284.052904,182.176337 284.854798,182.176337 C285.656691,182.176337 286.306755,182.826361 286.306755,183.628207 Z M286.306755,177.820727 C286.306755,178.622573 285.656691,179.272597 284.854798,179.272597 C284.052904,179.272597 283.402841,178.622573 283.402841,177.820727 C283.402841,177.018881 284.052904,176.368857 284.854798,176.368857 C285.656691,176.368857 286.306755,177.018881 286.306755,177.820727 Z M286.306755,172.013247 C286.306755,172.815092 285.656691,173.465117 284.854798,173.465117 C284.052904,173.465117 283.402841,172.815092 283.402841,172.013247 C283.402841,171.211401 284.052904,170.561377 284.854798,170.561377 C285.656691,170.561377 286.306755,171.211401 286.306755,172.013247 Z M286.306755,166.205767 C286.306755,167.007612 285.656691,167.657637 284.854798,167.657637 C284.052904,167.657637 283.402841,167.007612 283.402841,166.205767 C283.402841,165.403921 284.052904,164.753897 284.854798,164.753897 C285.656691,164.753897 286.306755,165.403921 286.306755,166.205767 Z M286.306755,160.398287 C286.306755,161.200132 285.656691,161.850157 284.854798,161.850157 C284.052904,161.850157 283.402841,161.200132 283.402841,160.398287 C283.402841,159.596441 284.052904,158.946417 284.854798,158.946417 C285.656691,158.946417 286.306755,159.596441 286.306755,160.398287 Z M286.306755,154.590807 C286.306755,155.392652 285.656691,156.042677 284.854798,156.042677 C284.052904,156.042677 283.402841,155.392652 283.402841,154.590807 C283.402841,153.788961 284.052904,153.138937 284.854798,153.138937 C285.656691,153.138937 286.306755,153.788961 286.306755,154.590807 Z M292.114583,183.628207 C292.114583,184.430053 291.46452,185.080077 290.662626,185.080077 C289.860732,185.080077 289.210669,184.430053 289.210669,183.628207 C289.210669,182.826361 289.860732,182.176337 290.662626,182.176337 C291.46452,182.176337 292.114583,182.826361 292.114583,183.628207 Z M292.114583,177.820727 C292.114583,178.622573 291.46452,179.272597 290.662626,179.272597 C289.860732,179.272597 289.210669,178.622573 289.210669,177.820727 C289.210669,177.018881 289.860732,176.368857 290.662626,176.368857 C291.46452,176.368857 292.114583,177.018881 292.114583,177.820727 Z M292.114583,172.013247 C292.114583,172.815092 291.46452,173.465117 290.662626,173.465117 C289.860732,173.465117 289.210669,172.815092 289.210669,172.013247 C289.210669,171.211401 289.860732,170.561377 290.662626,170.561377 C291.46452,170.561377 292.114583,171.211401 292.114583,172.013247 Z M292.114583,166.205767 C292.114583,167.007612 291.46452,167.657637 290.662626,167.657637 C289.860732,167.657637 289.210669,167.007612 289.210669,166.205767 C289.210669,165.403921 289.860732,164.753897 290.662626,164.753897 C291.46452,164.753897 292.114583,165.403921 292.114583,166.205767 Z M292.114583,160.398287 C292.114583,161.200132 291.46452,161.850157 290.662626,161.850157 C289.860732,161.850157 289.210669,161.200132 289.210669,160.398287 C289.210669,159.596441 289.860732,158.946417 290.662626,158.946417 C291.46452,158.946417 292.114583,159.596441 292.114583,160.398287 Z M292.114583,154.590807 C292.114583,155.392652 291.46452,156.042677 290.662626,156.042677 C289.860732,156.042677 289.210669,155.392652 289.210669,154.590807 C289.210669,153.788961 289.860732,153.138937 290.662626,153.138937 C291.46452,153.138937 292.114583,153.788961 292.114583,154.590807 Z" id="Shape" fill="url(#linearGradient-6)"></path>
                    <path d="M280.0471,236.904733 C280.0471,207.700407 280.0471,170.77831 280.0471,151.705901 C256.402113,151.705901 237.234064,170.77831 237.234064,194.305317 C237.234064,217.832325 256.402113,236.904733 280.0471,236.904733 Z" id="Shape" fill="url(#linearGradient-7)" transform="translate(258.640582, 194.305317) rotate(-270.000000) translate(-258.640582, -194.305317) "></path>
                </g>
                <g id="Package-Copy" transform="translate(224.453199, 146.222985)">
                    <polygon id="Shape" fill="url(#linearGradient-8)" points="3.29331046 2.55795385e-13 108.349914 2.55795385e-13 108.349914 110.655232 3.29331046 110.655232"></polygon>
                    <polygon id="Shape" fill="#D64F53" points="3.29331046 -1.70530257e-13 108.349914 -1.70530257e-13 108.349914 21.5862894 3.29331046 21.5862894"></polygon>
                    <polygon id="Shape" fill="url(#linearGradient-9)" points="0 1.31450406e-13 114.936535 1.31450406e-13 114.936535 15.1492281 0 15.1492281"></polygon>
                </g>
                <g id="Package-Copy-2" transform="translate(150.024382, 179.156089)">
                    <polygon id="Shape" fill="url(#linearGradient-10)" points="3.29331046 0 108.349914 0 108.349914 77.7221269 3.29331046 77.7221269"></polygon>
                    <polygon id="Shape" fill="#0F55BE" points="3.29331046 -1.63424829e-13 108.349914 -1.63424829e-13 108.349914 21.5862894 3.29331046 21.5862894"></polygon>
                    <polygon id="Shape" fill="url(#linearGradient-11)" points="0 1.31450406e-13 114.936535 1.31450406e-13 114.936535 15.1492281 0 15.1492281"></polygon>
                </g>
                <g id="Gadget-Copy" transform="translate(27.599966, 0.000000)">
                    <path d="M11.8559177,1.70530257e-13 L139.661968,1.70530257e-13 C146.20981,1.70530257e-13 151.517885,5.30807514 151.517885,11.8559177 L151.517885,245.142391 C151.517885,251.690234 146.20981,256.998309 139.661968,256.998309 L11.8559177,256.998309 C5.30807514,256.998309 2.84217094e-14,251.690234 2.84217094e-14,245.142391 L2.84217094e-14,11.8559177 C2.84217094e-14,5.30807514 5.30807514,1.70530257e-13 11.8559177,1.70530257e-13 Z" id="Shape" fill="url(#linearGradient-12)"></path>
                    <polygon id="Shape" fill="url(#linearGradient-13)" points="144.931264 15.8152805 144.931264 229.321568 6.58662093 229.321568 6.58662093 15.8152805"></polygon>
                    <path d="M23.9544329,79.3687822 L131.975016,79.3687822 C133.793861,79.3687822 135.268327,80.8432475 135.268327,82.6620926 L135.268327,115.265866 C135.268327,117.084711 133.793861,118.559177 131.975016,118.559177 L23.9544329,118.559177 C22.1355878,118.559177 20.6611225,117.084711 20.6611225,115.265866 L20.6611225,82.6620926 C20.6611225,80.8432475 22.1355878,79.3687822 23.9544329,79.3687822 Z" id="Shape" fill="url(#linearGradient-14)"></path>
                    <path d="M113.861809,106.209262 L106.699499,109.974711 L108.067378,101.999363 L102.272948,96.3511891 L110.280654,95.1876014 L113.861809,87.9313894 L117.442963,95.1876014 L125.450669,96.3511891 L119.656239,101.999363 L121.024118,109.974711 L113.861809,106.209262 Z M27.2477434,87.2727273 L56.393541,87.2727273 L56.393541,90.5660377 L27.2477434,90.5660377 L27.2477434,87.2727273 Z M27.2477434,103.73928 L89.1619801,103.73928 L89.1619801,107.03259 L27.2477434,107.03259 L27.2477434,103.73928 Z M27.2477434,95.5060034 L89.1619801,95.5060034 L89.1619801,98.7993139 L27.2477434,98.7993139 L27.2477434,95.5060034 Z" id="Shape" fill="#FFFFFF"></path>
                    <path d="M23.9544329,135.025729 L131.975016,135.025729 C133.793861,135.025729 135.268327,136.500194 135.268327,138.319039 L135.268327,209.454545 C135.268327,211.273391 133.793861,212.747856 131.975016,212.747856 L23.9544329,212.747856 C22.1355878,212.747856 20.6611225,211.273391 20.6611225,209.454545 L20.6611225,138.319039 C20.6611225,136.500194 22.1355878,135.025729 23.9544329,135.025729 Z" id="Shape" fill="url(#linearGradient-15)"></path>
                    <path d="M103.652546,143.259005 L127.364381,143.259005 C128.09192,143.259005 128.681706,143.848791 128.681706,144.576329 L128.681706,168.288165 C128.681706,169.015703 128.09192,169.605489 127.364381,169.605489 L103.652546,169.605489 C102.925008,169.605489 102.335222,169.015703 102.335222,168.288165 L102.335222,144.576329 C102.335222,143.848791 102.925008,143.259005 103.652546,143.259005 Z M27.9064055,143.259005 L52.935565,143.259005 C53.299334,143.259005 53.5942271,143.553898 53.5942271,143.917667 L53.5942271,147.540309 C53.5942271,147.904078 53.299334,148.198971 52.935565,148.198971 L27.9064055,148.198971 C27.5426365,148.198971 27.2477434,147.904078 27.2477434,147.540309 L27.2477434,143.917667 C27.2477434,143.553898 27.5426365,143.259005 27.9064055,143.259005 Z M27.9064055,178.168096 L52.935565,178.168096 C53.299334,178.168096 53.5942271,178.462989 53.5942271,178.826758 L53.5942271,182.4494 C53.5942271,182.813169 53.299334,183.108062 52.935565,183.108062 L27.9064055,183.108062 C27.5426365,183.108062 27.2477434,182.813169 27.2477434,182.4494 L27.2477434,178.826758 C27.2477434,178.462989 27.5426365,178.168096 27.9064055,178.168096 Z M27.9064055,153.138937 L89.1619801,153.138937 C89.5257491,153.138937 89.8206422,153.43383 89.8206422,153.797599 L89.8206422,157.42024 C89.8206422,157.784009 89.5257491,158.078902 89.1619801,158.078902 L27.9064055,158.078902 C27.5426365,158.078902 27.2477434,157.784009 27.2477434,157.42024 L27.2477434,153.797599 C27.2477434,153.43383 27.5426365,153.138937 27.9064055,153.138937 Z M27.9064055,188.048027 L89.1619801,188.048027 C89.5257491,188.048027 89.8206422,188.342921 89.8206422,188.70669 L89.8206422,192.329331 C89.8206422,192.6931 89.5257491,192.987993 89.1619801,192.987993 L27.9064055,192.987993 C27.5426365,192.987993 27.2477434,192.6931 27.2477434,192.329331 L27.2477434,188.70669 C27.2477434,188.342921 27.5426365,188.048027 27.9064055,188.048027 Z M27.9064055,163.018868 L89.1619801,163.018868 C89.5257491,163.018868 89.8206422,163.313761 89.8206422,163.67753 L89.8206422,167.300172 C89.8206422,167.663941 89.5257491,167.958834 89.1619801,167.958834 L27.9064055,167.958834 C27.5426365,167.958834 27.2477434,167.663941 27.2477434,167.300172 L27.2477434,163.67753 C27.2477434,163.313761 27.5426365,163.018868 27.9064055,163.018868 Z M27.9064055,197.927959 L89.1619801,197.927959 C89.5257491,197.927959 89.8206422,198.222852 89.8206422,198.586621 L89.8206422,202.209262 C89.8206422,202.573031 89.5257491,202.867925 89.1619801,202.867925 L27.9064055,202.867925 C27.5426365,202.867925 27.2477434,202.573031 27.2477434,202.209262 L27.2477434,198.586621 C27.2477434,198.222852 27.5426365,197.927959 27.9064055,197.927959 Z M103.652546,178.168096 L127.364381,178.168096 C128.09192,178.168096 128.681706,178.757882 128.681706,179.48542 L128.681706,203.197256 C128.681706,203.924794 128.09192,204.51458 127.364381,204.51458 L103.652546,204.51458 C102.925008,204.51458 102.335222,203.924794 102.335222,203.197256 L102.335222,179.48542 C102.335222,178.757882 102.925008,178.168096 103.652546,178.168096 Z" id="Shape" fill="#FFFFFF"></path>
                </g>
                <g id="Data-Copy" transform="translate(97.660746, 23.711835)">
                    <path d="M3.29331046,0 L111.313894,0 C113.132739,0 114.607204,1.47446532 114.607204,3.29331046 L114.607204,35.897084 C114.607204,37.7159292 113.132739,39.1903945 111.313894,39.1903945 L3.29331046,39.1903945 C1.47446532,39.1903945 0,37.7159292 0,35.897084 L0,3.29331046 C0,1.47446532 1.47446532,0 3.29331046,0 Z" id="Shape" fill="url(#linearGradient-16)"></path>
                    <path d="M90.5660377,31.9451115 C83.8363107,31.9451115 78.380789,26.4895898 78.380789,19.7598628 C78.380789,13.0301357 83.8363107,7.57461407 90.5660377,7.57461407 C97.2957648,7.57461407 102.751286,13.0301357 102.751286,19.7598628 C102.751286,26.4895898 97.2957648,31.9451115 90.5660377,31.9451115 Z M7.90394511,7.57461407 L37.0497427,7.57461407 L37.0497427,10.8679245 L7.90394511,10.8679245 L7.90394511,7.57461407 Z M7.90394511,24.0411664 L66.5248714,24.0411664 L66.5248714,27.3344768 L7.90394511,27.3344768 L7.90394511,24.0411664 Z M7.90394511,15.8078902 L66.5248714,15.8078902 L66.5248714,19.1012007 L7.90394511,19.1012007 L7.90394511,15.8078902 Z" id="Shape" fill="#FFFFFF"></path>
                    <path d="M93.037185,16.5585058 C93.532054,16.0251989 94.3655553,15.9940388 94.8988622,16.4889079 C95.4321691,16.983777 95.4633291,17.8172783 94.9684601,18.3505851 L90.9957293,22.6318887 C90.540944,23.1219985 89.7911323,23.1936826 89.251722,22.7986207 L86.4943575,20.7791379 C85.907405,20.3492561 85.7800739,19.5249491 86.2099556,18.9379965 C86.6398374,18.3510439 87.4641444,18.2237128 88.051097,18.6535946 L89.8622338,19.980064 L93.037185,16.5585058 Z" id="Shape" fill="#FF6A6F" fill-rule="nonzero"></path>
                </g>
                <g id="Women-Copy" transform="translate(184.043583, 46.132926)">
                    <path d="M27.1855335,15.8766797 C27.8249861,15.2759374 28.224367,14.4226057 28.224367,13.4759936 L28.224367,8.52125994 L57.9347752,26.4867273 L52.9820259,35.2118427 L27.1855335,15.8766797 L27.1855335,15.8766797 Z" id="Shape" fill="url(#linearGradient-17)"></path>
                    <path d="M11.1283839,152.17437 C12.6034283,151.81759 13.9435633,151.607866 15.1487889,151.545199 C16.9566401,151.451156 16.875337,152.090962 16.6620209,152.788942 C16.4487048,153.486921 15.9695628,155.05387 15.5826051,156.319552 C15.1956623,157.585262 14.7605188,157.604916 12.5761404,156.770677 C10.3917619,155.936437 10.1819978,155.646823 7.7323484,155.289781 C5.282699,154.932739 0.580266777,153.420058 0.0527592694,151.461834 C-0.474661601,149.503636 3.05433758,149.844493 6.07893489,150.33889 C8.09531307,150.668451 9.77846274,151.280277 11.1283839,152.17437 Z" id="Shape" fill="url(#linearGradient-18)"></path>
                    <path d="M18.6224787,146.340196 L16.5510516,153.115529 L14.9047544,153.240611 C11.9129136,153.467924 8.95824244,152.461915 6.72672275,150.456148 L10.5599699,150.780867 L12.490759,144.465541 L18.6224787,146.340196 Z" id="Shape" fill="#FE9F9F"></path>
                    <path d="M18.1638797,150.877208 L9.92447276,146.734234 L19.4852623,92.7235041 C20.1574101,88.9264127 22.9050176,85.8285151 26.5946677,84.7077266 L60.2534117,74.4833605 L36.3939254,102.754623 L18.1638797,150.877208 Z" id="Shape" fill="#211D41"></path>
                    <path d="M50.1628213,152.988278 C51.2246653,151.904057 52.2500277,151.016038 53.2389085,150.324221 C54.7222179,149.286453 54.9923144,149.872123 55.181285,150.577083 C55.3702556,151.282044 55.7942764,152.864798 56.1368268,154.143214 C56.4794048,155.421645 56.1207974,155.668904 53.8262599,156.118973 C51.5317224,156.569042 51.2003601,156.434593 48.9337361,157.429921 C46.6671121,158.425248 41.8776249,159.634332 40.3925723,158.2532 C38.9076074,156.872045 42.0809948,155.291023 44.9079895,154.107503 C46.7926157,153.318468 48.5442263,152.945393 50.1628213,152.988278 Z" id="Shape" fill="url(#linearGradient-19)"></path>
                    <path d="M53.426533,144.069352 L55.2602425,150.91285 L53.9303866,151.89133 C51.5136194,153.669537 48.4748128,154.38213 45.519482,153.863668 L48.9423351,152.107734 L47.2331239,145.728871 L53.426533,144.069352 Z" id="Shape" fill="#FE9F9F"></path>
                    <path d="M59.6571871,74.4833605 L82.5697034,68.6526468 L85.5260605,81.167068 C85.7995345,82.3246985 85.9376591,83.5101695 85.9376591,84.6996637 C85.9376591,93.1856676 79.0583937,100.064933 70.5723898,100.064933 L42.3201098,100.064933 L55.7854101,148.273684 L47.2949059,150.339762 L21.9925442,101.024726 C21.822074,100.692474 21.6698998,100.351149 21.5367032,100.00228 C19.5188296,94.7170517 22.1675438,88.796718 27.4527719,86.7788445 L59.6571871,74.4833605 Z" id="Shape" fill="url(#linearGradient-20)"></path>
                    <path d="M76.1778326,83.8499265 L74.3463317,85.2499595 L74.146327,84.9883166 L75.9778279,83.5882835 L76.1778326,83.8499265 Z M71.7299018,87.2500067 L69.898401,88.6500397 L69.6983962,88.3883967 L71.5298971,86.9883637 L71.7299018,87.2500067 Z M67.1968853,90.5620795 C66.5353237,90.9658882 65.8533297,91.3346733 65.153728,91.6670106 L65.0124171,91.3695377 C65.7016542,91.0421239 66.373544,90.6788026 67.0253039,90.2809768 L67.1968853,90.5620795 Z M62.0539123,92.8645756 C61.3127135,93.0888784 60.5599898,93.2743915 59.7987653,93.4202556 L59.7367872,93.0968091 C60.4867331,92.9531061 61.2283043,92.7703416 61.9585219,92.5493621 L62.0539123,92.8645756 Z M56.5245977,93.8523705 L54.2332418,94.1057005 L54.1970518,93.7783639 L56.4884078,93.525034 L56.5245977,93.8523705 Z M50.9598763,94.4676004 L48.6685203,94.7209304 L48.6323303,94.3935938 L50.9236863,94.1402638 L50.9598763,94.4676004 Z M45.3951548,95.0828303 L43.1037988,95.3361602 L43.0676089,95.0088237 L45.3589648,94.7554937 L45.3951548,95.0828303 Z M39.8304333,95.6980601 L37.5390773,95.9513901 L37.5028874,95.6240535 L39.7942433,95.3707236 L39.8304333,95.6980601 Z M34.6622188,97.1226736 C34.159904,97.6683512 33.844321,98.364588 33.76542,99.1020959 L33.4379576,99.0670629 C33.5243695,98.2593481 33.8698236,97.49721 34.4199184,96.8996277 L34.6622188,97.1226736 Z M34.5183954,102.206878 L35.3023531,104.374803 L34.9926496,104.486797 L34.2086919,102.318872 L34.5183954,102.206878 Z M36.4222926,107.471839 L37.2062503,109.639763 L36.8965467,109.751757 L36.1125891,107.583832 L36.4222926,107.471839 Z M38.3261898,112.736799 L39.1101475,114.904724 L38.8004439,115.016718 L38.0164863,112.848793 L38.3261898,112.736799 Z M40.230087,118.001759 L41.0140447,120.169684 L40.7043411,120.281678 L39.9203834,118.113753 L40.230087,118.001759 Z M42.1339842,123.26672 L42.9179418,125.434645 L42.6082383,125.546639 L41.8242806,123.378714 L42.1339842,123.26672 Z M44.0378814,128.53168 L44.821839,130.699605 L44.5121355,130.811599 L43.7281778,128.643674 L44.0378814,128.53168 Z M45.9417785,133.796641 L46.7257362,135.964566 L46.4160326,136.07656 L45.632075,133.908635 L45.9417785,133.796641 Z M47.8456757,139.061601 L48.6296334,141.229526 L48.3199298,141.34152 L47.5359722,139.173595 L47.8456757,139.061601 Z M49.7495729,144.326562 L50.5335306,146.494487 L50.223827,146.606481 L49.4398693,144.438556 L49.7495729,144.326562 Z" id="Shape" fill="#FFFFFF" fill-rule="nonzero"></path>
                    <path d="M57.5610234,27.6456418 C56.7340095,23.282489 55.5701163,21.063719 54.0693436,20.9893319 C51.8181847,20.8777513 50.8325526,19.5293317 50.5959171,17.6076105 C50.5468524,17.209155 50.4379301,16.3813362 50.2691503,15.1241542 L48.5858096,14.5311489 L50.0465386,11.0576149 L50.318466,6.14000562 C58.360961,3.28214691 63.2409405,4.49984918 64.9584045,9.79311244 C66.6758685,15.0863757 66.4363308,19.4182388 64.2397915,22.7887017 L64.768188,26.1175775 L57.5610234,27.6456418 Z" id="Shape" fill="#FE9F9F"></path>
                    <path d="M70.7503146,7.63555107 C76.0214619,7.33290092 78.4889032,8.62105302 78.1526385,11.5 C77.6020379,16.2140131 78.9129104,15.285457 83.0599721,23.3095647 C85.82468,28.6589698 83.7078511,34.9672948 76.7094855,42.2345399 C78.8032449,35.4691425 77.8847818,30.1696267 73.9540964,26.3359924 C68.0580683,20.5855411 73.9823935,16.3605557 74.5974297,12.4482918 C74.9727621,10.0607903 73.7817191,8.9084425 71.0243006,8.99124838 C71.4873525,12.253956 70.6285921,15.6754141 69.2403353,17.8601951 C66.6177488,21.9875129 66.0974373,23.1684729 64.2613914,23.5797086 C63.3717873,22.8351111 58.3823773,19.5249689 61.5584374,16.415116 C62.8320405,15.1680622 62.0483301,11.3217381 59.8084698,12.1586694 C57.5686094,12.9956008 53.276757,12.540553 50.2475382,10.1286191 C46.3658088,7.03789656 46.1856919,6.43566591 48.5947313,2.12615407 C48.5947313,2.12615407 50.1144236,-0.918972997 54.2229443,0.406462904 C57.8264952,1.56899224 59.5990238,-1.90066417 66.0974373,1.64573237 C68.6748815,3.05232788 70.1147435,5.24459851 70.7503146,7.63555107 L70.7503146,7.63555107 Z" id="Shape" fill="url(#linearGradient-21)"></path>
                    <path d="M20.9214517,17.4909124 L22.965555,21.5147266 L20.6481824,23.6337114 C17.3509054,23.103124 14.9657859,21.4978384 13.4928236,18.8178546 C12.0198613,16.1378708 12.6617426,13.4294164 15.4184675,10.6924915 L18.9236513,15.3313133 L21.2633402,13.7577983 L21.3808213,14.0010386 C21.9366944,15.1519531 21.7562184,16.5230469 20.9214517,17.4909124 Z" id="Shape" fill="#FE9F9F"></path>
                    <path d="M63.4682489,25.8783727 C68.6585725,26.1967015 72.2937834,29.5592457 73.7920272,32.6358931 C75.2902709,35.7125406 77.2515419,46.2087976 82.746186,67.5729688 L85.7069182,80.1059096 C85.9799186,81.2615355 86.1178012,83.6322681 86.1178012,83.6322681 C86.1178012,83.6322681 77.2975965,80.5826322 59.6571871,74.4833605 L55.8566783,60.6693113 L54.1914342,54.492376 C51.2090567,53.5586569 49.4289283,51.5764924 48.8510488,48.5458826 C48.2731694,45.5152728 48.9193563,43.2912769 50.7896093,41.873895 L31.6594866,39.0020987 C30.1034275,38.7685045 28.6824024,37.9855708 27.6536026,36.7950006 L14.7666489,21.8816785 L22.0268907,18.7577768 L33.1016155,29.1000016 C49.8858221,26.7400298 60.0080333,25.6661535 63.4682489,25.8783727 Z" id="Shape" fill="url(#linearGradient-22)"></path>
                </g>
                <g id="Men-Copy" transform="translate(0.000000, 23.203733)">
                    <path d="M39.003834,60.2816869 L36.9829038,73.4549287 L73.17079,73.4549287 L75.1917202,60.2816869 L39.003834,60.2816869 L39.003834,60.2816869 Z M39.5090666,56.9883764 L75.6969527,56.9883764 L78.0845903,41.4247877 L81.3398173,41.9241778 L51.7000232,235.128365 L48.4447961,234.628975 L49.9300927,224.94721 L13.7422065,224.94721 L12.1802976,235.128365 L8.92507052,234.628975 L38.5648647,41.4247877 L41.8200918,41.9241778 L39.5090666,56.9883764 Z M36.4776713,76.7482392 L34.4567411,89.9214811 L70.6446272,89.9214811 L72.6655574,76.7482392 L36.4776713,76.7482392 Z M33.9515085,93.2147915 L31.9305783,106.388033 L68.1184645,106.388033 L70.1393947,93.2147915 L33.9515085,93.2147915 Z M31.4253458,109.681344 L29.4044156,122.854586 L65.5923017,122.854586 L67.6132319,109.681344 L31.4253458,109.681344 Z M28.899183,126.147896 L26.8782528,139.321138 L63.066139,139.321138 L65.0870692,126.147896 L28.899183,126.147896 L28.899183,126.147896 Z M26.3730203,142.614448 L24.3520901,155.78769 L60.5399762,155.78769 L62.5609064,142.614448 L26.3730203,142.614448 Z M23.8468575,159.081001 L21.8259273,172.254243 L58.0138135,172.254243 L60.0347437,159.081001 L23.8468575,159.081001 L23.8468575,159.081001 Z M21.3206948,175.547553 L19.2997646,188.720795 L55.4876507,188.720795 L57.5085809,175.547553 L21.3206948,175.547553 L21.3206948,175.547553 Z M18.794532,192.014105 L16.7736018,205.187347 L52.961488,205.187347 L54.9824182,192.014105 L18.794532,192.014105 L18.794532,192.014105 Z M16.2683693,208.480658 L14.2474391,221.6539 L50.4353252,221.6539 L52.4562554,208.480658 L16.2683693,208.480658 Z" id="Shape" fill="#0F55BE" fill-rule="nonzero"></path>
                    <path d="M4.53065647,50.7416022 L11.6001487,57.5866142 L8.77337664,64.6325485 L15.1989456,73.573808 L11.6001487,78.5234947 L2.64205274,68.9579256 C-0.133369778,65.9942941 -0.789229978,61.6241384 0.993971725,57.9763619 L4.53065647,50.7416022 Z" id="Shape" fill="#F4B696"></path>
                    <polygon id="Shape" fill="#D64F53" points="21.6472671 28.8114803 13.1921259 32.5845561 2.74235873 50.6480466 9.6592462 59.4168909 21.6472671 46.3939954"></polygon>
                    <polygon id="Shape" fill="#F4B696" points="15.0033123 175.969956 22.0592779 175.969956 22.0592779 183.014777 15.0033123 183.014777"></polygon>
                    <polygon id="Shape" fill="#F4B696" points="39.9645186 157.703473 47.9608562 157.703473 45.8997488 166.409925 38.8437832 166.409925"></polygon>
                    <path d="M38.4947785,165.74863 L45.9059217,165.74863 L50.6006017,167.314146 C52.9662487,168.151211 54.9586981,168.492849 54.9586981,171.114946 C54.9586981,171.788522 54.5119618,172.334563 53.9608847,172.334563 L40.0597596,172.334563 C39.1954444,172.334563 38.4947785,171.633897 38.4947785,170.769582 L38.4947785,165.74863 Z" id="Shape" fill="#021038"></path>
                    <polygon id="Shape" fill="#121958" points="23.3315982 180.250614 14.1548128 180.250614 10.0607867 86.0007656 33.1756809 86.5719512"></polygon>
                    <path d="M48.5589852,163.183404 L38.1244015,161.916326 L42.3706868,119.898177 L10.0377858,86.1196737 L41.3182799,86.6345929 L56.1561048,108.308753 C58.7562641,112.106902 59.6295726,116.827261 58.5603912,121.304271 L48.5589852,163.183404 Z" id="Shape" fill="url(#linearGradient-23)"></path>
                    <path d="M47.4809859,30.2143963 L67.2415814,30.2143963 L94.9489394,16.3084817 L97.571654,12.9952317 L97.571654,16.3084817 L104.191902,16.3084817 C103.552706,19.8211898 102.289532,22.0026639 100.402381,22.8529039 C98.5152297,23.703144 95.7895386,23.703144 92.2253077,22.8529039 L67.6310395,40.6562552 L47.4809859,43.5232791 L47.4809859,30.2143963 Z" id="Shape" fill="#F4B696"></path>
                    <path d="M14.6113142,182.232019 L22.0224575,182.232019 L26.7171375,183.797534 C29.0827845,184.6346 31.0752338,184.976238 31.0752338,187.598335 C31.0752338,188.271911 30.6284976,188.817952 30.0774205,188.817952 L16.1762954,188.817952 C15.3119802,188.817952 14.6113142,188.117286 14.6113142,187.252971 L14.6113142,182.232019 Z" id="Shape" fill="#021038"></path>
                    <path d="M31.9207566,29.3250585 C32.1805023,25.3522946 32.9558742,23.0978281 34.2468725,22.561659 C36.1833699,21.7574054 37.4263892,21.3543801 37.1736243,19.3186881 C36.9208594,17.2829961 37.4685633,16.5974822 38.3121167,16.1942188 C39.1556701,15.7909555 39.8331074,14.4977589 37.4249889,13.1125779 C35.8195765,12.1891238 34.8984732,9.97206878 34.6616791,6.46141269 C25.9800491,3.62749034 21.1667127,5.252237 20.2216699,11.3356526 C19.2766272,17.4190683 19.92346,22.1720446 22.1621684,25.5945815 L22.1621684,29.3250585 L31.9207566,29.3250585 Z" id="Shape" fill="#F4B696"></path>
                    <path d="M52.6909467,28.0710067 L52.6909467,44.0088339 L41.3396011,44.0088339 L41.3396011,86.6940318 L9.49509857,86.6940318 L9.49509857,41.7645916 C9.49509857,34.2018335 15.6259254,28.0710067 23.1886835,28.0710067 C24.623645,28.0710067 26.0586065,28.0710067 27.4935681,28.0710067 C30.4451779,28.0710067 38.8443041,28.0710067 52.6909467,28.0710067 Z" id="Shape" fill="url(#linearGradient-24)"></path>
                    <path d="M22.0304699,25.5160442 C24.7051202,25.4342923 26.2337054,24.9729734 26.6162256,24.1320875 C27.1900058,22.8707585 27.2652231,20.6220108 27.1372701,19.9122987 C27.0093172,19.2025867 26.1995047,19.4996392 25.5600527,19.4996392 C24.9206008,19.4996392 23.927893,18.0618053 24.5903483,16.9807776 C25.2528036,15.8997499 26.1692508,16.0690781 26.6162256,16.2610285 C27.0632003,16.452979 28.1380471,15.9153514 27.7779218,14.169648 C27.4177965,12.4239445 26.6138783,10.7889077 27.7779218,10.7889077 C28.9419653,10.7889077 35.46449,10.0417 35.8085494,5.61857183 C36.1526089,1.1954436 33.5828561,-1.31078077 29.456907,0.707220778 C25.3309579,2.72522232 24.0024481,2.53758833 20.8938113,3.24610428 C17.7851746,3.95462024 14.6905172,4.82435165 14.0355732,10.270938 C13.3806291,15.7175244 15.5584901,18.4891822 18.0649707,20.4659958 C20.5714512,22.4428094 19.9972537,23.0485635 20.3444429,24.1320875 C20.5759023,24.8544367 21.1379114,25.3157556 22.0304699,25.5160442 Z" id="Shape" fill="url(#linearGradient-25)"></path>
                    <path d="M27.5127271,88.7972252 L27.7547894,88.5788071 L29.283716,90.2732432 L29.0416537,90.4916613 L27.5127271,88.7972252 Z M31.2258343,92.9122841 L31.4678966,92.693866 L32.9968232,94.3883021 L32.7547609,94.6067201 L31.2258343,92.9122841 Z M34.9389415,97.0273429 L35.1810038,96.8089248 L36.7099304,98.5033609 L36.4678681,98.721779 L34.9389415,97.0273429 Z M38.6520487,101.142402 L38.894111,100.923984 L40.4230376,102.61842 L40.1809753,102.836838 L38.6520487,101.142402 Z M42.365156,105.257461 L42.6072182,105.039043 L44.1361448,106.733479 L43.8940825,106.951897 L42.365156,105.257461 Z M46.0782632,109.37252 L46.3203255,109.154101 L47.849252,110.848538 L47.6071897,111.066956 L46.0782632,109.37252 Z M49.7913704,113.487578 L50.0334327,113.26916 L50.2282552,113.485073 C50.6866972,113.993142 51.070776,114.559975 51.3716546,115.169822 L51.079266,115.314077 C50.7916357,114.731083 50.4244747,114.189218 49.9861929,113.703491 L49.7913704,113.487578 Z M51.810313,118.411241 L52.1363463,118.409548 C52.1388587,118.893455 52.0939188,119.377432 52.0015079,119.855114 L51.8408785,120.685426 L51.5207757,120.6235 L51.6814051,119.793188 C51.7697534,119.336506 51.8127148,118.873837 51.810313,118.411241 Z M50.9015152,123.824527 L51.221618,123.886453 L50.7881355,126.127172 L50.4680328,126.065246 L50.9015152,123.824527 Z M49.8487723,129.266274 L50.168875,129.3282 L49.7353926,131.568919 L49.4152899,131.506993 L49.8487723,129.266274 Z M48.7960293,134.70802 L49.1161321,134.769946 L48.6826496,137.010666 L48.3625469,136.94874 L48.7960293,134.70802 Z M47.7432864,140.149767 L48.0633891,140.211693 L47.6299067,142.452412 L47.309804,142.390486 L47.7432864,140.149767 Z M46.6905434,145.591514 L47.0106462,145.65344 L46.5771638,147.894159 L46.257061,147.832233 L46.6905434,145.591514 Z M45.6378005,151.03326 L45.9579032,151.095186 L45.5244208,153.335906 L45.2043181,153.27398 L45.6378005,151.03326 Z M44.5850575,156.475007 L44.9051603,156.536933 L44.5608941,158.316484 L44.2407913,158.254558 L44.5850575,156.475007 Z" id="Shape" fill="#A587FF" fill-rule="nonzero"></path>
                </g>
            </g>
        </g>
    </g>
</svg>