<svg width="14" height="16" viewBox="0 0 14 16" fill="none" xmlns="http://www.w3.org/2000/svg">
<g clip-path="url(#clip0)">
<path d="M11.5056 1.24539C10.7673 0.403955 9.43288 0.0432129 7.7257 0.0432129H2.771C2.60209 0.0432191 2.43872 0.10348 2.31027 0.213161C2.18182 0.322842 2.0967 0.474749 2.07023 0.641571L0.00718469 13.7259C-0.0338219 13.9839 0.165966 14.2176 0.427476 14.2176H3.48634L4.25455 9.34494L4.23071 9.49752C4.28544 9.1531 4.58001 8.89905 4.92883 8.89905H6.38239C9.23791 8.89905 11.4738 7.73921 12.127 4.38403C12.1464 4.2848 12.1632 4.18822 12.1777 4.09386C12.0952 4.05021 12.0952 4.05021 12.1777 4.09386C12.3722 2.85376 12.1764 2.00962 11.5056 1.24539Z" fill="#27346A"/>
<path d="M5.42499 3.64713C5.50861 3.60731 5.60007 3.58668 5.69269 3.58674H9.57709C10.0371 3.58674 10.4661 3.61667 10.8582 3.67977C10.9679 3.69726 11.077 3.71815 11.1854 3.74239C11.3391 3.7763 11.491 3.8178 11.6405 3.86674C11.8333 3.93111 12.0127 4.00607 12.1777 4.09386C12.3722 2.85328 12.1763 2.00962 11.5056 1.24539C10.7669 0.403955 9.43288 0.0432129 7.7257 0.0432129H2.77058C2.4217 0.0432129 2.12491 0.2972 2.07023 0.641571L0.00718498 13.7254C-0.0338216 13.9839 0.165966 14.2172 0.427052 14.2172H3.48634L5.08014 4.11018C5.09581 4.01084 5.13538 3.91679 5.19545 3.83613C5.25553 3.75547 5.3343 3.69061 5.42499 3.64713Z" fill="#27346A"/>
<path d="M12.127 4.38417C11.4738 7.73887 9.23795 8.89919 6.38237 8.89919H4.92838C4.57956 8.89919 4.28494 9.15323 4.23074 9.49765L3.27503 15.5562C3.23932 15.782 3.41395 15.9866 3.6424 15.9866H6.22094C6.36865 15.9866 6.51149 15.9338 6.62379 15.8379C6.73609 15.7419 6.81047 15.6091 6.83355 15.4632L6.85866 15.3318L7.34465 12.2517L7.37596 12.0815C7.39904 11.9356 7.47341 11.8027 7.5857 11.7068C7.69798 11.6108 7.84082 11.5581 7.98852 11.558H8.37442C10.8723 11.558 12.8281 10.5433 13.3997 7.60838C13.6383 6.38189 13.5148 5.35789 12.8837 4.63863C12.6923 4.42078 12.4546 4.24086 12.1777 4.09399C12.1627 4.18883 12.1464 4.28493 12.127 4.38417Z" fill="#2790C3"/>
<path d="M11.4941 3.82132C11.3922 3.79158 11.2894 3.76525 11.1858 3.74238C11.0774 3.71853 10.9682 3.69779 10.8586 3.68018C10.4661 3.61666 10.0374 3.58667 9.57699 3.58667H5.69307C5.60037 3.58646 5.50884 3.60727 5.42536 3.64755C5.33456 3.69089 5.25571 3.75571 5.19561 3.83639C5.13551 3.91707 5.09599 4.01119 5.08046 4.11059L4.25492 9.34492L4.23108 9.4975C4.28538 9.15308 4.57995 8.89904 4.92883 8.89904H6.38281C9.23834 8.89904 11.4742 7.7392 12.1273 4.38402C12.1468 4.28479 12.1631 4.18863 12.1781 4.09385C12.0127 4.00654 11.8337 3.9311 11.6409 3.86715C11.5922 3.85102 11.5433 3.83574 11.4941 3.82132" fill="#1F264F"/>
</g>
<defs>
<clipPath id="clip0">
<rect width="13.5629" height="16" fill="white"/>
</clipPath>
</defs>
</svg>
