<svg width="40" height="40" viewBox="0 0 40 40" fill="none" xmlns="http://www.w3.org/2000/svg">
<path d="M12.1064 16.9996C11.3872 16.947 8.89618 16.9153 6.58059 16.789C4.13339 16.6555 2.28809 17.3873 2.1897 18.1573M12.1064 16.9996C13.1414 15.9997 13.6958 15.305 13.9484 15.0524L16.0008 12.8947C16.5271 12.4737 16.9565 12.3172 17.4744 12.1578C18.1585 11.9474 19.3163 11.9474 19.6321 12.1579C19.9478 12.3684 23.1054 13.4735 23.3686 13.7893M12.1064 16.9996L10.8434 18.0521L8.84355 19.6309C8.84355 19.6309 7.21211 20.7361 8.63304 21.7886M23.3686 13.7893C23.6317 14.105 23.7451 15.6029 23.8948 16.0522C24.0527 16.5259 24.6843 17.9994 25.4737 17.7363M23.3686 13.7893C23.2857 13.7191 22.9592 13.6208 22.316 13.7893C21.6729 13.9577 20.6629 14.7892 20.1057 15.4207C19.3163 16.3154 19.5268 16.0522 19.0005 16.7364C18.3875 17.5333 17.6322 18.5783 17.0007 19.473C16.1611 20.8324 18.1059 21.8412 19.5268 21.157C20.0755 20.8929 20.9815 20.3512 21.4214 19.9993C21.9477 19.5783 23.0528 18.8415 23.0528 18.8415M25.4737 17.7363C26.2631 17.4731 27.0525 16.8942 27.8419 17.4205C28.4734 17.8415 30.1399 18.9642 30.8942 19.473M25.4737 17.7363C24.8623 17.8196 23.0528 18.8415 23.0528 18.8415M30.8942 19.473C31.2802 19.7712 32.0415 20.5992 31.9994 21.5254C33.5607 21.8763 36.7042 22.6727 36.7885 23.0516M30.8942 19.473L30.7364 19.3665M36.7885 23.0516C36.8937 23.5252 38.2862 25.2515 32.5 26.2618C29.1845 26.8408 26.4736 26.4724 23.6843 26.3671L23.0002 26.2618M36.7885 23.0516C37.2937 23.6831 37.2446 24.9286 37.1568 25.4724C36.8586 25.9812 36.4469 27.7502 31.5 29C25.29 30.5688 19.1584 28.5774 16.1587 27.4723C15.6066 27.2689 7.52787 24.0516 7.10686 23.841C6.87152 23.7233 3.21246 22.1043 2.42305 21.578C1.79153 21.157 2.00435 19.1221 2.1897 18.1573M23.0002 26.2618C19.9303 25.8057 12.8011 24.2936 8.84355 21.8938C8.79223 21.8725 8.68715 21.8112 8.63304 21.7886M23.0002 26.2618C22.8949 25.7005 22.6844 24.8409 24.3685 23.4726C26.0526 22.1043 26.4736 21.8412 26.4736 21.8412C26.4736 21.8412 29.3681 19.998 30.7364 19.3665M2.1897 18.1573C2.17171 18.298 2.21209 18.4401 2.31781 18.5783C2.8507 19.2752 6.63397 20.9538 8.63304 21.7886M30.7364 19.3665C30.7364 19.3665 29.7362 19.7652 29.1575 19.9993C28.6037 20.2234 27.5261 20.9466 26.842 21.3676C26.1578 21.7886 25.1053 22.4727 23.8948 23.2095C21.0957 24.9133 20.632 21.9991 20.9477 20.9465C21.2635 19.894 23.0528 18.8415 23.0528 18.8415" stroke="#FC8080"/>
<path d="M31 23C32.4385 23.228 34.5 23.5 34.5 24C34.5 25.118 30 25.5 25.5 25" stroke="#FC8080" stroke-linecap="round"/>
</svg>
