<svg width="100" height="100" viewBox="0 0 100 100" fill="none" xmlns="http://www.w3.org/2000/svg">
<circle cx="50" cy="50" r="50" fill="#F5F5F5"/>
<path d="M36 26.6667L29 36.0001V68.6668C29 69.9044 29.4917 71.0914 30.3668 71.9666C31.242 72.8418 32.429 73.3334 33.6667 73.3334H66.3333C67.571 73.3334 68.758 72.8418 69.6332 71.9666C70.5083 71.0914 71 69.9044 71 68.6668V36.0001L64 26.6667H36Z" stroke="#FC8080" stroke-width="2" stroke-linecap="round" stroke-linejoin="round"/>
<path d="M29 36H71" stroke="#FC8080" stroke-width="2" stroke-linecap="round" stroke-linejoin="round"/>
<path d="M59.3334 45.3333C59.3334 47.8086 58.35 50.1826 56.5997 51.9329C54.8493 53.6833 52.4754 54.6666 50 54.6666C47.5247 54.6666 45.1507 53.6833 43.4004 51.9329C41.65 50.1826 40.6667 47.8086 40.6667 45.3333" stroke="#FC8080" stroke-width="2" stroke-linecap="round" stroke-linejoin="round"/>
<path d="M78.5 62C78.5 61.7239 78.2761 61.5 78 61.5C77.7239 61.5 77.5 61.7239 77.5 62H78.5ZM86 53.5C85.7239 53.5 85.5 53.7239 85.5 54C85.5 54.2761 85.7239 54.5 86 54.5V53.5ZM93.5 62C93.5 66.1421 90.1421 69.5 86 69.5V70.5C90.6944 70.5 94.5 66.6944 94.5 62H93.5ZM86 69.5C81.8579 69.5 78.5 66.1421 78.5 62H77.5C77.5 66.6944 81.3056 70.5 86 70.5V69.5ZM86 54.5C90.1421 54.5 93.5 57.8579 93.5 62H94.5C94.5 57.3056 90.6944 53.5 86 53.5V54.5Z" fill="#FC8080"/>
<path d="M12.5 31C12.5 30.7239 12.2761 30.5 12 30.5C11.7239 30.5 11.5 30.7239 11.5 31H12.5ZM16 26.5C15.7239 26.5 15.5 26.7239 15.5 27C15.5 27.2761 15.7239 27.5 16 27.5V26.5ZM19.5 31C19.5 32.933 17.933 34.5 16 34.5V35.5C18.4853 35.5 20.5 33.4853 20.5 31H19.5ZM16 34.5C14.067 34.5 12.5 32.933 12.5 31H11.5C11.5 33.4853 13.5147 35.5 16 35.5V34.5ZM16 27.5C17.933 27.5 19.5 29.067 19.5 31H20.5C20.5 28.5147 18.4853 26.5 16 26.5V27.5Z" fill="#FC8080"/>
<path d="M73 11V13C73 13.5523 72.5523 14 72 14H70" stroke="#FC8080"/>
<path d="M70 16H72C72.5523 16 73 16.4477 73 17V19" stroke="#FC8080"/>
<path d="M75 19V17C75 16.4477 75.4477 16 76 16H78" stroke="#FC8080"/>
<path d="M78 14H76C75.4477 14 75 13.5523 75 13V11" stroke="#FC8080"/>
<path d="M31 81V85C31 85.5523 30.5523 86 30 86H26" stroke="#FC8080"/>
<path d="M26 88H30C30.5523 88 31 88.4477 31 89V93" stroke="#FC8080"/>
<path d="M33 93V89C33 88.4477 33.4477 88 34 88H38" stroke="#FC8080"/>
<path d="M38 86H34C33.4477 86 33 85.5523 33 85V81" stroke="#FC8080"/>
</svg>
