<svg width="84" height="82" viewBox="0 0 84 82" fill="none" xmlns="http://www.w3.org/2000/svg">
<path d="M25 15.6667L18 25.0001V57.6668C18 58.9044 18.4917 60.0914 19.3668 60.9666C20.242 61.8418 21.429 62.3334 22.6667 62.3334H55.3333C56.571 62.3334 57.758 61.8418 58.6332 60.9666C59.5083 60.0914 60 58.9044 60 57.6668V25.0001L53 15.6667H25Z" stroke="#FC8080" stroke-width="2" stroke-linecap="round" stroke-linejoin="round"/>
<path d="M18 25H60" stroke="#FC8080" stroke-width="2" stroke-linecap="round" stroke-linejoin="round"/>
<path d="M48.3334 34.3333C48.3334 36.8086 47.35 39.1826 45.5997 40.9329C43.8493 42.6833 41.4754 43.6666 39 43.6666C36.5247 43.6666 34.1507 42.6833 32.4004 40.9329C30.65 39.1826 29.6667 36.8086 29.6667 34.3333" stroke="#FC8080" stroke-width="2" stroke-linecap="round" stroke-linejoin="round"/>
<path d="M67.5 51C67.5 50.7239 67.2761 50.5 67 50.5C66.7239 50.5 66.5 50.7239 66.5 51H67.5ZM75 42.5C74.7239 42.5 74.5 42.7239 74.5 43C74.5 43.2761 74.7239 43.5 75 43.5V42.5ZM82.5 51C82.5 55.1421 79.1421 58.5 75 58.5V59.5C79.6944 59.5 83.5 55.6944 83.5 51H82.5ZM75 58.5C70.8579 58.5 67.5 55.1421 67.5 51H66.5C66.5 55.6944 70.3056 59.5 75 59.5V58.5ZM75 43.5C79.1421 43.5 82.5 46.8579 82.5 51H83.5C83.5 46.3056 79.6944 42.5 75 42.5V43.5Z" fill="#FC8080"/>
<path d="M1.5 20C1.5 19.7239 1.27614 19.5 1 19.5C0.723858 19.5 0.5 19.7239 0.5 20H1.5ZM5 15.5C4.72386 15.5 4.5 15.7239 4.5 16C4.5 16.2761 4.72386 16.5 5 16.5V15.5ZM8.5 20C8.5 21.933 6.933 23.5 5 23.5V24.5C7.48528 24.5 9.5 22.4853 9.5 20H8.5ZM5 23.5C3.067 23.5 1.5 21.933 1.5 20H0.5C0.5 22.4853 2.51472 24.5 5 24.5V23.5ZM5 16.5C6.933 16.5 8.5 18.067 8.5 20H9.5C9.5 17.5147 7.48528 15.5 5 15.5V16.5Z" fill="#FC8080"/>
<path d="M62 0V2C62 2.55228 61.5523 3 61 3H59" stroke="#FC8080"/>
<path d="M59 5H61C61.5523 5 62 5.44772 62 6V8" stroke="#FC8080"/>
<path d="M64 8V6C64 5.44772 64.4477 5 65 5H67" stroke="#FC8080"/>
<path d="M67 3H65C64.4477 3 64 2.55228 64 2V0" stroke="#FC8080"/>
<path d="M20 70V74C20 74.5523 19.5523 75 19 75H15" stroke="#FC8080"/>
<path d="M15 77H19C19.5523 77 20 77.4477 20 78V82" stroke="#FC8080"/>
<path d="M22 82V78C22 77.4477 22.4477 77 23 77H27" stroke="#FC8080"/>
<path d="M27 75H23C22.4477 75 22 74.5523 22 74V70" stroke="#FC8080"/>
</svg>
