<svg width="40" height="39" viewBox="0 0 40 39" fill="none" xmlns="http://www.w3.org/2000/svg">
<mask id="path-1-inside-1" fill="white">
<path fill-rule="evenodd" clip-rule="evenodd" d="M7 17.9107C9.69482 16.2517 10.5 14.9563 10.5 10C10.5 7.74879 10.5 5.67132 10.1952 4H16.126C16.5701 5.72523 18.1362 7 20 7C21.8638 7 23.4299 5.72523 23.874 4H28.9189C28.9169 4.60895 28.9323 5.24951 28.9483 5.9145L28.9483 5.91468V5.91472C28.9645 6.58732 28.9812 7.28489 28.9812 8C28.9812 12.9484 30.3349 17.0573 33 17.8585V20V36H7V20V17.9107Z"/>
</mask>
<path d="M7 17.9107L6.47574 17.0592C6.18008 17.2412 6 17.5635 6 17.9107H7ZM10.1952 4V3C9.89858 3 9.61727 3.13168 9.42727 3.35945C9.23728 3.58723 9.1582 3.88759 9.21142 4.17939L10.1952 4ZM16.126 4L17.0945 3.75074C16.9807 3.30886 16.5823 3 16.126 3V4ZM23.874 4V3C23.4177 3 23.0193 3.30886 22.9055 3.75074L23.874 4ZM28.9189 4L29.9189 4.00325C29.9198 3.73747 29.8148 3.48228 29.6272 3.29404C29.4395 3.1058 29.1847 3 28.9189 3V4ZM28.9483 5.9145L27.9486 5.93853L27.9488 5.94623L28.9483 5.9145ZM28.9483 5.91468H29.9483C29.9483 5.9041 29.9481 5.89352 29.9478 5.88295L28.9483 5.91468ZM28.9483 5.91472H27.9483C27.9483 5.92273 27.9484 5.93074 27.9486 5.93875L28.9483 5.91472ZM33 17.8585H34C34 17.4171 33.7106 17.028 33.2879 16.9009L33 17.8585ZM33 36V37C33.5523 37 34 36.5523 34 36H33ZM7 36H6C6 36.5523 6.44772 37 7 37V36ZM9.49996 10C9.49996 12.4612 9.29278 13.8314 8.85469 14.7682C8.44105 15.6528 7.76774 16.2638 6.47574 17.0592L7.52426 18.7623C8.92708 17.8986 10.0038 17.0324 10.6664 15.6154C11.3046 14.2507 11.5 12.4951 11.5 10H9.49996ZM9.21142 4.17939C9.49645 5.7425 9.49996 7.71836 9.49996 10H11.5C11.5 7.77922 11.5035 5.60015 11.179 3.82061L9.21142 4.17939ZM16.126 3H10.1952V5H16.126V3ZM20 6C18.6035 6 17.4275 5.04488 17.0945 3.75074L15.1576 4.24926C15.7126 6.40558 17.6688 8 20 8V6ZM22.9055 3.75074C22.5725 5.04488 21.3965 6 20 6V8C22.3312 8 24.2874 6.40558 24.8424 4.24926L22.9055 3.75074ZM28.9189 3H23.874V5H28.9189V3ZM29.948 5.89047C29.932 5.22257 29.917 4.59607 29.9189 4.00325L27.9189 3.99675C27.9169 4.62182 27.9327 5.27646 27.9486 5.93853L29.948 5.89047ZM29.9478 5.88295L29.9478 5.88277L27.9488 5.94623L27.9488 5.94641L29.9478 5.88295ZM29.9483 5.91472V5.91468H27.9483V5.91472H29.9483ZM29.9812 8C29.9812 7.27099 29.9641 6.56161 29.948 5.89069L27.9486 5.93875C27.9648 6.61302 27.9812 7.2988 27.9812 8H29.9812ZM33.2879 16.9009C32.3854 16.6295 31.5474 15.7448 30.9245 14.1254C30.3108 12.5297 29.9812 10.3965 29.9812 8H27.9812C27.9812 10.5519 28.3286 12.9473 29.0579 14.8434C29.7781 16.7159 30.9495 18.2863 32.7121 18.8162L33.2879 16.9009ZM34 20V17.8585H32V20H34ZM34 36V20H32V36H34ZM7 37H33V35H7V37ZM6 20V36H8V20H6ZM6 17.9107V20H8V17.9107H6Z" fill="#FC8080" mask="url(#path-1-inside-1)"/>
<path d="M7.5 33H32.5" stroke="#FC8080"/>
<path d="M20 28H15V19H25V23" stroke="#FC8080" stroke-linecap="round" stroke-linejoin="round"/>
<path d="M22 28H25" stroke="#FC8080" stroke-linecap="round"/>
<path d="M25 28V25" stroke="#FC8080" stroke-linecap="round"/>
</svg>
