<svg width="40" height="39" viewBox="0 0 40 39" fill="none" xmlns="http://www.w3.org/2000/svg">
<path d="M10.0943 9.6875C10.1453 9.62286 10.2362 9.59287 10.3207 9.61823C16.5878 11.4984 23.4122 11.4984 29.6793 9.61823C29.7638 9.59287 29.8547 9.62286 29.9057 9.6875C34.4387 15.4293 36.5274 22.7255 35.7196 29.9962L35.5678 31.3622C35.5536 31.4897 35.4578 31.593 35.3317 31.6166L27.2794 33.1264C22.4684 34.0285 17.5316 34.0285 12.7206 33.1264L4.66832 31.6166C4.54221 31.593 4.44637 31.4897 4.43221 31.3622L4.28044 29.9962C3.47258 22.7255 5.56131 15.4293 10.0943 9.6875L9.70183 9.37768L10.0943 9.6875Z" stroke="#FC8080" stroke-linejoin="round"/>
<path d="M35.5 28.5L26.3693 29.9727C22.1504 30.6532 17.8496 30.6532 13.6307 29.9727L4.5 28.5" stroke="#FC8080" stroke-linejoin="round"/>
<path d="M8.5 12.5C12.1667 14.3333 21.5 16.9 31.5 12.5" stroke="#FC8080"/>
<path d="M9.5 15.5C7.5 19.5 7.5 21.9 7.5 23.5" stroke="#FC8080" stroke-linecap="round" stroke-linejoin="round"/>
<path d="M7 26C8 26.5 8.7 26.5 9.5 26.5" stroke="#FC8080" stroke-linecap="round"/>
</svg>
