<svg width="40" height="40" viewBox="0 0 40 40" fill="none" xmlns="http://www.w3.org/2000/svg">
<path d="M14.4937 27.5943C17.7289 26.7079 25.0679 24.18 28.5415 21.1602C32.0152 18.1405 31.0106 16.013 30.074 15.3267" stroke="#FC8080"/>
<path d="M15.5457 21.6066C15.7923 21.7309 16.0929 21.6317 16.2172 21.3851C16.3414 21.1385 16.2422 20.8378 15.9956 20.7136L15.5457 21.6066ZM17.0505 20.4302C17.3106 20.5227 17.5966 20.3868 17.6891 20.1266C17.7816 19.8664 17.6457 19.5805 17.3855 19.488L17.0505 20.4302ZM18.43 19.235C18.6934 19.3179 18.9742 19.1716 19.0571 18.9082C19.1401 18.6448 18.9938 18.3641 18.7304 18.2811L18.43 19.235ZM19.6042 18.2217C19.8765 18.2674 20.1344 18.0837 20.1801 17.8114C20.2259 17.5391 20.0422 17.2812 19.7698 17.2355L19.6042 18.2217ZM20.6717 17.0124C20.9395 17.0799 21.2112 16.9175 21.2787 16.6497C21.3461 16.3819 21.1837 16.1102 20.916 16.0427L20.6717 17.0124ZM20.2501 13.5672C20.0111 13.4289 19.7052 13.5106 19.567 13.7496C19.4287 13.9886 19.5103 14.2945 19.7494 14.4328L20.2501 13.5672ZM35.0519 17.0248C35.3265 16.996 35.5258 16.75 35.497 16.4754C35.4682 16.2008 35.2223 16.0015 34.9476 16.0303L35.0519 17.0248ZM17.1031 19.9182L16.9356 20.3893L17.1031 19.9182ZM15.5209 21.5942L15.5457 21.6066L15.9956 20.7136L15.9709 20.7011L15.5209 21.5942ZM16.9356 20.3893L17.0505 20.4302L17.3855 19.488L17.2707 19.4471L16.9356 20.3893ZM18.3884 19.2218L18.43 19.235L18.7304 18.2811L18.6888 18.268L18.3884 19.2218ZM19.4084 18.1888L19.6042 18.2217L19.7698 17.2355L19.574 17.2026L19.4084 18.1888ZM20.463 16.9598L20.6717 17.0124L20.916 16.0427L20.7072 15.9901L20.463 16.9598ZM19.7494 14.4328L21.2446 15.2978L21.7453 14.4322L20.2501 13.5672L19.7494 14.4328ZM31.2279 17.4258L35.0519 17.0248L34.9476 16.0303L31.1236 16.4312L31.2279 17.4258ZM21.2446 15.2978C24.2638 17.0445 27.7588 17.7895 31.2279 17.4258L31.1236 16.4312C27.8648 16.7729 24.5816 16.0731 21.7453 14.4322L21.2446 15.2978ZM18.4029 15.4055C18.8516 16.1805 19.5946 16.7411 20.463 16.9598L20.7072 15.9901C20.1007 15.8373 19.5817 15.4457 19.2684 14.9044L18.4029 15.4055ZM17.2541 16.3414C17.5742 17.309 18.4034 18.02 19.4084 18.1888L19.574 17.2026C18.9346 17.0952 18.4072 16.6429 18.2035 16.0274L17.2541 16.3414ZM16.2424 17.2268C16.6212 18.1808 17.4094 18.9136 18.3884 19.2218L18.6888 18.268C17.9967 18.0501 17.4396 17.5321 17.1719 16.8578L16.2424 17.2268ZM14.9448 18.1921C15.1979 19.2121 15.9455 20.0372 16.9356 20.3893L17.2707 19.4471C16.5966 19.2074 16.0877 18.6457 15.9154 17.9513L14.9448 18.1921ZM13.581 19.1291C13.8305 20.1976 14.541 21.1005 15.5209 21.5942L15.9709 20.7011C15.2556 20.3407 14.7369 19.6817 14.5548 18.9017L13.581 19.1291Z" fill="#FC8080"/>
<path d="M10.7476 20.9027C11.0881 21.8178 12.4163 23.1332 15.0045 21.4175C18.2398 19.2728 22.8373 14.2113 23.0927 13.8681M23.0927 13.8681C23.297 13.5936 21.5886 13.1818 20.7088 13.0103M23.0927 13.8681C23.2346 13.7823 23.6205 13.6622 24.0292 13.8681" stroke="#FC8080"/>
<path d="M4.02148 23.3048C5.32694 24.2199 8.99358 25.6897 13.2165 24.2485C13.7557 24.0769 14.5617 23.4077 13.4719 22.1038" stroke="#FC8080"/>
<path d="M6.23528 22.2753C3.30651 22.4812 3.25543 24.9348 3.59598 26.1358L3 26.479L3.08514 28.7952L5.12847 29.3957L6.06499 29.2242L8.10832 30.1678L9.3854 29.5673L11.2585 30.3394L12.5355 29.5673L14.4937 30.1678L15.6005 29.5673L17.729 30.1678L18.8358 29.5673L21.0494 30.3394L21.9008 29.5673L24.2847 30.1678H36.4595C36.8001 27.354 36.1473 26.3646 35.7784 26.2216C36.573 24.9634 37.7877 21.8979 36.2892 19.7017C34.4162 16.9565 34.927 13.8681 34.5865 13.8681C34.2459 13.8681 33.6499 13.8681 31.6917 14.8118C29.7336 15.7555 28.0308 15.2407 26.2429 14.8118C24.8125 14.4686 24.1712 14.0397 24.0293 13.8681L24.3698 12.1524C25.2553 9.7503 23.263 9.83609 22.1562 10.1792C20.8621 14.0912 16.3952 17.7 14.3234 19.0154C12.8477 20.0163 9.16405 22.0695 6.23528 22.2753Z" stroke="#FC8080"/>
<path d="M3.5957 26.1357C6.49042 26.8792 14.238 28.229 21.7302 27.3368C23.6601 26.8506 29.0692 25.947 35.2673 26.2215H35.8633" stroke="#FC8080"/>
<path d="M28.9674 15.3267C28.6836 17.0996 30.0061 20.4568 35.8637 19.0155" stroke="#FC8080"/>
<path d="M14 23.5C15.3756 22.9498 17.5 21.5 20 19C22 17 23 16 24 14" stroke="#FC8080"/>
</svg>
