<svg width="40" height="40" viewBox="0 0 40 40" fill="none" xmlns="http://www.w3.org/2000/svg">
<mask id="path-1-inside-1" fill="white">
<path fill-rule="evenodd" clip-rule="evenodd" d="M17.7064 2C17.1541 2 16.7064 2.44771 16.7064 3V19.7983L7.06539 25.5133C5.06382 26.6998 4.40307 29.2842 5.58955 31.2858C6.77602 33.2873 9.36044 33.9481 11.362 32.7616L24.1782 25.1644C24.6956 24.8577 25.0131 24.3425 25.0869 23.7893H25.1325V3C25.1325 2.44772 24.6848 2 24.1325 2H17.7064Z"/>
</mask>
<path d="M16.7064 19.7983L17.2163 20.6586L17.7064 20.368V19.7983H16.7064ZM7.06539 25.5133L7.5753 26.3735H7.5753L7.06539 25.5133ZM5.58955 31.2858L4.72932 31.7957L4.72932 31.7957L5.58955 31.2858ZM11.362 32.7616L11.8719 33.6218L11.362 32.7616ZM24.1782 25.1644L24.6881 26.0247L24.1782 25.1644ZM25.0869 23.7893V22.7893H24.2116L24.0957 23.6569L25.0869 23.7893ZM25.1325 23.7893V24.7893H26.1325V23.7893H25.1325ZM17.7064 3V3V1C16.6018 1 15.7064 1.89543 15.7064 3H17.7064ZM17.7064 19.7983V3H15.7064V19.7983H17.7064ZM7.5753 26.3735L17.2163 20.6586L16.1965 18.9381L6.55547 24.6531L7.5753 26.3735ZM6.44977 30.7758C5.54491 29.2494 6.04883 27.2784 7.5753 26.3735L6.55547 24.6531C4.07882 26.1212 3.26123 29.319 4.72932 31.7957L6.44977 30.7758ZM10.8521 31.9014C9.32561 32.8062 7.35462 32.3023 6.44977 30.7758L4.72932 31.7957C6.19742 34.2723 9.39528 35.0899 11.8719 33.6218L10.8521 31.9014ZM23.6683 24.3042L10.8521 31.9014L11.8719 33.6218L24.6881 26.0247L23.6683 24.3042ZM24.0957 23.6569C24.0606 23.9197 23.9112 24.1603 23.6683 24.3042L24.6881 26.0247C25.4801 25.5552 25.9655 24.7653 26.0781 23.9216L24.0957 23.6569ZM25.1325 22.7893H25.0869V24.7893H25.1325V22.7893ZM24.1325 3V23.7893H26.1325V3H24.1325ZM24.1325 3H26.1325C26.1325 1.89543 25.237 1 24.1325 1V3ZM17.7064 3H24.1325V1H17.7064V3Z" fill="#FC8080" mask="url(#path-1-inside-1)"/>
<path d="M18.4414 8V17.5385" stroke="#FC8080" stroke-linecap="round"/>
<path d="M9.82576 30.9999C8.2174 30.3989 6.44115 28.4231 9.82581 26.4231" stroke="#FC8080" stroke-linecap="round"/>
<path d="M11.4414 25.4999L12.4414 24.8076" stroke="#FC8080" stroke-linecap="round"/>
<path d="M17.5566 5.77637H24.5261" stroke="#FC8080"/>
<mask id="path-7-inside-2" fill="white">
<path fill-rule="evenodd" clip-rule="evenodd" d="M28.1478 7C27.5955 7 27.1478 7.44771 27.1478 8V24.7983L17.5068 30.5133C15.5052 31.6998 14.8445 34.2842 16.031 36.2858C17.2174 38.2873 19.8018 38.9481 21.8034 37.7616L34.6196 30.1644C35.137 29.8577 35.4545 29.3425 35.5283 28.7893H35.5739V8C35.5739 7.44772 35.1262 7 34.5739 7H28.1478Z"/>
</mask>
<path d="M27.1478 24.7983L27.6577 25.6586L28.1478 25.368V24.7983H27.1478ZM17.5068 30.5133L18.0167 31.3735H18.0167L17.5068 30.5133ZM16.031 36.2858L15.1707 36.7957L15.1707 36.7957L16.031 36.2858ZM21.8034 37.7616L22.3133 38.6218L21.8034 37.7616ZM34.6196 30.1644L35.1295 31.0247L34.6196 30.1644ZM35.5283 28.7893V27.7893H34.653L34.5371 28.6569L35.5283 28.7893ZM35.5739 28.7893V29.7893H36.5739V28.7893H35.5739ZM28.1478 8V8V6C27.0432 6 26.1478 6.89543 26.1478 8H28.1478ZM28.1478 24.7983V8H26.1478V24.7983H28.1478ZM18.0167 31.3735L27.6577 25.6586L26.6379 23.9381L16.9969 29.6531L18.0167 31.3735ZM16.8912 35.7758C15.9863 34.2494 16.4902 32.2784 18.0167 31.3735L16.9969 29.6531C14.5202 31.1212 13.7026 34.319 15.1707 36.7957L16.8912 35.7758ZM21.2935 36.9014C19.767 37.8062 17.796 37.3023 16.8912 35.7758L15.1707 36.7957C16.6388 39.2723 19.8367 40.0899 22.3133 38.6218L21.2935 36.9014ZM34.1097 29.3042L21.2935 36.9014L22.3133 38.6218L35.1295 31.0247L34.1097 29.3042ZM34.5371 28.6569C34.502 28.9197 34.3526 29.1603 34.1097 29.3042L35.1295 31.0247C35.9215 30.5552 36.4069 29.7653 36.5195 28.9216L34.5371 28.6569ZM35.5739 27.7893H35.5283V29.7893H35.5739V27.7893ZM34.5739 8V28.7893H36.5739V8H34.5739ZM34.5739 8H36.5739C36.5739 6.89543 35.6784 6 34.5739 6V8ZM28.1478 8H34.5739V6H28.1478V8Z" fill="#FC8080" mask="url(#path-7-inside-2)"/>
<path d="M28.8828 13V22.5385" stroke="#FC8080" stroke-linecap="round"/>
<path d="M20.2672 35.9999C18.6588 35.3989 16.8826 33.4231 20.2672 31.4231" stroke="#FC8080" stroke-linecap="round"/>
<path d="M21.8828 30.4999L22.8828 29.8076" stroke="#FC8080" stroke-linecap="round"/>
<path d="M27.998 10.7764H34.9675" stroke="#FC8080"/>
</svg>
