<svg width="40" height="40" viewBox="0 0 40 40" fill="none" xmlns="http://www.w3.org/2000/svg">
<path d="M34.7018 12.3338L37.3241 18.2322L31.6249 20.2683L31.2931 20.3868V20.7391V36.5H8.7069V20.7391V20.3868L8.37511 20.2683L2.67589 18.2322L5.29821 12.3338C6.99826 8.50982 10.1723 5.53576 14.0987 4.08783L15.3054 3.64283C17.0128 7.73009 22.9323 7.80174 24.6871 3.64006L25.9013 4.08783C29.8277 5.53576 33.0017 8.50982 34.7018 12.3338Z" stroke="#FC8080"/>
<path d="M31.25 20.7391V15.5652M8.75 20.7391V15.5652" stroke="#FC8080" stroke-linecap="round"/>
<path d="M24.5525 24.591C22.3938 27.0687 18.6058 27.3527 16.0916 25.2254C13.5775 23.098 13.2893 19.3649 15.4479 16.8872C17.6065 14.4095 21.3946 14.1254 23.9087 16.2528" stroke="#FC8080" stroke-linecap="round"/>
<path d="M17.3357 18.7351C18.6255 17.2245 20.9137 17.0305 22.4464 18.3016C23.9792 19.5728 24.1761 21.8278 22.8862 23.3383C21.5964 24.8488 19.3083 25.0429 17.7755 23.7717" stroke="#FC8080" stroke-linecap="round"/>
<path d="M8.75 34.4131H31.25" stroke="#FC8080"/>
</svg>
