<svg width="24" height="8" viewBox="0 0 24 8" fill="none" xmlns="http://www.w3.org/2000/svg">
<path d="M12.4122 2.54732C12.3985 3.65724 13.3743 4.27667 14.1094 4.64491C14.8647 5.02279 15.1184 5.26508 15.1155 5.60295C15.1097 6.12012 14.513 6.34833 13.9545 6.35722C12.9801 6.37278 12.4137 6.08678 11.9632 5.87042L11.6123 7.55902C12.0641 7.77315 12.9008 7.95987 13.7685 7.96802C15.8052 7.96802 17.1377 6.93441 17.1449 5.33176C17.1528 3.29789 14.4085 3.18527 14.4272 2.27614C14.4337 2.00051 14.6896 1.70636 15.2503 1.63152C15.5277 1.59373 16.2938 1.56484 17.1622 1.97606L17.5031 0.342289C17.0361 0.167428 16.4358 -2.38419e-05 15.6884 -2.38419e-05C13.7714 -2.38419e-05 12.423 1.04766 12.4122 2.54732ZM20.7786 0.140754C20.4067 0.140754 20.0932 0.363777 19.9534 0.706089L17.044 7.84799H19.0792L19.4842 6.69731H21.9713L22.2062 7.84799H24L22.4347 0.140754H20.7786ZM21.0632 2.22279L21.6506 5.11689H20.042L21.0632 2.22279ZM9.94463 0.140754L8.3404 7.84799H10.2797L11.8833 0.140754H9.94463ZM7.07561 0.140754L5.05699 5.38659L4.24047 0.926148C4.14462 0.428238 3.76626 0.140754 3.34611 0.140754H0.0461234L0 0.364517C0.677437 0.515668 1.44712 0.759437 1.9134 1.02025C2.19879 1.17955 2.28022 1.31884 2.37391 1.69746L3.92049 7.84799H5.97009L9.11225 0.140754H7.07561Z" fill="#222357"/>
</svg>
